<svg width="7" height="15" viewBox="0 0 7 15" fill="none" xmlns="http://www.w3.org/2000/svg">
    <path d="M6.5 3.36914V11.6816C6.5 12.1055 6.41797 12.5042 6.25391 12.8779C6.0944 13.2471 5.87565 13.5706 5.59766 13.8486C5.32422 14.1221 5.00065 14.3408 4.62695 14.5049C4.25781 14.6644 3.86133 14.7441 3.4375 14.7441C3.01367 14.7441 2.61491 14.6644 2.24121 14.5049C1.87207 14.3408 1.5485 14.1221 1.27051 13.8486C0.99707 13.5706 0.77832 13.2471 0.614258 12.8779C0.454753 12.5042 0.375 12.1055 0.375 11.6816V2.93164C0.375 2.63086 0.431966 2.34831 0.545898 2.08398C0.664388 1.81966 0.821615 1.58952 1.01758 1.39355C1.2181 1.19303 1.45052 1.03581 1.71484 0.921875C1.97917 0.803385 2.26172 0.744141 2.5625 0.744141C2.86328 0.744141 3.14583 0.803385 3.41016 0.921875C3.67448 1.03581 3.90462 1.19303 4.10059 1.39355C4.30111 1.58952 4.45833 1.81966 4.57227 2.08398C4.69076 2.34831 4.75 2.63086 4.75 2.93164V11.6816C4.75 11.8639 4.71582 12.0348 4.64746 12.1943C4.5791 12.3538 4.48568 12.4928 4.36719 12.6113C4.2487 12.7298 4.1097 12.8232 3.9502 12.8916C3.79069 12.96 3.61979 12.9941 3.4375 12.9941C3.25521 12.9941 3.08431 12.96 2.9248 12.8916C2.7653 12.8232 2.6263 12.7298 2.50781 12.6113C2.38932 12.4928 2.2959 12.3538 2.22754 12.1943C2.15918 12.0348 2.125 11.8639 2.125 11.6816V4.24414H3V11.6816C3 11.8001 3.04329 11.9027 3.12988 11.9893C3.21647 12.0758 3.31901 12.1191 3.4375 12.1191C3.55599 12.1191 3.65853 12.0758 3.74512 11.9893C3.83171 11.9027 3.875 11.8001 3.875 11.6816V2.93164C3.875 2.74935 3.84082 2.57845 3.77246 2.41895C3.7041 2.25944 3.61068 2.12044 3.49219 2.00195C3.3737 1.88346 3.2347 1.79004 3.0752 1.72168C2.91569 1.65332 2.74479 1.61914 2.5625 1.61914C2.38021 1.61914 2.20931 1.65332 2.0498 1.72168C1.8903 1.79004 1.7513 1.88346 1.63281 2.00195C1.51432 2.12044 1.4209 2.25944 1.35254 2.41895C1.28418 2.57845 1.25 2.74935 1.25 2.93164V11.6816C1.25 11.9824 1.30697 12.265 1.4209 12.5293C1.53939 12.7936 1.69661 13.026 1.89258 13.2266C2.0931 13.4225 2.32552 13.5798 2.58984 13.6982C2.85417 13.8122 3.13672 13.8691 3.4375 13.8691C3.73828 13.8691 4.02083 13.8122 4.28516 13.6982C4.54948 13.5798 4.77962 13.4225 4.97559 13.2266C5.17611 13.026 5.33333 12.7936 5.44727 12.5293C5.56576 12.265 5.625 11.9824 5.625 11.6816V3.36914H6.5Z" fill="#3B3B47"/>
</svg>
