<svg xmlns="http://www.w3.org/2000/svg" viewBox="0 0 310.66 59.26">
    <defs>
        <style>.cls-1{fill:#00519f;fill-rule:evenodd;}</style>
    </defs>
    <g id="Слой_2" data-name="Слой 2">
        <g id="Layer_1" data-name="Layer 1">
            <path class="cls-1"
                  d="M298.13,15.94V44.25c0,7.77-17.06,8.07-17.06-.59V15.94H277c-4.51,0-8.16-3.23-8.16-7.34,0-4,3.65-7.19,8.16-7.19h.29V1.27H302.2v.14h.3c4.52,0,8.16,3.23,8.16,7.19,0,4.11-3.64,7.34-8.16,7.34Zm-35.57,30.8h0c-6.12,3.81-15.44,4.25-22,1.61C231.08,44.54,227,34.71,227,25c0-13.5,8.3-24.79,22-24.79,4.81,0,9.47.59,13.55,3.23,3.8,1.9-.43,13.49-5.1,12.17A8.34,8.34,0,0,0,251.92,14c-5.83,0-7.57,6.16-7.57,10.85,0,4.4,2,10.86,7.57,10.86a9.26,9.26,0,0,0,5.54-1.61c3.64-2.5,11.08,8.65,5.1,12.61Zm-57.13-27h0c0-3.81-1.61-7.63-6-7.63-5.39,0-7.28,4.4-7.42,9.24l13.41-1.61Zm4.66,9.1h0l-16.91,2.93c2.48,6.16,12.1,5.57,17.2,4.1,7-2.05,9.91-2.34,10.2.89,1,12.32-9.47,13.2-18.8,13.2-15,0-25.21-9.83-25.21-24.94C176.57,10.8,185.9.24,199.88.24c12,0,18.52,7,20.27,17.75,1.31,7.19-2.92,10-10.06,10.86Zm-58-15h-5.53c-1.17,7.48-2.48,16.58-7.87,22.45h15.16q-.89-11.22-1.76-22.45Zm7,39.9h0l-.29-5H134c0,2.06-.14,4.11-.14,6.31-.44,4.25-13.56,6.89-14-.44l-.59-16.72c9.92-5.28,12-19.36,13.27-29.19.88-7.48,1.61-7.48,9-7.48h10c10.5,0,13.86-.15,14.73,7.77.59,6,1.31,12.18,1.89,18.19.59,5.43-.29,8.07,5.26,10.71-.15,5.28-.29,10.71-.59,16-.29,7.33-13.41,6-13.85-.15Zm-59.9-28.9h0c0-4-.44-11.44-5.83-11.44-5.55,0-5.84,7.48-5.84,11.44s.29,11.45,5.84,11.45c5.39,0,5.83-7.63,5.83-11.45Zm17,.15h0c0,13.79-8.59,24.94-22.87,24.94C78.9,50,70.45,38.38,70.45,25c0-13.93,9-24.79,22.89-24.79,14.28,0,22.87,11,22.87,24.79ZM50.34,44.83h0L48.59,24.3a59.81,59.81,0,0,1-.44-7.19H48A57.76,57.76,0,0,1,46.4,24.3c-1.89,6.45-3.64,13.05-5.54,19.5A8.18,8.18,0,0,1,25.12,44L19.58,24.3a39.84,39.84,0,0,1-1.46-7.19h-.29a56.21,56.21,0,0,1-.44,7.19c-.58,6.6-1,13.2-1.6,19.8C15.06,51.73-1,52.32.05,44.39,1.8,31.63,3.41,18.87,5.15,6,6.17-2.25,25-1.67,27,5.81l4.67,16.43c.44,2.2,1,4.26,1.31,6.46h.14a34.47,34.47,0,0,1,1.32-6.46C35.9,16.82,37.37,11.39,39,6.11c2-7.63,21-7.92,21.86-1,1.75,13.05,3.36,26.26,5.1,39.31C67,52.46,50.92,51.43,50.34,44.83Z"/>
        </g>
    </g>
</svg>