<svg width="57" height="74" viewBox="0 0 57 74" fill="none" xmlns="http://www.w3.org/2000/svg">
<path d="M0 8.62883V72.7299C0 73.4108 0.551939 73.9627 1.23285 73.9627H48.076C48.7564 73.9627 49.3084 73.4108 49.3084 72.7299V20.9563C49.3084 20.9289 49.2952 20.9055 49.2926 20.8786C49.2865 20.7705 49.2652 20.6638 49.2297 20.5618C49.216 20.5222 49.2063 20.4841 49.189 20.4455C49.1291 20.3114 49.0459 20.1891 48.9423 20.0845L36.6153 7.7575C36.5107 7.65341 36.3878 7.57014 36.2528 7.51073C36.2157 7.49499 36.1781 7.48179 36.1395 7.47011C36.0365 7.43457 35.9293 7.41324 35.8202 7.40613C35.7993 7.40969 35.775 7.39648 35.7491 7.39648H1.23285C0.551939 7.39648 0 7.94792 0 8.62883ZM45.1 19.7235H36.9814V11.6048L45.1 19.7235ZM2.46519 9.86167H34.5162V20.9563C34.5162 21.6367 35.0682 22.1886 35.7486 22.1886H46.8432V71.4975H2.46519V9.86167Z" fill="#3B3B47"/>
<path d="M51.7745 64.101V66.5662H55.4725C56.1534 66.5662 56.7054 66.0148 56.7054 65.3339V1.23285C56.7054 0.551939 56.1534 0 55.4725 0H8.62933C7.94842 0 7.39648 0.551939 7.39648 1.23285V4.93089H9.86218V2.46519H54.2397V64.101H51.7745Z" fill="#3B3B47"/>
<path d="M9.86182 24.6543H39.4466V27.1195H9.86182V24.6543Z" fill="#3B3B47"/>
<path d="M9.86182 17.2578H19.7236V19.7235H9.86182V17.2578Z" fill="#3B3B47"/>
<path d="M9.86182 32.0508H29.5854V34.5165H9.86182V32.0508Z" fill="#3B3B47"/>
<path d="M32.0503 32.0508H39.4464V34.5165H32.0503V32.0508Z" fill="#3B3B47"/>
<path d="M9.86182 39.4473H39.4466V41.913H9.86182V39.4473Z" fill="#3B3B47"/>
<path d="M9.86182 54.2393H39.4466V56.705H9.86182V54.2393Z" fill="#3B3B47"/>
<path d="M20.9561 46.8438H39.4468V49.3089H20.9561V46.8438Z" fill="#3B3B47"/>
<path d="M9.86182 46.8438H18.4907V49.3089H9.86182V46.8438Z" fill="#3B3B47"/>
<path d="M9.86182 61.6357H14.7927V64.1009H9.86182V61.6357Z" fill="#3B3B47"/>
<path d="M17.2578 61.6357H39.4466V64.1009H17.2578V61.6357Z" fill="#3B3B47"/>
</svg>
