<svg width="74" height="55" viewBox="0 0 74 55" fill="none" xmlns="http://www.w3.org/2000/svg">
    <path d="M72.7301 44.3776H70.2649V6.16324C70.2608 2.76071 67.5037 0.00406211 64.1012 0H9.8618C6.45927 0.00406211 3.70211 2.76122 3.69805 6.16324V44.3776H1.23285C0.55194 44.3776 0 44.9295 0 45.6104V49.3085C0 52.0316 2.20776 54.2394 4.9309 54.2394H69.0321C71.7552 54.2394 73.963 52.0316 73.963 49.3085V45.6104C73.963 44.9295 73.411 44.3776 72.7301 44.3776ZM6.16375 6.16324C6.16375 4.12101 7.81906 2.46519 9.8618 2.46519H64.1012C66.1434 2.46519 67.7992 4.12101 67.7992 6.16324V44.3776H65.334V6.16324C65.334 5.48233 64.7821 4.9309 64.1012 4.9309H9.8618C9.18088 4.9309 8.62894 5.48233 8.62894 6.16324V44.3776H6.16375V6.16324ZM62.8683 44.3776H44.5233C43.2102 44.3735 42.0094 45.1159 41.4264 46.2918C41.2584 46.6305 40.9126 46.8443 40.5343 46.8428H33.4287C33.0509 46.8443 32.7046 46.6305 32.5365 46.2918C31.9536 45.1159 30.7527 44.3735 29.4397 44.3776H11.0946V7.39609H62.8683V44.3776ZM71.4978 49.3085C71.4978 50.6703 70.3939 51.7737 69.0321 51.7737H4.9309C3.56907 51.7737 2.46519 50.6703 2.46519 49.3085V46.8433H29.4397C29.8179 46.8417 30.1642 47.0555 30.3323 47.3942C30.9152 48.5702 32.1161 49.3125 33.4287 49.3085H40.5343C41.8469 49.3125 43.0477 48.5702 43.6307 47.3942C43.7987 47.0555 44.145 46.8417 44.5233 46.8433H71.4978V49.3085Z" fill="#3B3B47"/>
    <path d="M44.0169 21.8271L31.69 34.1541L29.9463 32.411L42.2733 20.084L44.0169 21.8271Z" fill="#3B3B47"/>
    <path d="M37.8531 20.5957L30.457 27.9918L28.7139 26.2486L36.11 18.8525L37.8531 20.5957Z" fill="#3B3B47"/>
    <path d="M45.2496 27.9917L37.8535 35.3873L36.1104 33.6441L43.5064 26.248L45.2496 27.9917Z" fill="#3B3B47"/>
</svg>
