<svg width="67" height="74" viewBox="0 0 67 74" fill="none" xmlns="http://www.w3.org/2000/svg">
    <path d="M51.7741 41.9127C52.455 41.9127 53.0065 41.3607 53.0065 40.6798V30.8178C53.0065 30.1369 52.455 29.585 51.7741 29.585H14.791C14.1105 29.585 13.5586 30.1369 13.5586 30.8178V40.6798C13.5586 41.3607 14.1105 41.9127 14.791 41.9127H18.4896V44.3779H14.791C14.1105 44.3779 13.5586 44.9299 13.5586 45.6108V55.4728C13.5586 56.1537 14.1105 56.7056 14.791 56.7056H18.4896V59.1714H14.791C14.1105 59.1714 13.5586 59.7233 13.5586 60.4037V70.2662C13.5586 70.9466 14.1105 71.4986 14.791 71.4986H18.4896V73.9643H20.9548V71.4986H45.6103V73.9643H48.0755V71.4986H51.7736C52.4545 71.4986 53.0065 70.9466 53.0065 70.2662V60.4037C53.0065 59.7233 52.4545 59.1714 51.7736 59.1714H48.0755V56.7056H51.7741C52.455 56.7056 53.0065 56.1537 53.0065 55.4728V45.6108C53.0065 44.9299 52.455 44.3779 51.7741 44.3779H48.0755V41.9127H51.7741ZM16.0238 32.0507H50.5412V39.4469H16.0238V32.0507ZM50.5412 61.6366V69.0333H16.0238V61.6366H50.5412ZM45.6103 59.1714H20.9548V56.7056H45.6103V59.1714ZM50.5412 46.8437V54.2404H16.0238V46.8437H50.5412ZM45.6103 44.3779H20.9548V41.9127H45.6103V44.3779Z" fill="#3B3B47"/>
    <path d="M56.9738 34.5157H55.4724V36.9815H56.9738C62.2298 36.983 66.4921 32.7238 66.4941 27.4679C66.4961 22.2114 62.2364 17.9491 56.9804 17.9476C56.9784 17.9476 56.9764 17.9476 56.9738 17.9476H55.3419C55.3926 17.4393 55.4185 16.9295 55.418 16.4187C55.3241 7.25748 47.8212 -0.0930476 38.6595 0.000890439C33.077 0.0582688 27.8977 2.91957 24.878 7.61444C18.4298 5.32743 11.3484 8.70107 9.06139 15.1493C8.73235 16.0765 8.51503 17.0402 8.41449 18.0192C3.19559 18.6265 -0.54263 23.3498 0.0646662 28.5682C0.626263 33.3941 4.73364 37.0211 9.59151 36.9815H11.093V34.5157H9.59151C5.69689 34.5178 2.53854 31.362 2.53701 27.4679C2.53498 23.5732 5.69028 20.4149 9.5849 20.4129H9.59151C10.2724 20.4129 10.8244 19.8614 10.8244 19.1805C10.8828 13.7026 15.371 9.30989 20.8488 9.36829C22.2422 9.38301 23.6172 9.69174 24.8841 10.2736C25.4706 10.5412 26.1642 10.3117 26.4755 9.74709C30.2528 2.92312 38.8469 0.453824 45.6708 4.23115C50.1123 6.68979 52.8924 11.343 52.9528 16.4192C52.9492 17.2708 52.867 18.1198 52.706 18.9561C52.5821 19.6258 53.0244 20.2687 53.6941 20.3925C53.7678 20.4063 53.8429 20.4129 53.9181 20.4129H56.9713C60.8659 20.4129 64.0228 23.5702 64.0228 27.4643C64.0228 31.3589 60.8659 34.5157 56.9713 34.5157H56.9738Z" fill="#3B3B47"/>
    <path d="M45.6104 64.1016H48.0756V66.5668H45.6104V64.1016Z" fill="#3B3B47"/>
    <path d="M40.6797 64.1016H43.1449V66.5668H40.6797V64.1016Z" fill="#3B3B47"/>
    <path d="M35.748 64.1016H38.2133V66.5668H35.748V64.1016Z" fill="#3B3B47"/>
    <path d="M18.4893 64.1016H20.9545V66.5668H18.4893V64.1016Z" fill="#3B3B47"/>
    <path d="M45.6104 49.3086H48.0756V51.7743H45.6104V49.3086Z" fill="#3B3B47"/>
    <path d="M40.6797 49.3086H43.1449V51.7743H40.6797V49.3086Z" fill="#3B3B47"/>
    <path d="M35.748 49.3086H38.2133V51.7743H35.748V49.3086Z" fill="#3B3B47"/>
    <path d="M18.4893 49.3086H20.9545V51.7743H18.4893V49.3086Z" fill="#3B3B47"/>
    <path d="M45.6104 34.5156H48.0756V36.9814H45.6104V34.5156Z" fill="#3B3B47"/>
    <path d="M40.6797 34.5156H43.1449V36.9814H40.6797V34.5156Z" fill="#3B3B47"/>
    <path d="M35.748 34.5156H38.2133V36.9814H35.748V34.5156Z" fill="#3B3B47"/>
    <path d="M18.4893 34.5156H20.9545V36.9814H18.4893V34.5156Z" fill="#3B3B47"/>
</svg>
