<svg width="75" height="75" viewBox="0 0 75 75" fill="none" xmlns="http://www.w3.org/2000/svg">
    <path d="M0.162495 6.78768L5.0977 15.4238C5.26417 15.7156 5.54281 15.9267 5.86864 16.0085L10.4729 17.1595L26.2647 32.9513L28.0096 31.2069L11.9707 15.1685C11.8128 15.0101 11.6149 14.898 11.3982 14.8437L6.97404 13.7337L2.77221 6.37658L6.37465 2.77414L13.7348 6.98003L14.8453 11.4042C14.8991 11.6214 15.0118 11.8198 15.1696 11.9777L31.2085 28.0166L32.9529 26.2717L17.1612 10.4799L16.0101 5.87818C15.9284 5.55184 15.7172 5.2727 15.4254 5.10573L6.78879 0.171024C6.30715 -0.103041 5.70116 -0.0218364 5.30833 0.369468L0.373627 5.30468C-0.0232605 5.69497 -0.10954 6.30197 0.162495 6.78768Z" fill="#3B3B47"/>
    <path d="M51.4563 24.3147L24.3142 51.4573L22.5693 49.7125L49.712 22.5703L51.4563 24.3147Z" fill="#3B3B47"/>
    <path d="M19.5638 52.4187C19.3405 52.0472 18.9395 51.8203 18.5061 51.8203H11.1038C10.6709 51.8203 10.2694 52.0472 10.0466 52.4187L6.34518 58.5872C6.1102 58.978 6.1102 59.4667 6.34518 59.858L10.0466 66.0266C10.2694 66.3976 10.6709 66.6249 11.1038 66.6249H18.5061C18.9395 66.6249 19.3405 66.3976 19.5638 66.0266L23.2647 59.858C23.4997 59.4667 23.4997 58.978 23.2647 58.5872L19.5638 52.4187ZM17.8082 64.1573H11.8021L8.84121 59.2226L11.8021 54.2874H17.8082L20.7692 59.2226L17.8082 64.1573Z" fill="#3B3B47"/>
    <path d="M59.2195 29.6122C67.3678 29.6397 73.9962 23.056 74.0236 14.9076C74.0276 13.6672 73.8754 12.4319 73.5704 11.2296C73.4059 10.5682 72.7365 10.1658 72.0752 10.3302C71.8579 10.3845 71.66 10.4967 71.5017 10.6545L63.8217 18.3294L57.7283 16.2987L55.6962 10.2069L63.3761 2.52543C63.8578 2.04328 63.8573 1.2622 63.3751 0.780551C63.2163 0.621694 63.0163 0.509023 62.7975 0.455225C54.8953 -1.54596 46.8677 3.2375 44.8666 11.1392C44.5625 12.338 44.4108 13.5703 44.4149 14.8071C44.4179 15.7785 44.5179 16.7469 44.7148 17.698L17.6955 44.7168C16.7444 44.5204 15.776 44.4204 14.8051 44.4169C6.62832 44.4169 0 51.0452 0 59.222C0 67.3983 6.62832 74.0266 14.8051 74.0266C22.9814 74.0266 29.6097 67.3983 29.6097 59.222C29.6067 58.2506 29.5062 57.2822 29.3098 56.3311L35.7782 49.8626L38.6072 52.6916C39.0894 53.1732 39.8699 53.1732 40.3521 52.6916L40.9687 52.0744C41.5098 51.537 42.3842 51.537 42.9253 52.0744C43.4658 52.6134 43.4668 53.4884 42.9278 54.0289C42.9273 54.0294 42.9263 54.0305 42.9253 54.0315L42.3086 54.6481C41.827 55.1298 41.827 55.9109 42.3086 56.3925L57.0259 71.1098C60.8968 75.0163 67.2014 75.0447 71.1078 71.1738C75.0138 67.3028 75.0422 60.9978 71.1713 57.0919C71.1505 57.0706 71.1291 57.0492 71.1078 57.0279L56.3905 42.3111C55.9089 41.8295 55.1278 41.8295 54.6461 42.3111L54.0295 42.9278C53.4879 43.4657 52.614 43.4657 52.0724 42.9278C51.5324 42.3888 51.5309 41.5138 52.0699 40.9738C52.0709 40.9728 52.0719 40.9723 52.0724 40.9712L52.6896 40.3541C53.1712 39.8724 53.1712 39.0914 52.6896 38.6097L49.8606 35.7807L56.3291 29.3123C57.2802 29.5087 58.2486 29.6092 59.2195 29.6122ZM64.0669 71.5595C63.1706 71.558 62.2819 71.3961 61.443 71.0809L71.0784 61.445C72.5325 65.3128 70.5759 69.6268 66.7081 71.0809C65.864 71.3981 64.9693 71.5605 64.0669 71.5595ZM50.09 39.4943C48.7238 41.124 48.938 43.553 50.5676 44.9188C51.9999 46.1191 54.0873 46.1181 55.5181 44.9152L69.3634 58.7728C69.5137 58.9235 69.6543 59.0824 69.7903 59.2438L59.2418 69.7923C59.0799 69.6568 58.921 69.5162 58.7703 69.3654L44.9143 55.5084C46.2805 53.8787 46.0664 51.4497 44.4367 50.0839C43.0044 48.8831 40.9165 48.8846 39.4857 50.087L37.512 48.1132L48.1158 37.5251L50.09 39.4943ZM55.0719 27.0858L27.0843 55.0679C26.7772 55.3744 26.6539 55.8195 26.7584 56.2402C28.451 62.8873 24.4345 69.6481 17.7869 71.3402C11.1397 73.0328 4.37896 69.0163 2.68635 62.3687C0.994249 55.7215 5.01083 48.9608 11.6584 47.2682C13.6693 46.7566 15.776 46.7566 17.7869 47.2682C18.2076 47.3712 18.6517 47.2479 18.9592 46.9428L46.9403 18.9602C47.2469 18.6537 47.3702 18.2086 47.2646 17.7883C45.5837 11.2189 49.5465 4.53068 56.1159 2.84924C57.3573 2.53203 58.6414 2.41023 59.9204 2.48991L53.4123 9.00049C53.0819 9.33038 52.9662 9.81913 53.1139 10.2622L55.581 17.665C55.7043 18.033 55.9936 18.3223 56.3621 18.4446L63.7649 20.9122C64.2075 21.0599 64.6962 20.9447 65.0266 20.6148L71.5347 14.1067C71.5494 14.3422 71.557 14.5752 71.557 14.8071C71.5915 21.5862 66.1244 27.1096 59.3453 27.1446C58.2973 27.1497 57.2528 27.0208 56.2377 26.7609C55.817 26.6559 55.3719 26.7787 55.0653 27.0853H55.0719V27.0858Z" fill="#3B3B47"/>
    <path d="M63.7938 62.0499L62.0489 63.7948L49.7119 51.4578L51.4563 49.7129L63.7938 62.0499Z" fill="#3B3B47"/>
</svg>
