<?xml version="1.0" standalone="no"?>
<!DOCTYPE svg PUBLIC "-//W3C//DTD SVG 20010904//EN"
 "http://www.w3.org/TR/2001/REC-SVG-20010904/DTD/svg10.dtd">
<svg version="1.0" xmlns="http://www.w3.org/2000/svg"
 width="700.000000pt" height="700.000000pt" viewBox="0 0 700.000000 700.000000"
 preserveAspectRatio="xMidYMid meet">
<metadata>
Created by potrace 1.11, written by Peter Selinger 2001-2013
</metadata>
<g transform="translate(0.000000,700.000000) scale(0.100000,-0.100000)"
fill="#000000" stroke="none">
<path d="M4590 6989 c-68 -6 -114 -11 -235 -25 -65 -7 -213 -34 -314 -55 -51
-12 -102 -22 -112 -24 -77 -15 -342 -98 -469 -147 -452 -174 -881 -442 -1293
-808 -149 -132 -445 -427 -592 -591 -290 -324 -534 -642 -777 -1019 -102 -158
-253 -437 -352 -652 -87 -191 -205 -523 -232 -658 -3 -14 -12 -52 -21 -85 -18
-73 -17 -64 -42 -216 -29 -177 -36 -267 -36 -494 0 -207 8 -325 30 -435 45
-230 87 -363 168 -529 141 -292 361 -537 654 -728 62 -40 114 -73 116 -73 2 0
36 -18 76 -39 139 -77 411 -184 591 -232 124 -34 312 -78 355 -84 22 -3 60
-10 85 -15 25 -5 81 -14 125 -20 44 -6 90 -13 103 -15 13 -2 53 -7 90 -10 37
-4 77 -8 89 -10 161 -26 685 -26 833 0 14 2 59 9 100 14 357 50 867 195 1214
345 17 7 65 28 106 46 203 88 576 285 755 398 75 48 204 132 220 145 6 4 62
46 125 93 177 133 272 216 425 369 233 233 360 414 451 640 40 99 56 175 60
285 6 181 -33 289 -139 386 -102 91 -303 180 -502 220 -64 13 -186 35 -220 39
-22 3 -53 7 -70 10 -183 26 -776 26 -858 0 -7 -2 -34 -6 -62 -9 -131 -15 -170
-36 -360 -192 -65 -54 -240 -225 -276 -270 -75 -96 -124 -173 -158 -249 l-20
-46 52 6 c108 12 135 15 257 21 212 12 598 7 685 -10 11 -2 47 -7 80 -10 33
-4 67 -9 75 -11 8 -2 31 -7 50 -10 66 -11 235 -58 300 -83 233 -91 379 -233
425 -410 18 -70 21 -204 7 -243 -6 -14 -42 -47 -84 -76 -320 -220 -1092 -474
-1758 -578 -19 -3 -46 -7 -60 -10 -24 -4 -68 -10 -155 -21 -22 -2 -56 -6 -75
-9 -34 -5 -99 -10 -245 -20 -96 -7 -416 -7 -490 0 -33 3 -80 7 -105 9 -160 14
-383 51 -535 89 -129 32 -251 71 -429 137 -117 43 -470 227 -496 259 -3 3 -27
21 -55 40 -300 207 -557 532 -682 861 -26 67 -71 210 -77 245 -2 11 -9 47 -15
80 -6 33 -13 70 -16 83 -24 126 -25 524 0 673 2 13 6 47 10 74 7 60 26 171 40
235 4 14 8 36 11 50 12 59 57 219 95 334 200 624 642 1322 1039 1642 253 205
585 377 975 506 113 37 344 100 410 111 17 3 55 11 85 17 114 23 140 24 141 4
1 -11 2 -39 4 -64 2 -27 -2 -49 -9 -55 -286 -232 -709 -670 -969 -1004 -336
-432 -530 -798 -576 -1089 -12 -78 -7 -201 10 -217 51 -51 269 103 509 361
159 171 313 383 375 519 33 73 56 135 49 135 -3 0 -37 -13 -76 -30 -98 -42
-126 -39 -132 16 -4 41 10 87 56 178 152 304 585 811 775 909 59 31 60 30 57
-112 -2 -122 -9 -256 -19 -346 -2 -22 -7 -69 -10 -105 -4 -36 -9 -83 -11 -105
-6 -56 -34 -285 -39 -315 -2 -14 -6 -47 -10 -75 -3 -27 -8 -61 -10 -75 -2 -14
-9 -63 -15 -110 -6 -47 -13 -96 -15 -110 -7 -47 -15 -105 -20 -163 -4 -32 -8
-66 -10 -75 -1 -9 -6 -48 -10 -87 -4 -38 -8 -81 -10 -95 -2 -14 -7 -65 -10
-115 -3 -49 -8 -108 -11 -130 -7 -55 -6 -378 1 -440 22 -198 50 -305 107 -420
35 -69 89 -140 121 -157 101 -54 328 34 617 241 123 89 109 77 235 182 102 85
129 108 249 220 476 443 912 1002 1150 1476 146 291 219 554 219 788 0 68 -10
171 -17 184 -2 3 -7 26 -10 51 -15 114 -85 284 -170 414 -49 76 -179 219 -246
271 -154 121 -375 222 -588 270 -173 39 -430 53 -632 34z m5 -843 c118 -23
256 -71 358 -123 292 -151 453 -379 517 -733 28 -160 22 -399 -15 -539 -60
-231 -167 -449 -321 -657 -73 -100 -94 -124 -189 -219 -195 -194 -372 -280
-464 -224 -59 36 -133 246 -158 449 -10 80 -9 452 0 540 17 147 28 237 32 260
1 8 6 40 9 70 4 30 11 80 16 110 19 112 30 186 35 225 3 23 7 50 9 61 2 12 7
45 11 74 4 29 8 60 10 69 1 9 6 45 10 81 3 36 8 76 10 90 9 63 18 197 20 330
2 80 4 148 4 152 1 4 7 6 14 3 6 -2 48 -11 92 -19z"/>
</g>
</svg>
