<?xml version="1.0" ?><!DOCTYPE svg  PUBLIC '-//W3C//DTD SVG 1.1//EN'
        'http://www.w3.org/Graphics/SVG/1.1/DTD/svg11.dtd'>
<svg width="713" height="381" viewBox="0 0 713 381" fill="none" xmlns="http://www.w3.org/2000/svg">
    <path d="M0 0.153809L280 0.000232264L280.055 100L0.0548487 100.154L0 0.153809Z" fill="#3B3B47"/>
    <path d="M128.97 55.1516L125.465 45.1856L126.641 45.1849L129.698 54.1712L129.25 54.1715L132.367 45.1818L133.249 45.1953L136.32 54.1676L135.886 54.1678L138.961 45.1782L140.095 45.1775L136.614 55.1474L135.634 55.148L132.634 46.5536L132.942 46.5535L129.936 55.1511L128.97 55.1516ZM141.672 55.1447L141.669 48.1027L142.803 48.102L142.806 55.144L141.672 55.1447ZM141.555 45.1207L142.941 45.12L142.942 46.408L141.556 46.4087L141.555 45.1207ZM145.148 55.1428L145.143 45.1748L151.303 45.1714L151.303 46.1374L146.277 46.1401L146.279 49.5981L151.025 49.5955L151.026 50.5615L146.28 50.5641L146.282 55.1421L145.148 55.1428ZM152.897 55.1385L152.893 48.0965L154.027 48.0959L154.031 55.1379L152.897 55.1385ZM152.78 45.1146L154.166 45.1138L154.166 46.4018L152.78 46.4026L152.78 45.1146Z" fill="white"/>
    <rect y="140.307" width="280" height="100" transform="rotate(-0.031426 0 140.307)" fill="#3B3B47"/>
    <path d="M123.24 195.153L123.235 185.185L126.581 185.183C127.645 185.182 128.55 185.378 129.297 185.769C130.044 186.152 130.614 186.716 131.006 187.462C131.398 188.199 131.595 189.095 131.595 190.15C131.596 191.214 131.396 192.12 130.995 192.866C130.603 193.604 130.034 194.169 129.288 194.561C128.541 194.954 127.641 195.15 126.586 195.151L123.24 195.153ZM124.388 194.172L126.516 194.171C127.804 194.17 128.77 193.834 129.413 193.161C130.066 192.489 130.392 191.485 130.391 190.151C130.39 187.491 129.097 186.161 126.511 186.163L124.383 186.164L124.388 194.172ZM133.686 195.147L133.68 185.179L137.642 185.177C138.715 185.176 139.537 185.414 140.106 185.889C140.685 186.365 140.975 187.051 140.976 187.947C140.976 188.806 140.682 189.482 140.095 189.977C139.516 190.463 138.7 190.706 137.645 190.707L138.681 190.51C139.045 190.51 139.358 190.612 139.619 190.818C139.881 191.014 140.091 191.331 140.25 191.769L141.512 195.143L140.294 195.143L139.06 191.826C138.901 191.406 138.681 191.131 138.401 191C138.131 190.86 137.766 190.791 137.309 190.791L134.817 190.792L134.82 195.146L133.686 195.147ZM134.817 189.84L137.547 189.839C138.321 189.838 138.895 189.679 139.268 189.362C139.651 189.044 139.842 188.578 139.842 187.962C139.841 187.346 139.654 186.888 139.281 186.59C138.907 186.282 138.329 186.128 137.545 186.129L134.815 186.13L134.817 189.84ZM143.521 195.142L142.331 195.142L146.707 185.172L147.715 185.171L152.103 195.137L150.927 195.137L147.016 186.012L147.436 186.011L143.521 195.142ZM144.191 192.579L144.597 191.627L149.833 191.624L150.239 192.576L144.191 192.579ZM153.592 195.136L153.586 185.168L154.538 185.167L158.589 194.363L158.057 194.364L162.056 185.163L163.008 185.163L163.014 195.131L161.95 195.131L161.945 186.675L162.379 186.731L158.716 195.133L157.904 195.134L154.175 186.736L154.637 186.679L154.656 195.135L153.592 195.136Z" fill="white"/>
    <rect y="280.154" width="280" height="100" transform="rotate(-0.031426 0 280.154)" fill="#3B3B47"/>
    <path d="M124.24 335.153L124.235 325.185L130.395 325.182L130.395 326.148L125.369 326.151L125.371 329.609L130.117 329.606L130.118 330.572L125.372 330.575L125.374 335.153L124.24 335.153ZM131.989 335.149L131.983 324.845L133.117 324.844L133.123 335.148L131.989 335.149ZM138.027 335.244C137.402 335.244 136.851 335.1 136.375 334.81C135.908 334.512 135.544 334.092 135.282 333.551C135.03 333.001 134.903 332.357 134.903 331.619C134.902 330.882 135.033 330.238 135.294 329.687C135.555 329.136 135.919 328.707 136.385 328.398C136.861 328.09 137.407 327.936 138.023 327.936C138.667 327.935 139.213 328.094 139.661 328.411C140.109 328.728 140.413 329.18 140.572 329.768L140.404 329.88L140.403 328.102L141.523 328.102L141.527 335.144L140.407 335.144L140.406 333.324L140.574 333.408C140.416 333.996 140.112 334.449 139.665 334.767C139.217 335.084 138.671 335.243 138.027 335.244ZM138.25 334.305C138.941 334.305 139.473 334.071 139.846 333.605C140.219 333.128 140.405 332.456 140.405 331.588C140.404 330.72 140.213 330.053 139.83 329.587C139.456 329.12 138.929 328.887 138.247 328.887C137.557 328.888 137.016 329.131 136.624 329.616C136.241 330.093 136.05 330.76 136.051 331.619C136.051 332.477 136.243 333.14 136.626 333.606C137.018 334.073 137.56 334.306 138.25 334.305ZM146.099 335.239C144.914 335.24 143.976 334.937 143.285 334.331L143.662 333.49C144.036 333.78 144.419 333.994 144.811 334.134C145.212 334.264 145.656 334.329 146.141 334.329C146.673 334.329 147.074 334.24 147.345 334.062C147.625 333.876 147.765 333.61 147.764 333.264C147.764 332.984 147.671 332.765 147.484 332.606C147.297 332.438 146.989 332.303 146.56 332.201L145.37 331.922C144.782 331.791 144.324 331.558 143.997 331.222C143.68 330.886 143.521 330.485 143.521 330.019C143.52 329.608 143.632 329.248 143.856 328.94C144.08 328.623 144.392 328.375 144.794 328.198C145.195 328.02 145.671 327.931 146.221 327.931C146.716 327.931 147.183 328.01 147.622 328.168C148.06 328.327 148.429 328.555 148.728 328.854L148.35 329.68C148.014 329.4 147.669 329.195 147.314 329.064C146.969 328.925 146.605 328.855 146.222 328.855C145.718 328.855 145.326 328.954 145.046 329.15C144.776 329.346 144.64 329.612 144.641 329.948C144.641 330.237 144.725 330.466 144.893 330.634C145.07 330.802 145.35 330.932 145.733 331.025L146.923 331.319C147.586 331.458 148.071 331.691 148.38 332.018C148.697 332.335 148.856 332.741 148.856 333.236C148.857 333.842 148.61 334.328 148.115 334.692C147.621 335.056 146.949 335.239 146.099 335.239ZM150.665 335.139L150.659 324.835L151.793 324.834L151.796 329.524L151.614 329.664C151.809 329.095 152.136 328.665 152.593 328.376C153.05 328.077 153.577 327.927 154.175 327.927C155.864 327.926 156.709 328.854 156.71 330.711L156.713 335.135L155.579 335.136L155.576 330.768C155.576 330.115 155.445 329.639 155.183 329.34C154.922 329.032 154.511 328.879 153.951 328.879C153.298 328.879 152.775 329.08 152.384 329.482C151.992 329.883 151.796 330.425 151.796 331.106L151.799 335.138L150.665 335.139Z" fill="white"/>
    <rect x="384" y="0.333008" width="328" height="185.953" transform="rotate(-0.031426 384 0.333008)" fill="#3B3B47"/>
    <path d="M512.7 88.1524L511.51 88.153L515.887 78.1826L516.895 78.1821L521.282 88.1477L520.106 88.1483L516.195 79.0225L516.615 79.0222L512.7 88.1524ZM513.371 85.59L513.776 84.6378L519.012 84.6349L519.419 85.5867L513.371 85.59ZM522.633 91.1709L522.629 83.0789C522.629 82.7523 522.619 82.4256 522.6 82.099C522.591 81.763 522.562 81.4316 522.516 81.105L523.594 81.1044L523.72 82.5603L523.609 82.7704C523.767 82.1823 524.07 81.7295 524.518 81.4119C524.966 81.0943 525.507 80.9354 526.142 80.935C526.758 80.9347 527.299 81.0884 527.766 81.3961C528.242 81.7039 528.611 82.133 528.872 82.6835C529.143 83.234 529.279 83.878 529.28 84.6153C529.28 85.3526 529.145 85.9967 528.875 86.5475C528.614 87.089 528.25 87.5092 527.783 87.8081C527.317 88.0977 526.771 88.2427 526.146 88.243C525.511 88.2434 524.969 88.085 524.521 87.7679C524.073 87.4508 523.77 86.9983 523.611 86.4104L523.764 86.2703L523.767 91.1703L522.633 91.1709ZM525.935 87.3051C526.616 87.3048 527.148 87.0711 527.531 86.6043C527.913 86.1374 528.104 85.4746 528.104 84.6159C528.103 83.7573 527.911 83.09 527.528 82.6143C527.146 82.1291 526.613 81.8868 525.932 81.8871C525.232 81.8875 524.696 82.1211 524.322 82.588C523.949 83.0549 523.763 83.7223 523.764 84.5903C523.764 85.4583 523.951 86.1302 524.325 86.606C524.698 87.0725 525.235 87.3055 525.935 87.3051ZM531.028 91.1663L531.023 83.0743C531.023 82.7477 531.014 82.421 530.995 82.0944C530.985 81.7584 530.957 81.427 530.91 81.1004L531.988 81.0998L532.115 82.5557L532.003 82.7658C532.161 82.1777 532.464 81.7249 532.912 81.4073C533.36 81.0897 533.901 80.9308 534.536 80.9304C535.152 80.9301 535.693 81.0838 536.16 81.3915C536.636 81.6993 537.005 82.1284 537.267 82.6789C537.538 83.2294 537.674 83.8734 537.674 84.6107C537.674 85.348 537.539 85.9921 537.269 86.5429C537.008 87.0844 536.644 87.5046 536.178 87.8035C535.711 88.0931 535.165 88.2381 534.54 88.2384C533.905 88.2388 533.364 88.0804 532.916 87.7633C532.468 87.4462 532.164 86.9937 532.005 86.4058L532.159 86.2657L532.162 91.1657L531.028 91.1663ZM534.33 87.3005C535.011 87.3002 535.543 87.0665 535.925 86.5997C536.308 86.1328 536.499 85.47 536.498 84.6113C536.498 83.7527 536.306 83.0854 535.923 82.6097C535.54 82.1245 535.008 81.8822 534.327 81.8825C533.627 81.8829 533.09 82.1165 532.717 82.5834C532.344 83.0503 532.158 83.7177 532.158 84.5857C532.159 85.4537 532.346 86.1256 532.719 86.6014C533.093 87.0679 533.63 87.3009 534.33 87.3005ZM539.421 88.1377L539.415 77.8337L540.549 77.8331L540.555 88.1371L539.421 88.1377ZM542.756 88.1359L542.753 81.0939L543.887 81.0933L543.89 88.1353L542.756 88.1359ZM542.639 78.112L544.025 78.1112L544.026 79.3992L542.64 79.4L542.639 78.112ZM549.046 88.2305C548.356 88.2308 547.758 88.0818 547.254 87.7834C546.75 87.485 546.358 87.0653 546.078 86.5241C545.807 85.9829 545.671 85.3436 545.67 84.6063C545.67 83.8783 545.81 83.2389 546.089 82.6881C546.369 82.1279 546.766 81.6937 547.279 81.3854C547.792 81.0771 548.398 80.9228 549.098 80.9224C549.574 80.9222 550.032 81.0059 550.471 81.1737C550.919 81.3321 551.287 81.5559 551.577 81.8451L551.199 82.6853C550.854 82.4148 550.513 82.2143 550.177 82.0838C549.85 81.944 549.51 81.8742 549.155 81.8744C548.446 81.8748 547.881 82.1131 547.461 82.5893C547.051 83.0655 546.846 83.7377 546.846 84.6057C546.847 85.4643 547.053 86.1269 547.464 86.5933C547.874 87.0598 548.439 87.2928 549.158 87.2924C549.503 87.2922 549.844 87.2267 550.18 87.0958C550.516 86.9556 550.856 86.7501 551.202 86.4793L551.58 87.3191C551.281 87.5992 550.904 87.8234 550.446 87.9917C549.998 88.1506 549.532 88.2302 549.046 88.2305ZM555.726 88.2268C555.101 88.2271 554.55 88.0828 554.074 87.7937C553.607 87.4953 553.243 87.0755 552.981 86.5343C552.729 85.9838 552.603 85.3398 552.602 84.6025C552.602 83.8652 552.732 83.2211 552.993 82.6703C553.254 82.1195 553.618 81.6899 554.084 81.3817C554.56 81.0734 555.106 80.9191 555.722 80.9188C556.366 80.9184 556.912 81.0768 557.36 81.3939C557.809 81.711 558.112 82.1635 558.271 82.7514L558.103 82.8635L558.102 81.0855L559.222 81.0849L559.226 88.1269L558.106 88.1275L558.105 86.3075L558.273 86.3914C558.115 86.9795 557.812 87.4323 557.364 87.7499C556.916 88.0675 556.37 88.2264 555.726 88.2268ZM555.95 87.2887C556.64 87.2883 557.172 87.0547 557.545 86.5878C557.918 86.1116 558.105 85.4395 558.104 84.5715C558.104 83.7035 557.912 83.0363 557.529 82.5698C557.155 82.1033 556.628 81.8703 555.947 81.8707C555.256 81.871 554.715 82.114 554.323 82.5996C553.941 83.0758 553.75 83.7432 553.75 84.6019C553.751 85.4605 553.942 86.1231 554.325 86.5896C554.717 87.056 555.259 87.289 555.95 87.2887ZM560.421 81.9802L560.421 81.0842L564.943 81.0817L564.943 81.9777L560.421 81.9802ZM564.918 87.1157L564.919 88.0817C564.76 88.1285 564.601 88.1613 564.443 88.18C564.293 88.2081 564.125 88.2222 563.939 88.2223C563.285 88.2226 562.763 88.0363 562.37 87.6631C561.987 87.29 561.796 86.7301 561.795 85.9835L561.792 79.2775L562.926 78.8708L562.929 85.8288C562.93 86.2022 562.981 86.4915 563.084 86.6968C563.196 86.902 563.345 87.0466 563.532 87.1305C563.719 87.2051 563.929 87.2423 564.162 87.2422C564.302 87.2421 564.428 87.2327 564.54 87.214C564.652 87.1952 564.778 87.1625 564.918 87.1157ZM566.313 88.123L566.309 81.081L567.443 81.0804L567.447 88.1224L566.313 88.123ZM566.196 78.099L567.582 78.0983L567.582 79.3863L566.196 79.387L566.196 78.099ZM572.561 88.2176C571.889 88.2179 571.301 88.0689 570.797 87.7705C570.302 87.4721 569.914 87.0523 569.634 86.5112C569.363 85.9606 569.228 85.3121 569.227 84.5654C569.227 83.8281 569.362 83.184 569.632 82.6332C569.912 82.0823 570.299 81.6575 570.793 81.3585C571.297 81.0596 571.885 80.9099 572.557 80.9096C573.229 80.9092 573.813 81.0582 574.307 81.3566C574.811 81.655 575.199 82.0794 575.47 82.63C575.75 83.1805 575.891 83.8244 575.891 84.5617C575.892 85.3084 575.752 85.9571 575.472 86.508C575.202 87.0494 574.815 87.4697 574.311 87.7686C573.816 88.0675 573.233 88.2172 572.561 88.2176ZM572.561 87.2796C573.251 87.2792 573.783 87.0502 574.156 86.5927C574.539 86.1258 574.73 85.449 574.729 84.5624C574.729 83.6944 574.537 83.0271 574.154 82.5607C573.771 82.0942 573.239 81.8612 572.558 81.8616C571.876 81.8619 571.34 82.0956 570.948 82.5624C570.566 83.0293 570.375 83.6968 570.375 84.5648C570.376 85.4514 570.563 86.128 570.936 86.5944C571.319 87.0516 571.861 87.2799 572.561 87.2796ZM577.661 88.1168L577.658 83.0488C577.658 82.7221 577.648 82.3954 577.629 82.0688C577.62 81.7328 577.592 81.4015 577.545 81.0748L578.623 81.0742L578.75 82.5302L578.61 82.6422C578.805 82.0728 579.132 81.6433 579.589 81.3537C580.046 81.0548 580.573 80.9052 581.171 80.9048C582.86 80.9039 583.705 81.8321 583.706 83.6894L583.709 88.1134L582.575 88.1141L582.572 83.7461C582.572 83.0927 582.441 82.6168 582.18 82.3183C581.918 82.0104 581.507 81.8566 580.947 81.857C580.294 81.8573 579.771 82.0583 579.38 82.4598C578.988 82.8614 578.792 83.4028 578.793 84.0841L578.795 88.1161L577.661 88.1168ZM517.526 108.15L517.52 98.1817L521.496 98.1796C522.523 98.179 523.321 98.4259 523.891 98.9203C524.469 99.4146 524.759 100.096 524.76 100.964C524.76 101.822 524.471 102.504 523.893 103.008C523.314 103.513 522.517 103.765 521.499 103.766L518.671 103.767L518.674 108.149L517.526 108.15ZM518.671 102.815L521.401 102.814C522.138 102.813 522.693 102.654 523.066 102.337C523.44 102.01 523.626 101.552 523.626 100.964C523.625 100.376 523.438 99.9238 523.065 99.6067C522.691 99.2896 522.136 99.1312 521.399 99.1316L518.669 99.1331L518.671 102.815ZM526.368 108.145L526.365 103.077C526.365 102.75 526.356 102.424 526.337 102.097C526.327 101.761 526.299 101.43 526.252 101.103L527.33 101.102L527.485 102.838L527.331 102.796C527.461 102.18 527.741 101.718 528.17 101.41C528.609 101.092 529.099 100.933 529.64 100.933C529.761 100.933 529.873 100.942 529.976 100.961C530.088 100.97 530.191 100.989 530.284 101.017L530.257 102.053C530.042 101.978 529.795 101.941 529.515 101.941C529.029 101.941 528.637 102.049 528.339 102.264C528.05 102.479 527.835 102.754 527.695 103.09C527.565 103.417 527.5 103.762 527.5 104.126L527.502 108.144L526.368 108.145ZM534.216 108.239C533.544 108.239 532.956 108.09 532.451 107.792C531.957 107.493 531.569 107.073 531.289 106.532C531.018 105.982 530.882 105.333 530.882 104.586C530.881 103.849 531.016 103.205 531.287 102.654C531.566 102.103 531.953 101.678 532.448 101.38C532.952 101.081 533.54 100.931 534.212 100.931C534.884 100.93 535.467 101.079 535.962 101.378C536.466 101.676 536.854 102.1 537.125 102.651C537.405 103.202 537.545 103.845 537.546 104.583C537.546 105.329 537.406 105.978 537.127 106.529C536.856 107.07 536.469 107.491 535.965 107.79C535.471 108.089 534.888 108.238 534.216 108.239ZM534.215 107.301C534.906 107.3 535.438 107.071 535.811 106.614C536.193 106.147 536.384 105.47 536.384 104.583C536.383 103.715 536.191 103.048 535.809 102.582C535.426 102.115 534.893 101.882 534.212 101.883C533.531 101.883 532.994 102.117 532.603 102.583C532.22 103.05 532.029 103.718 532.03 104.586C532.03 105.472 532.217 106.149 532.591 106.615C532.974 107.073 533.515 107.301 534.215 107.301ZM542.269 108.234C541.579 108.235 540.981 108.086 540.477 107.787C539.973 107.489 539.581 107.069 539.3 106.528C539.029 105.987 538.894 105.347 538.893 104.61C538.893 103.882 539.033 103.243 539.312 102.692C539.592 102.132 539.988 101.697 540.502 101.389C541.015 101.081 541.621 100.927 542.321 100.926C542.797 100.926 543.255 101.01 543.693 101.177C544.142 101.336 544.51 101.56 544.8 101.849L544.422 102.689C544.077 102.419 543.736 102.218 543.4 102.088C543.073 101.948 542.733 101.878 542.378 101.878C541.669 101.879 541.104 102.117 540.684 102.593C540.274 103.069 540.069 103.741 540.069 104.609C540.07 105.468 540.276 106.131 540.686 106.597C541.097 107.063 541.662 107.297 542.381 107.296C542.726 107.296 543.067 107.23 543.403 107.1C543.739 106.959 544.079 106.754 544.424 106.483L544.803 107.323C544.504 107.603 544.126 107.827 543.669 107.995C543.221 108.154 542.755 108.234 542.269 108.234ZM552.014 107.291C551.707 107.58 551.31 107.809 550.825 107.977C550.349 108.146 549.859 108.23 549.355 108.23C548.627 108.231 547.997 108.086 547.465 107.797C546.942 107.508 546.536 107.093 546.246 106.552C545.966 106.001 545.825 105.348 545.825 104.592C545.825 103.864 545.964 103.225 546.244 102.674C546.524 102.123 546.911 101.694 547.405 101.385C547.909 101.077 548.488 100.923 549.141 100.922C549.766 100.922 550.303 101.062 550.751 101.342C551.199 101.612 551.54 102.004 551.774 102.517C552.017 103.03 552.138 103.646 552.139 104.365L552.139 104.575L546.819 104.578L546.819 103.836L551.495 103.833L551.131 104.351C551.149 103.53 550.985 102.9 550.64 102.462C550.304 102.023 549.809 101.804 549.155 101.804C548.474 101.805 547.938 102.048 547.546 102.533C547.163 103.009 546.972 103.672 546.973 104.522C546.973 105.436 547.174 106.127 547.576 106.593C547.987 107.06 548.584 107.293 549.368 107.292C549.779 107.292 550.171 107.227 550.544 107.096C550.927 106.955 551.291 106.745 551.636 106.465L552.014 107.291ZM556.242 108.227C555.057 108.227 554.119 107.924 553.428 107.318L553.805 106.478C554.179 106.767 554.562 106.981 554.954 107.121C555.355 107.252 555.798 107.317 556.284 107.316C556.816 107.316 557.217 107.227 557.488 107.05C557.767 106.863 557.907 106.597 557.907 106.252C557.907 105.972 557.814 105.752 557.627 105.594C557.44 105.426 557.132 105.291 556.703 105.188L555.512 104.909C554.924 104.779 554.467 104.545 554.14 104.21C553.822 103.874 553.664 103.473 553.663 103.006C553.663 102.595 553.775 102.236 553.999 101.928C554.223 101.61 554.535 101.363 554.936 101.185C555.338 101.008 555.814 100.919 556.364 100.918C556.859 100.918 557.326 100.997 557.764 101.156C558.203 101.314 558.572 101.543 558.871 101.841L558.493 102.667C558.157 102.387 557.812 102.182 557.457 102.052C557.111 101.912 556.747 101.842 556.365 101.842C555.861 101.843 555.469 101.941 555.189 102.137C554.918 102.333 554.783 102.599 554.783 102.935C554.783 103.225 554.868 103.453 555.036 103.621C555.213 103.789 555.493 103.92 555.876 104.013L557.066 104.306C557.729 104.446 558.214 104.679 558.522 105.005C558.84 105.322 558.999 105.728 558.999 106.223C558.999 106.83 558.752 107.315 558.258 107.679C557.763 108.044 557.092 108.226 556.242 108.227ZM563.188 108.223C562.002 108.223 561.064 107.921 560.373 107.314L560.751 106.474C561.124 106.763 561.507 106.978 561.899 107.117C562.3 107.248 562.744 107.313 563.229 107.313C563.761 107.312 564.162 107.223 564.433 107.046C564.713 106.859 564.853 106.593 564.852 106.248C564.852 105.968 564.759 105.749 564.572 105.59C564.385 105.422 564.077 105.287 563.648 105.184L562.458 104.905C561.87 104.775 561.412 104.542 561.085 104.206C560.768 103.87 560.609 103.469 560.609 103.002C560.608 102.591 560.72 102.232 560.944 101.924C561.168 101.606 561.48 101.359 561.882 101.181C562.283 101.004 562.759 100.915 563.31 100.915C563.804 100.914 564.271 100.993 564.71 101.152C565.148 101.31 565.517 101.539 565.816 101.837L565.438 102.663C565.102 102.384 564.757 102.179 564.402 102.048C564.057 101.908 563.693 101.838 563.31 101.839C562.806 101.839 562.414 101.937 562.134 102.133C561.864 102.329 561.728 102.595 561.729 102.931C561.729 103.221 561.813 103.449 561.981 103.617C562.158 103.785 562.439 103.916 562.821 104.009L564.011 104.302C564.674 104.442 565.16 104.675 565.468 105.001C565.785 105.319 565.944 105.725 565.944 106.219C565.945 106.826 565.698 107.311 565.203 107.676C564.709 108.04 564.037 108.222 563.188 108.223ZM570.665 108.219C569.993 108.219 569.405 108.07 568.901 107.772C568.406 107.473 568.018 107.053 567.738 106.512C567.467 105.962 567.331 105.313 567.331 104.566C567.33 103.829 567.465 103.185 567.736 102.634C568.015 102.083 568.403 101.659 568.897 101.36C569.401 101.061 569.989 100.911 570.661 100.911C571.333 100.91 571.916 101.059 572.411 101.358C572.915 101.656 573.303 102.08 573.574 102.631C573.854 103.182 573.994 103.825 573.995 104.563C573.995 105.309 573.856 105.958 573.576 106.509C573.306 107.05 572.918 107.471 572.415 107.77C571.92 108.069 571.337 108.218 570.665 108.219ZM570.664 107.281C571.355 107.28 571.887 107.051 572.26 106.594C572.642 106.127 572.833 105.45 572.833 104.563C572.832 103.695 572.641 103.028 572.258 102.562C571.875 102.095 571.343 101.862 570.661 101.863C569.98 101.863 569.443 102.097 569.052 102.563C568.669 103.03 568.478 103.698 568.479 104.566C568.479 105.452 568.666 106.129 569.04 106.595C569.423 107.053 569.964 107.281 570.664 107.281ZM575.765 108.118L575.762 103.05C575.762 102.723 575.752 102.396 575.733 102.07C575.724 101.734 575.695 101.403 575.649 101.076L576.727 101.075L576.882 102.811L576.728 102.769C576.858 102.153 577.138 101.691 577.567 101.383C578.005 101.065 578.495 100.906 579.037 100.906C579.158 100.906 579.27 100.915 579.373 100.934C579.485 100.943 579.587 100.962 579.681 100.99L579.653 102.026C579.438 101.951 579.191 101.914 578.911 101.914C578.426 101.914 578.034 102.022 577.735 102.237C577.446 102.452 577.232 102.727 577.092 103.063C576.961 103.39 576.896 103.735 576.896 104.099L576.899 108.117L575.765 108.118Z" fill="white"/>
    <rect x="384" y="258.153" width="328" height="121.358" transform="rotate(-0.031426 384 258.153)" fill="#3B3B47"/>
    <path d="M502.24 324.153L502.235 314.185L505.581 314.183C506.645 314.182 507.55 314.378 508.297 314.769C509.044 315.152 509.614 315.716 510.006 316.462C510.398 317.199 510.595 318.095 510.595 319.15C510.596 320.214 510.396 321.12 509.995 321.866C509.603 322.604 509.034 323.169 508.288 323.561C507.541 323.954 506.641 324.15 505.586 324.151L502.24 324.153ZM503.388 323.172L505.516 323.171C506.804 323.17 507.77 322.834 508.413 322.161C509.066 321.489 509.392 320.485 509.391 319.151C509.39 316.491 508.097 315.161 505.511 315.163L503.383 315.164L503.388 323.172ZM518.313 323.304C518.005 323.593 517.609 323.822 517.123 323.99C516.648 324.159 516.158 324.243 515.654 324.243C514.926 324.244 514.296 324.099 513.763 323.81C513.241 323.521 512.834 323.106 512.545 322.565C512.264 322.014 512.124 321.361 512.124 320.605C512.123 319.877 512.263 319.238 512.543 318.687C512.822 318.136 513.209 317.707 513.704 317.398C514.208 317.09 514.786 316.936 515.44 316.935C516.065 316.935 516.602 317.075 517.05 317.355C517.498 317.625 517.839 318.017 518.072 318.53C518.315 319.043 518.437 319.659 518.437 320.378L518.438 320.588L513.118 320.591L513.117 319.849L517.793 319.846L517.429 320.364C517.448 319.543 517.284 318.913 516.938 318.475C516.602 318.036 516.107 317.817 515.454 317.817C514.773 317.818 514.236 318.061 513.844 318.546C513.462 319.022 513.271 319.685 513.272 320.535C513.272 321.449 513.473 322.14 513.875 322.606C514.286 323.073 514.883 323.306 515.667 323.305C516.078 323.305 516.47 323.24 516.843 323.109C517.226 322.968 517.589 322.758 517.935 322.478L518.313 323.304ZM523.256 327.263C522.192 327.264 521.268 327.022 520.484 326.537L520.68 325.613C521.118 325.864 521.534 326.046 521.926 326.158C522.318 326.27 522.761 326.325 523.256 326.325C523.928 326.325 524.437 326.142 524.782 325.778C525.136 325.423 525.313 324.891 525.313 324.182L525.312 322.278L525.466 322.096C525.354 322.469 525.177 322.796 524.934 323.076C524.701 323.347 524.412 323.557 524.067 323.707C523.721 323.856 523.329 323.931 522.891 323.931C522.265 323.932 521.715 323.787 521.238 323.498C520.772 323.2 520.403 322.789 520.132 322.267C519.87 321.744 519.739 321.133 519.739 320.433C519.738 319.733 519.869 319.122 520.13 318.599C520.4 318.076 520.769 317.67 521.235 317.38C521.711 317.081 522.261 316.932 522.887 316.931C523.54 316.931 524.091 317.094 524.539 317.42C524.997 317.737 525.305 318.185 525.464 318.764L525.296 318.61L525.295 317.098L526.429 317.097L526.433 324.083C526.433 325.138 526.163 325.932 525.622 326.464C525.09 326.996 524.302 327.263 523.256 327.263ZM523.114 322.979C523.795 322.979 524.327 322.755 524.71 322.306C525.102 321.849 525.297 321.223 525.297 320.43C525.296 319.637 525.1 319.016 524.708 318.568C524.325 318.111 523.793 317.883 523.111 317.883C522.421 317.884 521.875 318.113 521.474 318.57C521.082 319.018 520.886 319.639 520.887 320.432C520.887 321.235 521.084 321.86 521.476 322.308C521.877 322.756 522.423 322.98 523.114 322.979ZM528.61 324.138L528.606 317.096L529.74 317.096L529.744 324.138L528.61 324.138ZM528.492 314.114L529.878 314.113L529.879 315.401L528.493 315.402L528.492 314.114ZM531.946 324.136L531.943 319.068C531.943 318.742 531.933 318.415 531.915 318.088C531.905 317.752 531.877 317.421 531.83 317.094L532.908 317.094L533.063 318.83L532.909 318.788C533.039 318.172 533.319 317.71 533.748 317.401C534.187 317.084 534.677 316.925 535.218 316.925C535.339 316.924 535.451 316.934 535.554 316.952C535.666 316.962 535.769 316.98 535.862 317.008L535.835 318.044C535.62 317.97 535.373 317.932 535.093 317.933C534.607 317.933 534.215 318.04 533.917 318.255C533.627 318.47 533.413 318.746 533.273 319.082C533.143 319.408 533.078 319.754 533.078 320.118L533.08 324.136L531.946 324.136ZM537.018 324.134L537.014 317.092L538.148 317.091L538.152 324.133L537.018 324.134ZM536.901 314.11L538.287 314.109L538.287 315.397L536.901 315.398L536.901 314.11ZM542.846 324.228C542.006 324.229 541.371 323.996 540.942 323.529C540.522 323.063 540.311 322.372 540.311 321.458L540.308 317.09L541.442 317.089L541.445 321.429C541.445 322.064 541.576 322.53 541.837 322.829C542.099 323.127 542.496 323.277 543.028 323.276C543.653 323.276 544.157 323.075 544.539 322.673C544.922 322.272 545.113 321.735 545.112 321.063L545.11 317.087L546.244 317.087L546.248 324.129L545.142 324.129L545.141 322.603L545.309 322.519C545.123 323.079 544.806 323.504 544.358 323.794C543.919 324.083 543.416 324.228 542.846 324.228ZM548.434 324.127L548.431 319.059C548.431 318.733 548.422 318.406 548.403 318.079C548.393 317.743 548.365 317.412 548.318 317.085L549.396 317.085L549.523 318.541L549.383 318.639C549.551 318.088 549.84 317.663 550.25 317.364C550.67 317.065 551.165 316.916 551.734 316.915C552.416 316.915 552.943 317.083 553.317 317.419C553.699 317.754 553.942 318.268 554.045 318.958L553.709 318.776C553.858 318.207 554.157 317.754 554.605 317.418C555.062 317.082 555.608 316.913 556.242 316.913C557.017 316.913 557.6 317.146 557.993 317.612C558.385 318.069 558.581 318.764 558.582 319.698L558.584 324.122L557.45 324.122L557.448 319.754C557.447 319.101 557.331 318.625 557.097 318.327C556.864 318.019 556.495 317.865 555.991 317.865C555.403 317.865 554.936 318.066 554.591 318.468C554.255 318.869 554.088 319.416 554.088 320.106L554.09 324.124L552.956 324.125L552.954 319.757C552.953 319.103 552.832 318.628 552.589 318.329C552.356 318.021 551.987 317.867 551.483 317.868C550.885 317.868 550.414 318.069 550.069 318.47C549.733 318.872 549.566 319.418 549.566 320.109L549.568 324.127L548.434 324.127ZM568.701 324.228C567.768 324.229 566.961 324.024 566.279 323.614C565.607 323.203 565.084 322.616 564.71 321.85C564.346 321.085 564.163 320.18 564.163 319.135C564.162 318.08 564.343 317.175 564.707 316.418C565.071 315.653 565.588 315.065 566.26 314.654C566.941 314.242 567.753 314.037 568.696 314.036C569.629 314.036 570.437 314.241 571.118 314.651C571.8 315.061 572.323 315.649 572.687 316.414C573.051 317.17 573.234 318.07 573.235 319.116C573.235 320.17 573.049 321.08 572.676 321.846C572.312 322.612 571.79 323.2 571.109 323.611C570.437 324.022 569.635 324.228 568.701 324.228ZM568.701 323.248C569.755 323.248 570.577 322.892 571.164 322.183C571.752 321.464 572.045 320.442 572.045 319.116C572.044 317.791 571.749 316.779 571.161 316.079C570.572 315.37 569.751 315.016 568.696 315.016C567.642 315.017 566.816 315.372 566.219 316.082C565.631 316.791 565.338 317.804 565.339 319.12C565.339 320.436 565.634 321.453 566.222 322.172C566.82 322.89 567.646 323.249 568.701 323.248ZM575.204 324.113L575.201 319.045C575.201 318.718 575.191 318.391 575.172 318.065C575.163 317.729 575.135 317.397 575.088 317.071L576.166 317.07L576.321 318.806L576.167 318.764C576.297 318.148 576.577 317.686 577.006 317.378C577.445 317.06 577.934 316.901 578.476 316.901C578.597 316.901 578.709 316.91 578.812 316.929C578.924 316.938 579.026 316.957 579.12 316.984L579.092 318.02C578.878 317.946 578.63 317.909 578.35 317.909C577.865 317.909 577.473 318.017 577.175 318.232C576.885 318.446 576.671 318.722 576.531 319.058C576.4 319.385 576.335 319.73 576.336 320.094L576.338 324.112L575.204 324.113ZM583.093 324.206C582.403 324.207 581.805 324.058 581.301 323.759C580.797 323.461 580.405 323.041 580.124 322.5C579.853 321.959 579.718 321.319 579.717 320.582C579.717 319.854 579.857 319.215 580.136 318.664C580.416 318.104 580.812 317.67 581.326 317.361C581.839 317.053 582.445 316.899 583.145 316.898C583.621 316.898 584.079 316.982 584.517 317.15C584.966 317.308 585.334 317.532 585.624 317.821L585.246 318.661C584.901 318.391 584.56 318.19 584.224 318.06C583.897 317.92 583.557 317.85 583.202 317.85C582.493 317.851 581.928 318.089 581.508 318.565C581.098 319.041 580.893 319.714 580.893 320.582C580.894 321.44 581.1 322.103 581.51 322.569C581.921 323.036 582.486 323.269 583.205 323.268C583.55 323.268 583.891 323.203 584.227 323.072C584.563 322.931 584.903 322.726 585.248 322.455L585.627 323.295C585.328 323.575 584.95 323.799 584.493 323.968C584.045 324.126 583.579 324.206 583.093 324.206ZM589.773 324.203C589.148 324.203 588.597 324.059 588.121 323.77C587.654 323.471 587.29 323.051 587.028 322.51C586.776 321.96 586.649 321.316 586.649 320.578C586.649 319.841 586.779 319.197 587.04 318.646C587.301 318.095 587.665 317.666 588.131 317.358C588.607 317.049 589.153 316.895 589.769 316.895C590.413 316.894 590.959 317.053 591.407 317.37C591.855 317.687 592.159 318.139 592.318 318.727L592.15 318.839L592.149 317.061L593.269 317.061L593.273 324.103L592.153 324.103L592.152 322.283L592.32 322.367C592.162 322.955 591.859 323.408 591.411 323.726C590.963 324.043 590.417 324.202 589.773 324.203ZM589.996 323.265C590.687 323.264 591.219 323.031 591.592 322.564C591.965 322.087 592.151 321.415 592.151 320.547C592.15 319.679 591.959 319.012 591.576 318.546C591.202 318.079 590.675 317.846 589.993 317.847C589.303 317.847 588.762 318.09 588.37 318.575C587.987 319.052 587.797 319.719 587.797 320.578C587.797 321.436 587.989 322.099 588.372 322.565C588.764 323.032 589.306 323.265 589.996 323.265Z" fill="white"/>
    <rect x="182" y="96.1533" width="6" height="4" transform="rotate(-90 182 96.1533)" fill="#C79C68"/>
    <rect x="269" y="228.307" width="6" height="4" fill="#C79C68"/>
    <rect x="269" y="368.461" width="6" height="4" fill="#C79C68"/>
    <rect x="174" y="96.1533" width="6" height="4" transform="rotate(-90 174 96.1533)" fill="#C79C68"/>
    <rect x="269" y="220.307" width="6" height="4" fill="#C79C68"/>
    <rect x="269" y="360.461" width="6" height="4" fill="#C79C68"/>
    <rect x="166" y="96.1533" width="6" height="4" transform="rotate(-90 166 96.1533)" fill="#C79C68"/>
    <rect x="269" y="212.307" width="6" height="4" fill="#C79C68"/>
    <rect x="269" y="352.461" width="6" height="4" fill="#C79C68"/>
    <rect x="269" y="64.1533" width="6" height="4" fill="#C79C68"/>
    <rect x="269" y="156.307" width="6" height="4" fill="#C79C68"/>
    <rect x="269" y="344.461" width="6" height="4" fill="#C79C68"/>
    <rect x="269" y="56.1533" width="6" height="4" fill="#C79C68"/>
    <rect x="269" y="148.307" width="6" height="4" fill="#C79C68"/>
    <rect x="269" y="336.461" width="6" height="4" fill="#C79C68"/>
    <rect x="269" y="48.1533" width="6" height="4" fill="#C79C68"/>
    <rect x="126" y="229.307" width="6" height="4" transform="rotate(90 126 229.307)" fill="#C79C68"/>
    <rect x="269" y="328.461" width="6" height="4" fill="#C79C68"/>
    <rect x="269" y="40.1533" width="6" height="4" fill="#C79C68"/>
    <rect x="134" y="229.307" width="6" height="4" transform="rotate(90 134 229.307)" fill="#C79C68"/>
    <rect x="269" y="320.461" width="6" height="4" fill="#C79C68"/>
    <rect x="269" y="32.1533" width="6" height="4" fill="#C79C68"/>
    <rect x="142" y="229.307" width="6" height="4" transform="rotate(90 142 229.307)" fill="#C79C68"/>
    <rect x="269" y="312.461" width="6" height="4" fill="#C79C68"/>
    <rect x="118" y="96.1533" width="6" height="4" transform="rotate(-90 118 96.1533)" fill="#C79C68"/>
    <rect x="118" y="149.153" width="6" height="4" transform="rotate(-90 118 149.153)" fill="#C79C68"/>
    <rect x="182" y="149.153" width="6" height="4" transform="rotate(-90 182 149.153)" fill="#C79C68"/>
    <rect x="150" y="229.307" width="6" height="4" transform="rotate(90 150 229.307)" fill="#C79C68"/>
    <rect x="269" y="304.461" width="6" height="4" fill="#C79C68"/>
    <rect x="110" y="96.1533" width="6" height="4" transform="rotate(-90 110 96.1533)" fill="#C79C68"/>
    <rect x="110" y="149.153" width="6" height="4" transform="rotate(-90 110 149.153)" fill="#C79C68"/>
    <rect x="174" y="149.153" width="6" height="4" transform="rotate(-90 174 149.153)" fill="#C79C68"/>
    <rect x="158" y="229.307" width="6" height="4" transform="rotate(90 158 229.307)" fill="#C79C68"/>
    <rect x="158" y="285.461" width="6" height="4" transform="rotate(90 158 285.461)" fill="#C79C68"/>
    <rect x="269" y="296.461" width="6" height="4" fill="#C79C68"/>
    <rect x="102" y="96.1533" width="6" height="4" transform="rotate(-90 102 96.1533)" fill="#C79C68"/>
    <rect x="102" y="149.153" width="6" height="4" transform="rotate(-90 102 149.153)" fill="#C79C68"/>
    <rect x="166" y="149.153" width="6" height="4" transform="rotate(-90 166 149.153)" fill="#C79C68"/>
    <rect x="158" y="149.153" width="6" height="4" transform="rotate(-90 158 149.153)" fill="#C79C68"/>
    <rect x="166" y="229.307" width="6" height="4" transform="rotate(90 166 229.307)" fill="#C79C68"/>
    <rect x="166" y="285.461" width="6" height="4" transform="rotate(90 166 285.461)" fill="#C79C68"/>
    <rect x="269" y="288.461" width="6" height="4" fill="#C79C68"/>
    <rect x="512" y="182.153" width="6" height="4" transform="rotate(-90 512 182.153)" fill="#C79C68"/>
    <rect x="512" y="268.153" width="6" height="4" transform="rotate(-90 512 268.153)" fill="#C79C68"/>
    <rect x="592" y="182.153" width="6" height="4" transform="rotate(-90 592 182.153)" fill="#C79C68"/>
    <rect x="592" y="268.153" width="6" height="4" transform="rotate(-90 592 268.153)" fill="#C79C68"/>
    <rect x="395" y="12.1533" width="6" height="4" transform="rotate(180 395 12.1533)" fill="#C79C68"/>
    <rect x="504" y="182.153" width="6" height="4" transform="rotate(-90 504 182.153)" fill="#C79C68"/>
    <rect x="504" y="268.153" width="6" height="4" transform="rotate(-90 504 268.153)" fill="#C79C68"/>
    <rect x="584" y="182.153" width="6" height="4" transform="rotate(-90 584 182.153)" fill="#C79C68"/>
    <rect x="584" y="268.153" width="6" height="4" transform="rotate(-90 584 268.153)" fill="#C79C68"/>
    <rect x="395" y="20.1533" width="6" height="4" transform="rotate(180 395 20.1533)" fill="#C79C68"/>
    <rect x="496" y="182.153" width="6" height="4" transform="rotate(-90 496 182.153)" fill="#C79C68"/>
    <rect x="496" y="268.153" width="6" height="4" transform="rotate(-90 496 268.153)" fill="#C79C68"/>
    <rect x="576" y="182.153" width="6" height="4" transform="rotate(-90 576 182.153)" fill="#C79C68"/>
    <rect x="576" y="268.153" width="6" height="4" transform="rotate(-90 576 268.153)" fill="#C79C68"/>
    <rect x="395" y="28.1533" width="6" height="4" transform="rotate(180 395 28.1533)" fill="#C79C68"/>
    <rect x="488" y="182.153" width="6" height="4" transform="rotate(-90 488 182.153)" fill="#C79C68"/>
    <rect x="488" y="268.153" width="6" height="4" transform="rotate(-90 488 268.153)" fill="#C79C68"/>
    <rect x="568" y="182.153" width="6" height="4" transform="rotate(-90 568 182.153)" fill="#C79C68"/>
    <rect x="568" y="268.153" width="6" height="4" transform="rotate(-90 568 268.153)" fill="#C79C68"/>
    <rect x="395" y="36.1533" width="6" height="4" transform="rotate(180 395 36.1533)" fill="#C79C68"/>
    <rect x="480" y="182.153" width="6" height="4" transform="rotate(-90 480 182.153)" fill="#C79C68"/>
    <rect x="480" y="268.153" width="6" height="4" transform="rotate(-90 480 268.153)" fill="#C79C68"/>
    <rect x="560" y="182.153" width="6" height="4" transform="rotate(-90 560 182.153)" fill="#C79C68"/>
    <rect x="560" y="268.153" width="6" height="4" transform="rotate(-90 560 268.153)" fill="#C79C68"/>
    <rect x="395" y="44.1533" width="6" height="4" transform="rotate(180 395 44.1533)" fill="#C79C68"/>
    <rect x="472" y="182.153" width="6" height="4" transform="rotate(-90 472 182.153)" fill="#C79C68"/>
    <rect x="472" y="268.153" width="6" height="4" transform="rotate(-90 472 268.153)" fill="#C79C68"/>
    <rect x="552" y="182.153" width="6" height="4" transform="rotate(-90 552 182.153)" fill="#C79C68"/>
    <rect x="552" y="268.153" width="6" height="4" transform="rotate(-90 552 268.153)" fill="#C79C68"/>
    <rect x="395" y="52.1533" width="6" height="4" transform="rotate(180 395 52.1533)" fill="#C79C68"/>
    <rect x="464" y="182.153" width="6" height="4" transform="rotate(-90 464 182.153)" fill="#C79C68"/>
    <rect x="464" y="268.153" width="6" height="4" transform="rotate(-90 464 268.153)" fill="#C79C68"/>
    <rect x="544" y="182.153" width="6" height="4" transform="rotate(-90 544 182.153)" fill="#C79C68"/>
    <rect x="544" y="268.153" width="6" height="4" transform="rotate(-90 544 268.153)" fill="#C79C68"/>
    <rect x="624" y="182.153" width="6" height="4" transform="rotate(-90 624 182.153)" fill="#C79C68"/>
    <rect x="624" y="268.153" width="6" height="4" transform="rotate(-90 624 268.153)" fill="#C79C68"/>
    <rect x="395" y="60.1533" width="6" height="4" transform="rotate(180 395 60.1533)" fill="#C79C68"/>
    <rect x="394" y="152.153" width="6" height="4" transform="rotate(180 394 152.153)" fill="#C79C68"/>
    <rect x="394" y="332.153" width="6" height="4" transform="rotate(180 394 332.153)" fill="#C79C68"/>
    <rect x="394" y="280.153" width="6" height="4" transform="rotate(180 394 280.153)" fill="#C79C68"/>
    <rect x="456" y="182.153" width="6" height="4" transform="rotate(-90 456 182.153)" fill="#C79C68"/>
    <rect x="456" y="268.153" width="6" height="4" transform="rotate(-90 456 268.153)" fill="#C79C68"/>
    <rect x="536" y="182.153" width="6" height="4" transform="rotate(-90 536 182.153)" fill="#C79C68"/>
    <rect x="536" y="268.153" width="6" height="4" transform="rotate(-90 536 268.153)" fill="#C79C68"/>
    <rect x="616" y="182.153" width="6" height="4" transform="rotate(-90 616 182.153)" fill="#C79C68"/>
    <rect x="616" y="268.153" width="6" height="4" transform="rotate(-90 616 268.153)" fill="#C79C68"/>
    <rect x="395" y="68.1533" width="6" height="4" transform="rotate(180 395 68.1533)" fill="#C79C68"/>
    <rect x="394" y="160.153" width="6" height="4" transform="rotate(180 394 160.153)" fill="#C79C68"/>
    <rect x="394" y="340.153" width="6" height="4" transform="rotate(180 394 340.153)" fill="#C79C68"/>
    <rect x="394" y="288.153" width="6" height="4" transform="rotate(180 394 288.153)" fill="#C79C68"/>
    <rect x="394" y="324.153" width="6" height="4" transform="rotate(180 394 324.153)" fill="#C79C68"/>
    <rect x="448" y="182.153" width="6" height="4" transform="rotate(-90 448 182.153)" fill="#C79C68"/>
    <rect x="448" y="268.153" width="6" height="4" transform="rotate(-90 448 268.153)" fill="#C79C68"/>
    <rect x="528" y="182.153" width="6" height="4" transform="rotate(-90 528 182.153)" fill="#C79C68"/>
    <rect x="528" y="268.153" width="6" height="4" transform="rotate(-90 528 268.153)" fill="#C79C68"/>
    <rect x="608" y="182.153" width="6" height="4" transform="rotate(-90 608 182.153)" fill="#C79C68"/>
    <rect x="608" y="268.153" width="6" height="4" transform="rotate(-90 608 268.153)" fill="#C79C68"/>
    <rect x="395" y="76.1533" width="6" height="4" transform="rotate(180 395 76.1533)" fill="#C79C68"/>
    <rect x="394" y="168.153" width="6" height="4" transform="rotate(180 394 168.153)" fill="#C79C68"/>
    <rect x="394" y="348.153" width="6" height="4" transform="rotate(180 394 348.153)" fill="#C79C68"/>
    <rect x="440" y="182.153" width="6" height="4" transform="rotate(-90 440 182.153)" fill="#C79C68"/>
    <rect x="440" y="268.153" width="6" height="4" transform="rotate(-90 440 268.153)" fill="#C79C68"/>
    <rect x="520" y="182.153" width="6" height="4" transform="rotate(-90 520 182.153)" fill="#C79C68"/>
    <rect x="520" y="268.153" width="6" height="4" transform="rotate(-90 520 268.153)" fill="#C79C68"/>
    <rect x="600" y="182.153" width="6" height="4" transform="rotate(-90 600 182.153)" fill="#C79C68"/>
    <rect x="600" y="268.153" width="6" height="4" transform="rotate(-90 600 268.153)" fill="#C79C68"/>
    <rect x="395" y="84.1533" width="6" height="4" transform="rotate(180 395 84.1533)" fill="#C79C68"/>
    <rect x="395" y="92.1533" width="6" height="4" transform="rotate(180 395 92.1533)" fill="#C79C68"/>
    <rect x="395" y="100.153" width="6" height="4" transform="rotate(180 395 100.153)" fill="#C79C68"/>
    <rect x="394" y="176.153" width="6" height="4" transform="rotate(180 394 176.153)" fill="#C79C68"/>
    <rect x="394" y="356.153" width="6" height="4" transform="rotate(180 394 356.153)" fill="#C79C68"/>
    <rect x="146" y="291.461" width="6" height="4" transform="rotate(-90 146 291.461)" fill="#C79C68"/>
    <rect x="138" y="291.461" width="6" height="4" transform="rotate(-90 138 291.461)" fill="#C79C68"/>
    <rect x="130" y="291.461" width="6" height="4" transform="rotate(-90 130 291.461)" fill="#C79C68"/>
    <rect x="122" y="291.461" width="6" height="4" transform="rotate(-90 122 291.461)" fill="#C79C68"/>
    <path d="M384 50.1533H280M384 42.1533H280M384 58.1533H280M280 66.1533H304L320 82.1533H384M280 34.1533H304L320 18.1533H360L368 26.1533H384M368 34.1533H384M368 18.1533H384M368 10.1533H384M368 66.1533H384M368 74.1533H384M368 90.1533C368.8 90.1533 379 90.1533 384 90.1533M368 98.1533H384" stroke="#C79C68" stroke-width="2"/>
    <circle cx="366" cy="98.1533" r="2.5" stroke="#C79C68"/>
    <circle cx="366" cy="90.1533" r="2.5" stroke="#C79C68"/>
    <circle cx="310" cy="82.1533" r="2.5" stroke="#C79C68"/>
    <circle cx="322" cy="74.1533" r="2.5" stroke="#C79C68"/>
    <circle cx="314" cy="34.1533" r="2.5" stroke="#C79C68"/>
    <circle cx="310" cy="18.1533" r="2.5" stroke="#C79C68"/>
    <circle cx="366" cy="66.1533" r="2.5" stroke="#C79C68"/>
    <circle cx="366" cy="74.1533" r="2.5" stroke="#C79C68"/>
    <circle cx="366" cy="34.1533" r="2.5" stroke="#C79C68"/>
    <circle cx="366" cy="10.1533" r="2.5" stroke="#C79C68"/>
    <rect x="367.25" y="16.4033" width="0.5" height="3.5" fill="#658DC6" stroke="#C79C68" stroke-width="0.5"/>
    <path d="M280 338.153L384 338.153M280 346.153L384 346.153M280 330.153L384 330.153M384 322.153L360 322.153L344 306.153L280 306.153M384 354.153L360 354.153L344 370.153L304 370.153L296 362.153L280 362.153M296 354.153L280 354.153M296 370.153L280 370.153M296 322.153L280 322.153M296 314.153L280 314.153M296 298.153C295.2 298.153 285 298.153 280 298.153M296 290.153L280 290.153" stroke="#C79C68" stroke-width="2"/>
    <path d="M280 230.153H296" stroke="#C79C68" stroke-width="2"/>
    <circle cx="298" cy="290.153" r="2.5" transform="rotate(180 298 290.153)" stroke="#C79C68"/>
    <circle cx="298" cy="298.153" r="2.5" transform="rotate(180 298 298.153)" stroke="#C79C68"/>
    <circle cx="354" cy="306.153" r="2.5" transform="rotate(180 354 306.153)" stroke="#C79C68"/>
    <circle cx="342" cy="314.153" r="2.5" transform="rotate(180 342 314.153)" stroke="#C79C68"/>
    <circle cx="350" cy="354.153" r="2.5" transform="rotate(180 350 354.153)" stroke="#C79C68"/>
    <circle cx="298" cy="322.153" r="2.5" transform="rotate(180 298 322.153)" stroke="#C79C68"/>
    <circle cx="298" cy="314.153" r="2.5" transform="rotate(180 298 314.153)" stroke="#C79C68"/>
    <circle cx="298" cy="354.153" r="2.5" transform="rotate(180 298 354.153)" stroke="#C79C68"/>
    <rect x="296.75" y="371.903" width="0.5" height="3.5" transform="rotate(180 296.75 371.903)" fill="#658DC6" stroke="#C79C68" stroke-width="0.5"/>
    <path d="M384 150.153L280 150.153M280 158.153L304 158.153L320 174.153L384 174.153M368 158.153L384 158.153M368 166.153L384 166.153" stroke="#C79C68" stroke-width="2"/>
    <circle cx="310" cy="174.153" r="2.5" stroke="#C79C68"/>
    <circle cx="322" cy="166.153" r="2.5" stroke="#C79C68"/>
    <circle cx="366" cy="158.153" r="2.5" stroke="#C79C68"/>
    <circle cx="366" cy="166.153" r="2.5" stroke="#C79C68"/>
    <circle cx="370" cy="266.153" r="2.5" stroke="#C79C68"/>
    <circle cx="298" cy="230.153" r="2.5" stroke="#C79C68"/>
    <path d="M176 100.153V140.153M184 100.153V140.153M112 100.153V140.153M104 100.153V108.153M120 100.153V118.153M168 100.153V116.153L160 124.153V140.153M168 124.153V140.153M120 122.153V140.153M104 132.153V140.153" stroke="#C79C68" stroke-width="2"/>
    <circle cx="104" cy="110.153" r="2.5" stroke="#C79C68"/>
    <circle cx="104" cy="130.153" r="2.5" stroke="#C79C68"/>
    <rect x="118.25" y="121.403" width="3.5" height="0.5" fill="#658DC6" stroke="#C79C68" stroke-width="0.5"/>
    <rect x="118.25" y="118.403" width="3.5" height="0.5" fill="#658DC6" stroke="#C79C68" stroke-width="0.5"/>
    <rect x="166.25" y="123.403" width="3.5" height="0.5" fill="#658DC6" stroke="#C79C68" stroke-width="0.5"/>
    <path d="M124 240.307V280.307M132 240.307V280.307M156 240.307V280.307M164 240.307V280.307M140 240.307V248.307M148 240.307V256.307L140 264.307V280.307M148 264.307V280.307" stroke="#C79C68" stroke-width="2"/>
    <circle cx="140" cy="250.307" r="2.5" stroke="#C79C68"/>
    <rect x="146.25" y="263.557" width="3.5" height="0.5" fill="#658DC6" stroke="#C79C68" stroke-width="0.5"/>
    <path d="M280 214.153H304L368 278.153H384" stroke="#C79C68" stroke-width="2"/>
    <path d="M280 222.153H304L368 286.153H384" stroke="#C79C68" stroke-width="2"/>
    <path d="M442 258.153L442 242.153M450 258.153L450 242.153M474 258.153L474 186.153M482 258.153L482 220.153M490 258.153L490 186.153M498 258.153L498 234.153L514 218.153L514 186.153M466 186.153L466 210.153L458 218.153L458 258.153M466 258.153L466 242.153M506 258.153L506 242.153M514 258.153L514 242.153M522 258.153L522 242.153M530 258.153L530 242.153M442 186.153L442 202.153M450 186.153L450 202.153M458 186.153L458 202.153M498 186.153L498 202.153M506 186.153L506 202.153M522 186.153L522 202.153M530 186.153L530 202.153M482 216.153L482 186.153" stroke="#C79C68" stroke-width="2"/>
    <circle cx="442" cy="240.153" r="2.5" transform="rotate(-90 442 240.153)" stroke="#C79C68"/>
    <circle cx="442" cy="240.153" r="2.5" transform="rotate(-90 442 240.153)" stroke="#C79C68"/>
    <circle cx="450" cy="240.153" r="2.5" transform="rotate(-90 450 240.153)" stroke="#C79C68"/>
    <circle cx="466" cy="240.153" r="2.5" transform="rotate(-90 466 240.153)" stroke="#C79C68"/>
    <circle cx="466" cy="220.153" r="2.5" transform="rotate(-90 466 220.153)" stroke="#C79C68"/>
    <circle cx="506" cy="240.153" r="2.5" transform="rotate(-90 506 240.153)" stroke="#C79C68"/>
    <circle cx="514" cy="240.153" r="2.5" transform="rotate(-90 514 240.153)" stroke="#C79C68"/>
    <circle cx="522" cy="240.153" r="2.5" transform="rotate(-90 522 240.153)" stroke="#C79C68"/>
    <circle cx="530" cy="240.153" r="2.5" transform="rotate(-90 530 240.153)" stroke="#C79C68"/>
    <circle cx="530" cy="204.153" r="2.5" transform="rotate(-90 530 204.153)" stroke="#C79C68"/>
    <circle cx="522" cy="204.153" r="2.5" transform="rotate(-90 522 204.153)" stroke="#C79C68"/>
    <circle cx="506" cy="204.153" r="2.5" transform="rotate(-90 506 204.153)" stroke="#C79C68"/>
    <circle cx="498" cy="204.153" r="2.5" transform="rotate(-90 498 204.153)" stroke="#C79C68"/>
    <circle cx="458" cy="204.153" r="2.5" transform="rotate(-90 458 204.153)" stroke="#C79C68"/>
    <circle cx="450" cy="204.153" r="2.5" transform="rotate(-90 450 204.153)" stroke="#C79C68"/>
    <circle cx="442" cy="204.153" r="2.5" transform="rotate(-90 442 204.153)" stroke="#C79C68"/>
    <circle cx="506" cy="216.153" r="2.5" transform="rotate(-90 506 216.153)" stroke="#C79C68"/>
    <circle cx="498" cy="224.153" r="2.5" transform="rotate(-90 498 224.153)" stroke="#C79C68"/>
    <circle cx="514" cy="228.153" r="2.5" transform="rotate(-90 514 228.153)" stroke="#C79C68"/>
    <rect x="480.25" y="219.903" width="0.5" height="3.5" transform="rotate(-90 480.25 219.903)" fill="#658DC6" stroke="#C79C68" stroke-width="0.5"/>
    <rect x="480.25" y="216.903" width="0.5" height="3.5" transform="rotate(-90 480.25 216.903)" fill="#658DC6" stroke="#C79C68" stroke-width="0.5"/>
    <path d="M538 258.153L538 242.153M546 258.153L546 242.153M570 258.153L570 186.153M578 258.153L578 220.153M586 258.153L586 186.153M594 258.153L594 234.153L610 218.153L610 186.153M562 186.153L562 210.153L554 218.153L554 258.153M562 258.153L562 242.153M602 258.153L602 242.153M610 258.153L610 242.153M618 258.153L618 242.153M626 258.153L626 242.153M538 186.153L538 202.153M546 186.153L546 202.153M554 186.153L554 202.153M594 186.153L594 202.153M602 186.153L602 202.153M618 186.153L618 202.153M626 186.153L626 202.153M578 216.153L578 186.153" stroke="#C79C68" stroke-width="2"/>
    <circle cx="538" cy="240.153" r="2.5" transform="rotate(-90 538 240.153)" stroke="#C79C68"/>
    <circle cx="538" cy="240.153" r="2.5" transform="rotate(-90 538 240.153)" stroke="#C79C68"/>
    <circle cx="546" cy="240.153" r="2.5" transform="rotate(-90 546 240.153)" stroke="#C79C68"/>
    <circle cx="562" cy="240.153" r="2.5" transform="rotate(-90 562 240.153)" stroke="#C79C68"/>
    <circle cx="562" cy="220.153" r="2.5" transform="rotate(-90 562 220.153)" stroke="#C79C68"/>
    <circle cx="602" cy="240.153" r="2.5" transform="rotate(-90 602 240.153)" stroke="#C79C68"/>
    <circle cx="610" cy="240.153" r="2.5" transform="rotate(-90 610 240.153)" stroke="#C79C68"/>
    <circle cx="618" cy="240.153" r="2.5" transform="rotate(-90 618 240.153)" stroke="#C79C68"/>
    <circle cx="626" cy="240.153" r="2.5" transform="rotate(-90 626 240.153)" stroke="#C79C68"/>
    <circle cx="626" cy="204.153" r="2.5" transform="rotate(-90 626 204.153)" stroke="#C79C68"/>
    <circle cx="618" cy="204.153" r="2.5" transform="rotate(-90 618 204.153)" stroke="#C79C68"/>
    <circle cx="602" cy="204.153" r="2.5" transform="rotate(-90 602 204.153)" stroke="#C79C68"/>
    <circle cx="594" cy="204.153" r="2.5" transform="rotate(-90 594 204.153)" stroke="#C79C68"/>
    <circle cx="554" cy="204.153" r="2.5" transform="rotate(-90 554 204.153)" stroke="#C79C68"/>
    <circle cx="546" cy="204.153" r="2.5" transform="rotate(-90 546 204.153)" stroke="#C79C68"/>
    <circle cx="538" cy="204.153" r="2.5" transform="rotate(-90 538 204.153)" stroke="#C79C68"/>
    <circle cx="602" cy="216.153" r="2.5" transform="rotate(-90 602 216.153)" stroke="#C79C68"/>
    <circle cx="594" cy="224.153" r="2.5" transform="rotate(-90 594 224.153)" stroke="#C79C68"/>
    <circle cx="610" cy="228.153" r="2.5" transform="rotate(-90 610 228.153)" stroke="#C79C68"/>
    <rect x="576.25" y="219.903" width="0.5" height="3.5" transform="rotate(-90 576.25 219.903)" fill="#658DC6" stroke="#C79C68" stroke-width="0.5"/>
    <rect x="576.25" y="216.903" width="0.5" height="3.5" transform="rotate(-90 576.25 216.903)" fill="#658DC6" stroke="#C79C68" stroke-width="0.5"/>
</svg>



