<?xml version="1.0" ?><!DOCTYPE svg  PUBLIC '-//W3C//DTD SVG 1.1//EN'
        'http://www.w3.org/Graphics/SVG/1.1/DTD/svg11.dtd'>
<svg width="582" height="312" viewBox="0 0 582 312" fill="none" xmlns="http://www.w3.org/2000/svg">
    <path d="M136.268 293V267.8H145.952C147.824 267.8 149.576 268.124 151.208 268.772C152.84 269.42 154.244 270.308 155.42 271.436C156.62 272.564 157.556 273.908 158.228 275.468C158.924 277.028 159.272 278.696 159.272 280.472C159.272 282.224 158.924 283.868 158.228 285.404C157.556 286.94 156.62 288.272 155.42 289.4C154.244 290.504 152.84 291.38 151.208 292.028C149.576 292.676 147.824 293 145.952 293H136.268ZM145.916 272.444H141.488V288.356H145.916C147.02 288.356 148.052 288.152 149.012 287.744C149.996 287.336 150.848 286.784 151.568 286.088C152.288 285.368 152.852 284.528 153.26 283.568C153.668 282.608 153.872 281.576 153.872 280.472C153.872 279.344 153.668 278.288 153.26 277.304C152.852 276.32 152.288 275.468 151.568 274.748C150.848 274.028 149.996 273.464 149.012 273.056C148.052 272.648 147.02 272.444 145.916 272.444ZM179.334 290.66C178.182 291.596 176.994 292.28 175.77 292.712C174.57 293.144 173.226 293.36 171.738 293.36C170.322 293.36 168.99 293.108 167.742 292.604C166.518 292.1 165.45 291.416 164.538 290.552C163.65 289.688 162.942 288.668 162.414 287.492C161.91 286.292 161.658 285.008 161.658 283.64C161.658 282.296 161.898 281.036 162.378 279.86C162.882 278.66 163.566 277.628 164.43 276.764C165.294 275.876 166.314 275.18 167.49 274.676C168.69 274.172 169.962 273.92 171.306 273.92C172.626 273.92 173.85 274.184 174.978 274.712C176.13 275.216 177.114 275.912 177.93 276.8C178.77 277.688 179.418 278.756 179.874 280.004C180.354 281.228 180.594 282.56 180.594 284V285.296H166.626C166.962 286.472 167.61 287.42 168.57 288.14C169.53 288.86 170.658 289.22 171.954 289.22C172.77 289.22 173.538 289.088 174.258 288.824C174.978 288.56 175.59 288.188 176.094 287.708L179.334 290.66ZM171.198 277.988C170.07 277.988 169.098 278.336 168.282 279.032C167.466 279.704 166.902 280.616 166.59 281.768H175.77C175.458 280.664 174.882 279.764 174.042 279.068C173.226 278.348 172.278 277.988 171.198 277.988ZM208.96 280.436C208.96 282.284 208.636 284.012 207.988 285.62C207.364 287.204 206.488 288.572 205.36 289.724C204.256 290.852 202.924 291.752 201.364 292.424C199.804 293.072 198.124 293.396 196.324 293.396C194.452 293.396 192.7 293.06 191.068 292.388C189.436 291.716 188.02 290.804 186.82 289.652C185.644 288.476 184.708 287.096 184.012 285.512C183.316 283.928 182.968 282.224 182.968 280.4C182.968 278.576 183.304 276.872 183.976 275.288C184.672 273.704 185.608 272.336 186.784 271.184C187.984 270.008 189.4 269.084 191.032 268.412C192.664 267.74 194.404 267.404 196.252 267.404C198.34 267.404 200.308 267.824 202.156 268.664C204.004 269.504 205.528 270.656 206.728 272.12L203.092 275.468C202.204 274.412 201.172 273.608 199.996 273.056C198.844 272.48 197.596 272.192 196.252 272.192C195.124 272.192 194.068 272.408 193.084 272.84C192.124 273.248 191.284 273.824 190.564 274.568C189.868 275.288 189.316 276.152 188.908 277.16C188.524 278.144 188.332 279.224 188.332 280.4C188.332 281.576 188.536 282.668 188.944 283.676C189.352 284.684 189.916 285.56 190.636 286.304C191.356 287.024 192.208 287.6 193.192 288.032C194.2 288.44 195.268 288.644 196.396 288.644C198.172 288.644 199.696 288.152 200.968 287.168C202.264 286.184 203.068 284.924 203.38 283.388H195.928V278.852H208.96V280.436ZM214.646 272.012C213.878 272.012 213.218 271.736 212.666 271.184C212.114 270.632 211.838 269.972 211.838 269.204C211.838 268.436 212.114 267.776 212.666 267.224C213.218 266.672 213.878 266.396 214.646 266.396C215.414 266.396 216.074 266.672 216.626 267.224C217.178 267.776 217.454 268.436 217.454 269.204C217.454 269.972 217.178 270.632 216.626 271.184C216.074 271.736 215.414 272.012 214.646 272.012ZM217.13 274.244V293H212.198V274.244H217.13ZM220.987 293V274.244H225.919V276.296C226.519 275.48 227.239 274.868 228.079 274.46C228.943 274.028 229.891 273.812 230.923 273.812C231.403 273.836 231.799 273.884 232.111 273.956C232.447 274.004 232.735 274.1 232.975 274.244V278.564C232.615 278.396 232.219 278.276 231.787 278.204C231.355 278.108 230.911 278.06 230.455 278.06C229.495 278.06 228.607 278.3 227.791 278.78C226.999 279.26 226.375 279.956 225.919 280.868V293H220.987ZM238.095 272.012C237.327 272.012 236.667 271.736 236.115 271.184C235.563 270.632 235.287 269.972 235.287 269.204C235.287 268.436 235.563 267.776 236.115 267.224C236.667 266.672 237.327 266.396 238.095 266.396C238.863 266.396 239.523 266.672 240.075 267.224C240.627 267.776 240.903 268.436 240.903 269.204C240.903 269.972 240.627 270.632 240.075 271.184C239.523 271.736 238.863 272.012 238.095 272.012ZM240.579 274.244V293H235.647V274.244H240.579ZM249.224 274.244V285.152C249.224 286.352 249.572 287.312 250.268 288.032C250.988 288.752 251.936 289.112 253.112 289.112C253.952 289.112 254.696 288.956 255.344 288.644C256.016 288.308 256.568 287.84 257 287.24V274.244H261.932V293H257V291.488C256.28 292.088 255.476 292.556 254.588 292.892C253.7 293.204 252.74 293.36 251.708 293.36C249.548 293.36 247.772 292.664 246.38 291.272C244.988 289.856 244.292 288.056 244.292 285.872V274.244H249.224ZM265.776 293V274.244H270.708V275.648C271.38 275.072 272.124 274.64 272.94 274.352C273.756 274.04 274.644 273.884 275.604 273.884C276.804 273.884 277.884 274.136 278.844 274.64C279.828 275.12 280.632 275.804 281.256 276.692C282 275.78 282.9 275.084 283.956 274.604C285.012 274.124 286.176 273.884 287.448 273.884C289.536 273.884 291.252 274.58 292.596 275.972C293.94 277.364 294.612 279.152 294.612 281.336V293H289.68V282.056C289.68 280.88 289.356 279.932 288.708 279.212C288.084 278.492 287.232 278.132 286.152 278.132C285.408 278.132 284.724 278.3 284.1 278.636C283.5 278.948 282.984 279.404 282.552 280.004C282.576 280.22 282.6 280.436 282.624 280.652C282.648 280.868 282.66 281.096 282.66 281.336V293H277.728V282.056C277.728 280.88 277.404 279.932 276.756 279.212C276.132 278.492 275.28 278.132 274.2 278.132C273.456 278.132 272.796 278.276 272.22 278.564C271.644 278.852 271.14 279.272 270.708 279.824V293H265.776ZM303.555 293L313.923 267.8H319.971L330.195 293H324.543L321.987 286.376H311.583L308.991 293H303.555ZM313.203 282.2H320.403L316.839 272.912L313.203 282.2ZM332.334 293V267.8H337.554V293H332.334ZM349.385 293V267.8H359.069C360.941 267.8 362.693 268.124 364.325 268.772C365.957 269.42 367.361 270.308 368.537 271.436C369.737 272.564 370.673 273.908 371.345 275.468C372.041 277.028 372.389 278.696 372.389 280.472C372.389 282.224 372.041 283.868 371.345 285.404C370.673 286.94 369.737 288.272 368.537 289.4C367.361 290.504 365.957 291.38 364.325 292.028C362.693 292.676 360.941 293 359.069 293H349.385ZM359.033 272.444H354.605V288.356H359.033C360.137 288.356 361.169 288.152 362.129 287.744C363.113 287.336 363.965 286.784 364.685 286.088C365.405 285.368 365.969 284.528 366.377 283.568C366.785 282.608 366.989 281.576 366.989 280.472C366.989 279.344 366.785 278.288 366.377 277.304C365.969 276.32 365.405 275.468 364.685 274.748C363.965 274.028 363.113 273.464 362.129 273.056C361.169 272.648 360.137 272.444 359.033 272.444ZM374.775 283.64C374.775 282.272 375.027 281 375.531 279.824C376.059 278.624 376.767 277.592 377.655 276.728C378.567 275.84 379.635 275.144 380.859 274.64C382.083 274.136 383.391 273.884 384.783 273.884C386.175 273.884 387.483 274.136 388.707 274.64C389.931 275.144 390.987 275.84 391.875 276.728C392.787 277.592 393.495 278.624 393.999 279.824C394.527 281 394.791 282.272 394.791 283.64C394.791 285.008 394.527 286.292 393.999 287.492C393.495 288.668 392.787 289.688 391.875 290.552C390.987 291.416 389.931 292.1 388.707 292.604C387.483 293.108 386.175 293.36 384.783 293.36C383.391 293.36 382.083 293.108 380.859 292.604C379.635 292.1 378.567 291.416 377.655 290.552C376.767 289.688 376.059 288.668 375.531 287.492C375.027 286.292 374.775 285.008 374.775 283.64ZM384.783 289.076C386.223 289.076 387.447 288.548 388.455 287.492C389.463 286.436 389.967 285.152 389.967 283.64C389.967 282.104 389.463 280.808 388.455 279.752C387.447 278.696 386.223 278.168 384.783 278.168C383.343 278.168 382.119 278.696 381.111 279.752C380.103 280.808 379.599 282.104 379.599 283.64C379.599 285.152 380.103 286.436 381.111 287.492C382.119 288.548 383.343 289.076 384.783 289.076ZM397.823 293V274.244H402.755V275.72C403.475 275.12 404.267 274.664 405.131 274.352C406.019 274.04 406.979 273.884 408.011 273.884C410.171 273.884 411.947 274.58 413.339 275.972C414.731 277.364 415.427 279.152 415.427 281.336V293H410.495V282.056C410.495 280.88 410.135 279.932 409.415 279.212C408.719 278.492 407.783 278.132 406.607 278.132C405.791 278.132 405.047 278.3 404.375 278.636C403.727 278.948 403.187 279.404 402.755 280.004V293H397.823ZM427.803 293.108C426.483 293.108 425.235 292.856 424.059 292.352C422.907 291.848 421.899 291.164 421.035 290.3C420.195 289.436 419.523 288.428 419.019 287.276C418.539 286.1 418.299 284.84 418.299 283.496C418.299 282.176 418.551 280.94 419.055 279.788C419.559 278.612 420.243 277.592 421.107 276.728C421.971 275.864 422.991 275.192 424.167 274.712C425.343 274.208 426.603 273.956 427.947 273.956C428.883 273.956 429.771 274.088 430.611 274.352C431.475 274.616 432.279 274.988 433.023 275.468V274.244H437.883V293C437.883 295.472 437.079 297.38 435.471 298.724C433.887 300.068 431.595 300.74 428.595 300.74C427.155 300.74 425.763 300.596 424.419 300.308C423.099 300.02 421.887 299.6 420.783 299.048L422.511 295.196C423.543 295.7 424.551 296.072 425.535 296.312C426.519 296.576 427.503 296.708 428.487 296.708C429.951 296.708 431.055 296.384 431.799 295.736C432.567 295.112 432.951 294.188 432.951 292.964V291.416C432.207 291.968 431.391 292.388 430.503 292.676C429.639 292.964 428.739 293.108 427.803 293.108ZM423.159 283.496C423.159 285.008 423.675 286.292 424.707 287.348C425.763 288.404 427.047 288.932 428.559 288.932C429.447 288.932 430.263 288.788 431.007 288.5C431.751 288.188 432.399 287.768 432.951 287.24V279.86C432.423 279.332 431.775 278.924 431.007 278.636C430.239 278.324 429.435 278.168 428.595 278.168C427.083 278.168 425.799 278.684 424.743 279.716C423.687 280.748 423.159 282.008 423.159 283.496ZM446.7 266.72V293H441.768V267.8L446.7 266.72ZM467.369 290.66C466.217 291.596 465.029 292.28 463.805 292.712C462.605 293.144 461.261 293.36 459.773 293.36C458.357 293.36 457.025 293.108 455.777 292.604C454.553 292.1 453.485 291.416 452.573 290.552C451.685 289.688 450.977 288.668 450.449 287.492C449.945 286.292 449.693 285.008 449.693 283.64C449.693 282.296 449.933 281.036 450.413 279.86C450.917 278.66 451.601 277.628 452.465 276.764C453.329 275.876 454.349 275.18 455.525 274.676C456.725 274.172 457.997 273.92 459.341 273.92C460.661 273.92 461.885 274.184 463.013 274.712C464.165 275.216 465.149 275.912 465.965 276.8C466.805 277.688 467.453 278.756 467.909 280.004C468.389 281.228 468.629 282.56 468.629 284V285.296H454.661C454.997 286.472 455.645 287.42 456.605 288.14C457.565 288.86 458.693 289.22 459.989 289.22C460.805 289.22 461.573 289.088 462.293 288.824C463.013 288.56 463.625 288.188 464.129 287.708L467.369 290.66ZM459.233 277.988C458.105 277.988 457.133 278.336 456.317 279.032C455.501 279.704 454.937 280.616 454.625 281.768H463.805C463.493 280.664 462.917 279.764 462.077 279.068C461.261 278.348 460.313 277.988 459.233 277.988Z" fill="#3B3B47"/>
    <path d="M5 195V45H107V195H5Z" fill="white" stroke="#3B3B47" stroke-width="10"/>
    <rect x="32" y="80" width="32" height="16" fill="#3B3B47"/>
    <rect x="32" y="144" width="32" height="16" fill="#3B3B47"/>
    <path d="M101 21H141V219H101V21Z" fill="#BAC2D7" stroke="#3B3B47" stroke-width="10"/>
    <rect x="142" y="8" width="432" height="224" fill="#3B3B47" stroke="#3B3B47" stroke-width="16"/>
    <rect x="182" y="48" width="352" height="144" fill="#6D5B97"/>
    <path d="M217.024 107V73.4H229.936C232.432 73.4 234.768 73.832 236.944 74.696C239.12 75.56 240.992 76.744 242.56 78.248C244.16 79.752 245.408 81.544 246.304 83.624C247.232 85.704 247.696 87.928 247.696 90.296C247.696 92.632 247.232 94.824 246.304 96.872C245.408 98.92 244.16 100.696 242.56 102.2C240.992 103.672 239.12 104.84 236.944 105.704C234.768 106.568 232.432 107 229.936 107H217.024ZM229.888 79.592H223.984V100.808H229.888C231.36 100.808 232.736 100.536 234.016 99.992C235.328 99.448 236.464 98.712 237.424 97.784C238.384 96.824 239.136 95.704 239.68 94.424C240.224 93.144 240.496 91.768 240.496 90.296C240.496 88.792 240.224 87.384 239.68 86.072C239.136 84.76 238.384 83.624 237.424 82.664C236.464 81.704 235.328 80.952 234.016 80.408C232.736 79.864 231.36 79.592 229.888 79.592ZM274.446 103.88C272.91 105.128 271.326 106.04 269.694 106.616C268.094 107.192 266.302 107.48 264.318 107.48C262.43 107.48 260.654 107.144 258.99 106.472C257.358 105.8 255.934 104.888 254.718 103.736C253.534 102.584 252.59 101.224 251.886 99.656C251.214 98.056 250.878 96.344 250.878 94.52C250.878 92.728 251.198 91.048 251.838 89.48C252.51 87.88 253.422 86.504 254.574 85.352C255.726 84.168 257.086 83.24 258.654 82.568C260.254 81.896 261.95 81.56 263.742 81.56C265.502 81.56 267.134 81.912 268.638 82.616C270.174 83.288 271.486 84.216 272.574 85.4C273.694 86.584 274.558 88.008 275.166 89.672C275.806 91.304 276.126 93.08 276.126 95V96.728H257.502C257.95 98.296 258.814 99.56 260.094 100.52C261.374 101.48 262.878 101.96 264.606 101.96C265.694 101.96 266.718 101.784 267.678 101.432C268.638 101.08 269.454 100.584 270.126 99.944L274.446 103.88ZM263.598 86.984C262.094 86.984 260.798 87.448 259.71 88.376C258.622 89.272 257.87 90.488 257.454 92.024H269.694C269.278 90.552 268.51 89.352 267.39 88.424C266.302 87.464 265.038 86.984 263.598 86.984ZM313.947 90.248C313.947 92.712 313.515 95.016 312.651 97.16C311.819 99.272 310.651 101.096 309.147 102.632C307.675 104.136 305.899 105.336 303.819 106.232C301.739 107.096 299.499 107.528 297.099 107.528C294.603 107.528 292.267 107.08 290.091 106.184C287.915 105.288 286.027 104.072 284.427 102.536C282.859 100.968 281.611 99.128 280.683 97.016C279.755 94.904 279.291 92.632 279.291 90.2C279.291 87.768 279.739 85.496 280.635 83.384C281.563 81.272 282.811 79.448 284.379 77.912C285.979 76.344 287.867 75.112 290.043 74.216C292.219 73.32 294.539 72.872 297.003 72.872C299.787 72.872 302.411 73.432 304.875 74.552C307.339 75.672 309.371 77.208 310.971 79.16L306.123 83.624C304.939 82.216 303.563 81.144 301.995 80.408C300.459 79.64 298.795 79.256 297.003 79.256C295.499 79.256 294.091 79.544 292.779 80.12C291.499 80.664 290.379 81.432 289.419 82.424C288.491 83.384 287.755 84.536 287.211 85.88C286.699 87.192 286.443 88.632 286.443 90.2C286.443 91.768 286.715 93.224 287.259 94.568C287.803 95.912 288.555 97.08 289.515 98.072C290.475 99.032 291.611 99.8 292.923 100.376C294.267 100.92 295.691 101.192 297.195 101.192C299.563 101.192 301.595 100.536 303.291 99.224C305.019 97.912 306.091 96.232 306.507 94.184H296.571V88.136H313.947V90.248ZM321.528 79.016C320.504 79.016 319.624 78.648 318.888 77.912C318.152 77.176 317.784 76.296 317.784 75.272C317.784 74.248 318.152 73.368 318.888 72.632C319.624 71.896 320.504 71.528 321.528 71.528C322.552 71.528 323.432 71.896 324.168 72.632C324.904 73.368 325.272 74.248 325.272 75.272C325.272 76.296 324.904 77.176 324.168 77.912C323.432 78.648 322.552 79.016 321.528 79.016ZM324.84 81.992V107H318.264V81.992H324.84ZM329.983 107V81.992H336.559V84.728C337.359 83.64 338.319 82.824 339.439 82.28C340.591 81.704 341.855 81.416 343.231 81.416C343.871 81.448 344.399 81.512 344.815 81.608C345.263 81.672 345.647 81.8 345.967 81.992V87.752C345.487 87.528 344.959 87.368 344.383 87.272C343.807 87.144 343.215 87.08 342.607 87.08C341.327 87.08 340.143 87.4 339.055 88.04C337.999 88.68 337.167 89.608 336.559 90.824V107H329.983ZM352.794 79.016C351.77 79.016 350.89 78.648 350.154 77.912C349.418 77.176 349.05 76.296 349.05 75.272C349.05 74.248 349.418 73.368 350.154 72.632C350.89 71.896 351.77 71.528 352.794 71.528C353.818 71.528 354.698 71.896 355.434 72.632C356.17 73.368 356.538 74.248 356.538 75.272C356.538 76.296 356.17 77.176 355.434 77.912C354.698 78.648 353.818 79.016 352.794 79.016ZM356.106 81.992V107H349.53V81.992H356.106ZM367.632 81.992V96.536C367.632 98.136 368.096 99.416 369.024 100.376C369.984 101.336 371.248 101.816 372.816 101.816C373.936 101.816 374.928 101.608 375.792 101.192C376.688 100.744 377.424 100.12 378 99.32V81.992H384.576V107H378V104.984C377.04 105.784 375.968 106.408 374.784 106.856C373.6 107.272 372.32 107.48 370.944 107.48C368.064 107.48 365.696 106.552 363.84 104.696C361.984 102.808 361.056 100.408 361.056 97.496V81.992H367.632ZM389.701 107V81.992H396.277V83.864C397.173 83.096 398.165 82.52 399.253 82.136C400.341 81.72 401.525 81.512 402.805 81.512C404.405 81.512 405.845 81.848 407.125 82.52C408.437 83.16 409.509 84.072 410.341 85.256C411.333 84.04 412.533 83.112 413.941 82.472C415.349 81.832 416.901 81.512 418.597 81.512C421.381 81.512 423.669 82.44 425.461 84.296C427.253 86.152 428.149 88.536 428.149 91.448V107H421.573V92.408C421.573 90.84 421.141 89.576 420.277 88.616C419.445 87.656 418.309 87.176 416.869 87.176C415.877 87.176 414.965 87.4 414.133 87.848C413.333 88.264 412.645 88.872 412.069 89.672C412.101 89.96 412.133 90.248 412.165 90.536C412.197 90.824 412.213 91.128 412.213 91.448V107H405.637V92.408C405.637 90.84 405.205 89.576 404.341 88.616C403.509 87.656 402.373 87.176 400.933 87.176C399.941 87.176 399.061 87.368 398.293 87.752C397.525 88.136 396.853 88.696 396.277 89.432V107H389.701ZM251.296 150.2C251.296 152.6 250.832 154.872 249.904 157.016C248.976 159.128 247.712 160.968 246.112 162.536C244.544 164.072 242.672 165.288 240.496 166.184C238.32 167.08 235.984 167.528 233.488 167.528C231.024 167.528 228.704 167.08 226.528 166.184C224.352 165.288 222.464 164.072 220.864 162.536C219.296 160.968 218.048 159.128 217.12 157.016C216.192 154.872 215.728 152.6 215.728 150.2C215.728 147.8 216.192 145.544 217.12 143.432C218.048 141.288 219.296 139.448 220.864 137.912C222.464 136.344 224.352 135.112 226.528 134.216C228.704 133.32 231.024 132.872 233.488 132.872C235.984 132.872 238.32 133.32 240.496 134.216C242.672 135.112 244.544 136.344 246.112 137.912C247.712 139.448 248.976 141.288 249.904 143.432C250.832 145.544 251.296 147.8 251.296 150.2ZM244.144 150.2C244.144 148.632 243.872 147.192 243.328 145.88C242.784 144.536 242.032 143.384 241.072 142.424C240.144 141.432 239.024 140.664 237.712 140.12C236.4 139.544 234.992 139.256 233.488 139.256C231.984 139.256 230.576 139.544 229.264 140.12C227.984 140.664 226.864 141.432 225.904 142.424C224.976 143.384 224.24 144.536 223.696 145.88C223.152 147.192 222.88 148.632 222.88 150.2C222.88 151.736 223.152 153.176 223.696 154.52C224.24 155.864 224.976 157.032 225.904 158.024C226.864 158.984 227.984 159.752 229.264 160.328C230.576 160.872 231.984 161.144 233.488 161.144C234.992 161.144 236.4 160.872 237.712 160.328C239.024 159.752 240.144 158.984 241.072 158.024C242.032 157.032 242.784 155.864 243.328 154.52C243.872 153.176 244.144 151.736 244.144 150.2ZM255.639 167V141.992H262.215V144.728C263.015 143.64 263.975 142.824 265.095 142.28C266.247 141.704 267.511 141.416 268.887 141.416C269.527 141.448 270.055 141.512 270.471 141.608C270.919 141.672 271.303 141.8 271.623 141.992V147.752C271.143 147.528 270.615 147.368 270.039 147.272C269.463 147.144 268.871 147.08 268.263 147.08C266.983 147.08 265.799 147.4 264.711 148.04C263.655 148.68 262.823 149.608 262.215 150.824V167H255.639ZM286.207 161.72C287.327 161.72 288.367 161.496 289.327 161.048C290.319 160.6 291.263 159.896 292.159 158.936L296.095 163.016C294.815 164.424 293.279 165.528 291.487 166.328C289.695 167.096 287.839 167.48 285.919 167.48C284.095 167.48 282.367 167.144 280.735 166.472C279.135 165.8 277.743 164.888 276.559 163.736C275.407 162.584 274.495 161.224 273.823 159.656C273.151 158.056 272.815 156.344 272.815 154.52C272.815 152.696 273.151 151 273.823 149.432C274.495 147.832 275.407 146.456 276.559 145.304C277.743 144.12 279.135 143.192 280.735 142.52C282.367 141.848 284.095 141.512 285.919 141.512C287.903 141.512 289.807 141.912 291.631 142.712C293.455 143.48 295.007 144.568 296.287 145.976L292.255 150.248C291.359 149.256 290.399 148.504 289.375 147.992C288.351 147.48 287.247 147.224 286.063 147.224C284.175 147.224 282.575 147.928 281.263 149.336C279.983 150.744 279.343 152.472 279.343 154.52C279.343 156.568 279.999 158.28 281.311 159.656C282.655 161.032 284.287 161.72 286.207 161.72ZM307.434 167.432C304.746 167.432 302.554 166.728 300.858 165.32C299.162 163.88 298.314 162.024 298.314 159.752C298.314 157.384 299.226 155.528 301.05 154.184C302.874 152.84 305.386 152.168 308.586 152.168C309.61 152.168 310.634 152.248 311.658 152.408C312.682 152.568 313.69 152.808 314.682 153.128V151.352C314.682 149.912 314.234 148.824 313.338 148.088C312.442 147.352 311.13 146.984 309.402 146.984C308.346 146.984 307.194 147.16 305.946 147.512C304.73 147.832 303.338 148.344 301.77 149.048L299.37 144.2C301.322 143.304 303.21 142.632 305.034 142.184C306.89 141.736 308.714 141.512 310.506 141.512C313.866 141.512 316.474 142.328 318.33 143.96C320.218 145.56 321.162 147.832 321.162 150.776V167H314.682V165.272C313.626 166.008 312.506 166.552 311.322 166.904C310.17 167.256 308.874 167.432 307.434 167.432ZM304.602 159.608C304.602 160.568 305.018 161.336 305.85 161.912C306.682 162.456 307.786 162.728 309.162 162.728C310.25 162.728 311.242 162.6 312.138 162.344C313.066 162.056 313.914 161.656 314.682 161.144V157.4C313.882 157.08 313.034 156.856 312.138 156.728C311.274 156.568 310.362 156.488 309.402 156.488C307.898 156.488 306.714 156.776 305.85 157.352C305.018 157.896 304.602 158.648 304.602 159.608Z" fill="white"/>
    <path d="M158 191.5V216H278" stroke="#C79C68" stroke-width="10"/>
    <rect x="298" y="211" width="10" height="10" fill="#C79C68"/>
    <rect x="494" y="18" width="10" height="10" fill="#C79C68"/>
    <rect x="328" y="211" width="10" height="10" fill="#C79C68"/>
    <rect x="524" y="18" width="10" height="10" fill="#C79C68"/>
    <rect x="358" y="211" width="10" height="10" fill="#C79C68"/>
    <rect x="554" y="18" width="10" height="10" fill="#C79C68"/>
    <rect x="554" y="48" width="10" height="10" fill="#C79C68"/>
</svg>


