<svg width="104" height="127" viewBox="0 0 104 127" fill="none" xmlns="http://www.w3.org/2000/svg">
<path d="M52 127L32.0814 92.5L71.9186 92.5L52 127Z" fill="url(#paint0_linear)"/>
<circle cx="52" cy="52" r="52" fill="url(#paint1_linear)"/>
<g clip-path="url(#clip0)">
    <path fill-rule="evenodd" clip-rule="evenodd" d="M54.0439 34.7676C52.6835 34.7495 47.1479 41.5541 47.7075 42.8394C47.9123 43.3096 48.7099 42.6588 49.211 42.5685C48.3519 45.7105 42.5834 51.2379 42.406 49.6093C41.8387 44.4005 50.5281 35.6811 53.5606 33.2508L53.5069 32.3299C49.3184 32.9257 43.3292 35.0182 40.1361 38.8306C36.1052 43.6435 33.2475 50.1364 33.3165 56.4368C33.4321 67.0025 43.5589 71.6044 52.9162 71.4427C60.6306 71.3093 69.4168 68.1424 71.1713 66.3563C72.1798 60.1446 61.7756 60.3785 57.3732 60.9331C58.0057 59.2177 59.6939 57.5022 62.0449 55.7867C64.676 54.8929 75.0499 54.8897 76.2211 58.5496C78.6303 66.0775 60.3966 77.6843 47.7075 76.9683C37.2758 76.3797 27.9353 72.6595 28.0003 61.0415C28.0502 52.1261 33.8608 43.5906 40.0287 37.2055C45.4147 31.6298 51.5563 27.5369 60.8635 27.021C65.9221 26.7405 71.3626 29.2628 71.8715 35.3094C72.5957 43.9137 56.3779 58.8746 54.0438 56.4369C50.6174 52.8583 54.2049 41.9366 54.0438 34.7677L54.0439 34.7676ZM66.4481 40.7537C66.2947 36.8829 64.6045 33.7654 59.2526 32.9528C59.5032 39.0022 56.6159 45.4611 58.8596 50.5106C59.9725 53.0153 66.6719 46.3995 66.4481 40.7537Z" fill="white"/>
</g>
<defs>
    <linearGradient id="paint0_linear" x1="75" y1="104" x2="29" y2="104" gradientUnits="userSpaceOnUse">
        <stop stop-color="#0F4C81"/>
        <stop offset="1" stop-color="#6D5B97"/>
    </linearGradient>
    <linearGradient id="paint1_linear" x1="-7.7486e-07" y1="52" x2="104" y2="52" gradientUnits="userSpaceOnUse">
        <stop stop-color="#0F4C81"/>
        <stop offset="1" stop-color="#6D5B97"/>
    </linearGradient>
    <clipPath id="clip0">
        <rect x="28" y="27" width="48.4375" height="50" fill="white"/>
    </clipPath>
</defs>
</svg>

