<svg width="62" height="64" viewBox="0 0 62 64" fill="none" xmlns="http://www.w3.org/2000/svg">
<path fill-rule="evenodd" clip-rule="evenodd" d="M33.3361 9.94275C31.5949 9.9196 24.5093 18.6295 25.2256 20.2746C25.4877 20.8765 26.5086 20.0435 27.1501 19.9279C26.0504 23.9497 18.6668 31.0247 18.4397 28.9402C17.7135 22.2729 28.836 11.112 32.7175 8.00127L32.6488 6.82246C27.2876 7.58519 19.6214 10.2635 15.5342 15.1434C10.3747 21.3039 6.71681 29.6148 6.80507 37.6794C6.9531 51.2035 19.9153 57.0939 31.8928 56.8869C41.7672 56.7162 53.0136 52.6626 55.2593 50.3763C56.5502 42.4253 43.2328 42.7248 37.5976 43.4347C38.4073 41.2389 40.5682 39.0431 43.5774 36.8473C46.9453 35.7032 60.2238 35.6991 61.723 40.3837C64.8067 50.0195 41.4677 64.8761 25.2256 63.9597C11.8731 63.2063 -0.0827652 58.4444 0.000431644 43.5734C0.0642967 32.1617 7.50188 21.2362 15.3967 13.0632C22.2908 5.92636 30.152 0.687442 42.0652 0.0270627C48.5403 -0.331865 55.5041 2.89669 56.1556 10.6363C57.0825 21.6498 36.3237 40.7997 33.3361 37.6794C28.9502 33.0989 33.5423 19.1191 33.3361 9.94291L33.3361 9.94275ZM49.2136 17.605C49.0172 12.6504 46.8538 8.65996 40.0034 7.61985C40.3241 15.363 36.6284 23.6305 39.5003 30.0939C40.9248 33.2999 49.5001 24.8316 49.2136 17.605Z" fill="#658DC6"/>
</svg>
