<svg width="56" height="56" viewBox="0 0 56 56" fill="none" xmlns="http://www.w3.org/2000/svg">
<path d="M32.0164 53.0054H24.8807C24.3173 53.0054 23.8617 53.4615 23.8617 54.0243C23.8617 54.5872 24.3173 55.0439 24.8807 55.0439H32.0164C32.5798 55.0439 33.0353 54.5872 33.0353 54.0243C33.0353 53.4615 32.5798 53.0054 32.0164 53.0054Z" fill="white"/>
<path d="M27.5754 48.9179C27.6582 48.9232 27.7405 48.9261 27.8233 48.9261C29.1864 48.9261 30.6014 48.2367 32.0362 46.8736C32.4445 46.4863 32.4608 45.8406 32.0729 45.4323C31.6868 45.0258 31.0417 45.0083 30.6329 45.3956C29.5357 46.4361 28.5244 46.936 27.702 46.8829C26.9746 46.838 26.2385 46.3685 25.5153 45.4878C25.1595 45.0526 24.5179 44.9891 24.0805 45.3466C23.6453 45.7036 23.5829 46.3457 23.9405 46.7809C25.037 48.1177 26.2595 48.8369 27.5754 48.9179Z" fill="white"/>
<path d="M44.3408 30.3193C40.511 27.9064 36.3669 27.6188 32.0222 29.4654C31.5043 29.6859 31.2628 30.2849 31.4833 30.8023C31.7031 31.3208 32.3039 31.5617 32.8201 31.3418C36.5664 29.7489 39.9785 29.9799 43.2536 32.0441C43.4227 32.1502 43.6099 32.201 43.796 32.201C44.1343 32.201 44.4662 32.033 44.6592 31.725C44.9596 31.2491 44.8161 30.6191 44.3408 30.3193Z" fill="white"/>
<path d="M24.2554 31.725C24.5564 31.2491 24.4129 30.6192 23.937 30.3188C20.1067 27.9052 15.9614 27.6189 11.6184 29.4655C11.101 29.686 10.859 30.2844 11.08 30.8029C11.2988 31.3208 11.8995 31.5611 12.4169 31.3418C16.1597 29.7489 19.573 29.9782 22.8498 32.0441C23.0195 32.1502 23.2061 32.201 23.3928 32.201C23.7311 32.201 24.0624 32.033 24.2554 31.725Z" fill="white"/>
<path d="M15.2527 18.9176C15.4522 19.1165 15.7129 19.2163 15.9736 19.2163C16.2344 19.2163 16.4951 19.1165 16.6946 18.9176C20.0868 15.5254 23.4879 14.9293 23.5409 14.9205C23.6535 14.9024 23.7532 14.8558 23.8495 14.8056C26.3517 17.4163 30.6772 20.1349 38.1062 21.0635C38.1488 21.0687 38.192 21.0716 38.2334 21.0716C38.7402 21.0716 39.1794 20.6943 39.2442 20.1787C39.3136 19.6199 38.9176 19.1107 38.3588 19.0407C24.5191 17.3107 22.6141 9.08436 22.5366 8.71807C22.4246 8.16922 21.8973 7.81459 21.3379 7.92308C20.7862 8.03332 20.428 8.57051 20.5383 9.12228C20.5721 9.28967 20.9442 10.9992 22.4263 13.0914C21.0632 13.474 18.1574 14.5711 15.2527 17.4764C14.8549 17.8748 14.8549 18.5199 15.2527 18.9176Z" fill="white"/>
<path d="M53.4222 47.1659C52.8588 47.1659 52.4027 47.6226 52.4027 48.1854V53.9615H46.3507C45.7873 53.9615 45.3312 54.4176 45.3312 54.9805C45.3312 55.5439 45.7873 56 46.3507 56H53.4222C53.9857 56 54.4412 55.5439 54.4412 54.9805V48.1854C54.4412 47.6226 53.9857 47.1659 53.4222 47.1659Z" fill="white"/>
<path d="M9.31392 53.9615H3.53842V47.6319C3.53842 47.069 3.08289 46.6123 2.51946 46.6123C1.95602 46.6123 1.49991 47.069 1.49991 47.6319V54.9804C1.49991 55.5439 1.95602 56 2.51946 56H9.31392C9.87736 56 10.3335 55.5439 10.3335 54.9804C10.3335 54.4176 9.87736 53.9615 9.31392 53.9615Z" fill="white"/>
<path d="M21.538 35.7268H15.9736C15.4102 35.7268 14.9541 36.1835 14.9541 36.7464C14.9541 37.3092 15.4102 37.7653 15.9736 37.7653H21.538C22.1014 37.7653 22.5576 37.3092 22.5576 36.7464C22.5576 36.1835 22.1014 35.7268 21.538 35.7268Z" fill="white"/>
<path d="M53.589 20.4009L48.3076 19.5202C47.8515 8.67958 38.8896 0 27.9388 0C16.9868 0 8.0249 8.67958 7.56996 19.5213L2.34973 20.4003C1.8592 20.4837 1.49991 20.9077 1.49991 21.4059V28.2009C1.49991 28.7638 1.95544 29.2204 2.51887 29.2204C3.08231 29.2204 3.53842 28.7638 3.53842 28.2009V22.2679L8.74057 21.3919C9.2311 21.309 9.59039 20.8838 9.59039 20.3863C9.59039 10.269 17.822 2.03851 27.9388 2.03851C38.0549 2.03851 46.2866 10.269 46.2866 20.3863C46.2866 20.8844 46.647 21.3102 47.1387 21.3919L52.4027 22.2691V28.7544C52.4027 29.3173 52.8582 29.7734 53.4216 29.7734C53.9851 29.7734 54.4412 29.3173 54.4412 28.7544V21.4053C54.4412 20.9077 54.0813 20.482 53.589 20.4009Z" fill="white"/>
<path d="M37.6227 32.6185C35.6554 32.6185 34.0549 34.219 34.0549 36.1864C34.0549 38.1531 35.6554 39.7536 37.6227 39.7536C39.5895 39.7536 41.19 38.1531 41.19 36.1864C41.19 34.219 39.5895 32.6185 37.6227 32.6185ZM37.6227 37.7151C36.7793 37.7151 36.0934 37.0292 36.0934 36.1864C36.0934 35.343 36.7793 34.657 37.6227 34.657C38.4655 34.657 39.1515 35.343 39.1515 36.1864C39.1515 37.0292 38.4655 37.7151 37.6227 37.7151Z" fill="white"/>
</svg>
