<svg width="56" height="56" viewBox="0 0 56 56" fill="none" xmlns="http://www.w3.org/2000/svg">
<path d="M53.6091 19.5356L48.9204 18.598C48.6099 17.6085 48.2116 16.6474 47.7318 15.7293L50.3844 11.7505C51.168 10.5749 51.0119 8.99686 50.0127 7.99761L48.0024 5.9873C47.0034 4.98816 45.4252 4.83164 44.2495 5.61564L40.2707 8.2682C39.3525 7.78837 38.3913 7.39014 37.402 7.07962L36.4642 2.39094C36.1872 1.00548 34.9607 0 33.548 0H30.7048C29.2921 0 28.0654 1.00548 27.7884 2.39094L26.8506 7.07962C25.8612 7.39014 24.9 7.78837 23.9819 8.2682L20.0031 5.61564C18.8275 4.83197 17.2491 4.98805 16.2502 5.98708L14.2398 7.99761C13.2408 8.99664 13.0847 10.5748 13.8683 11.7503L16.5209 15.7291C16.0411 16.6473 15.6428 17.6084 15.3323 18.5978L10.6436 19.5355C9.25828 19.8126 8.25269 21.039 8.25269 22.452V25.2949C8.25269 26.7077 9.25817 27.9344 10.6436 28.2114L13.6793 28.8185C14.1583 28.914 14.624 28.6036 14.7197 28.1248C14.8154 27.646 14.5049 27.1801 14.026 27.0844L10.9903 26.4774C10.4288 26.3653 10.0212 25.8678 10.0212 25.2952V22.4522C10.0212 21.8795 10.4288 21.382 10.9903 21.2698L16.2015 20.2276C16.5279 20.1623 16.79 19.9193 16.8796 19.5987C17.2192 18.3846 17.7049 17.213 18.3226 16.1162C18.486 15.8261 18.4726 15.4688 18.288 15.1917L15.3397 10.7694C15.022 10.2928 15.0855 9.65289 15.4905 9.24809L17.5009 7.23756C17.9059 6.83255 18.5456 6.76933 19.0222 7.08706L23.4445 10.0352C23.7215 10.2199 24.0788 10.2332 24.369 10.0699C25.4659 9.45208 26.6375 8.96667 27.8515 8.62706C28.1721 8.53737 28.415 8.27542 28.4804 7.94894L29.5226 2.73777C29.635 2.17613 30.1322 1.76848 30.7049 1.76848H33.5481C34.1208 1.76848 34.6181 2.17613 34.7303 2.73777L35.7725 7.94894C35.8378 8.27542 36.0809 8.53737 36.4014 8.62706C37.6153 8.96667 38.787 9.45208 39.8839 10.0699C40.1741 10.2332 40.5313 10.2199 40.8084 10.0352L45.2308 7.08695C45.7074 6.76922 46.3472 6.83244 46.7521 7.23767L48.7625 9.24798C49.1676 9.65311 49.2308 10.2928 48.9132 10.7694L45.965 15.1917C45.7802 15.4688 45.7668 15.8261 45.9303 16.1162C46.548 17.213 47.0336 18.3846 47.3733 19.5987C47.463 19.9193 47.725 20.1622 48.0514 20.2276L53.2626 21.2698C53.8242 21.382 54.2318 21.8795 54.2318 22.4522V25.2952C54.2318 25.8678 53.8241 26.3653 53.2626 26.4775L48.0514 27.5197C47.725 27.585 47.463 27.8281 47.3733 28.1485C47.0337 29.3624 46.5482 30.534 45.9303 31.631C45.7669 31.9212 45.7803 32.2784 45.965 32.5555L48.9132 36.9778C49.2309 37.4544 49.1675 38.0943 48.7625 38.4991L46.752 40.5097C46.347 40.9147 45.7074 40.9779 45.2307 40.6602L40.8084 37.7121C40.4022 37.4411 39.8531 37.5508 39.5823 37.9573C39.3114 38.3635 39.4213 38.9126 39.8275 39.1834L44.2499 42.1316C44.751 42.4657 45.3251 42.629 45.8967 42.629C46.6656 42.629 47.4296 42.3333 48.0026 41.7601L50.013 39.7496C51.012 38.7506 51.1682 37.1724 50.3845 35.997L47.7319 32.0181C48.2118 31.0998 48.61 30.1387 48.9205 29.1494L53.6092 28.2119C54.9945 27.9347 56.0001 26.7082 56.0001 25.2954V22.4524C56 21.0393 54.9945 19.8128 53.6091 19.5356Z" fill="white"/>
<path d="M35.0737 30.6527H26.821C26.3327 30.6527 25.9369 31.0484 25.9369 31.5369C25.9369 32.0253 26.3328 32.421 26.821 32.421H35.0737C35.8864 32.421 36.5474 33.0821 36.5474 33.8948V35.0737C36.5474 35.8864 35.8864 36.5474 35.0737 36.5474H26.821C26.3327 36.5474 25.9369 36.9433 25.9369 37.4316C25.9369 37.9201 26.3328 38.3158 26.821 38.3158H35.0737C35.8864 38.3158 36.5474 38.9769 36.5474 39.7895V40.9685C36.5474 41.7811 35.8864 42.4422 35.0737 42.4422H26.821C26.3327 42.4422 25.9369 42.8379 25.9369 43.3264C25.9369 43.8149 26.3328 44.2106 26.821 44.2106H35.0737C35.8864 44.2106 36.5474 44.8716 36.5474 45.6843V46.8632C36.5474 47.6759 35.8864 48.337 35.0737 48.337H26.821C26.3327 48.337 25.9369 48.7327 25.9369 49.2211C25.9369 49.7096 26.3328 50.1053 26.821 50.1053H35.0737C35.8864 50.1053 36.5474 50.7664 36.5474 51.5791V52.758C36.5474 53.5707 35.8864 54.2317 35.0737 54.2317H19.0568C18.2208 54.2317 17.4339 53.9069 16.8413 53.3173C15.9059 52.3866 14.671 51.8738 13.3643 51.8738H11.2V42.1475C11.2 41.6591 10.8041 41.2634 10.3158 41.2634C9.82756 41.2634 9.43162 41.6591 9.43162 42.1475V53.937C9.43162 54.0995 9.29939 54.2317 9.13686 54.2317H6.48419V42.1473C6.48419 41.6588 6.08825 41.2631 5.6 41.2631C5.11175 41.2631 4.71581 41.6588 4.71581 42.1473V54.2315H2.06314C1.90072 54.2315 1.76837 54.0994 1.76837 53.9367V33.8948C1.76837 33.7322 1.90061 33.6 2.06314 33.6H9.13686C9.29928 33.6 9.43162 33.7321 9.43162 33.8948V38.6106C9.43162 39.099 9.82756 39.4948 10.3158 39.4948C10.8041 39.4948 11.2 39.099 11.2 38.6106V35.9579H13.3319C14.7295 35.9579 15.9656 35.0669 16.4077 33.7411L16.7368 32.7532C17.7566 29.6945 18.2736 26.5087 18.2736 23.2842C18.2736 22.4715 18.9347 21.8105 19.7473 21.8105C20.456 21.8105 21.1221 22.0864 21.6231 22.5875C22.1242 23.0885 22.4 23.7546 22.4 24.4632V33.8945C22.4 34.3829 22.7959 34.7787 23.2842 34.7787C23.7725 34.7787 24.1684 34.383 24.1684 33.8945V24.4632C24.1684 23.2823 23.7086 22.1719 22.8735 21.3369C22.0384 20.5018 20.9281 20.0419 19.7471 20.0419C17.9594 20.0419 16.505 21.4963 16.505 23.284C16.505 26.318 16.0185 29.3157 15.059 32.1938L14.7296 33.1816C14.5287 33.7843 13.967 34.1893 13.3316 34.1893H11.2V33.8945C11.2 32.7569 10.2744 31.8314 9.13686 31.8314H2.06314C0.925641 31.8316 0 32.7571 0 33.8948V53.9368C0 55.0743 0.925641 56 2.06314 56H9.13686C10.2745 56 11.2 55.0743 11.2 53.9368V53.6421H13.3642C14.2003 53.6421 14.9921 53.972 15.5939 54.5708C16.5202 55.4924 17.75 56 19.0567 56H35.0737C36.8615 56 38.3158 54.5455 38.3158 52.7579V51.5789C38.3158 50.6509 37.9238 49.8126 37.2968 49.221C37.9238 48.6294 38.3158 47.7912 38.3158 46.8631V45.6842C38.3158 44.7561 37.9238 43.9179 37.2968 43.3263C37.9238 42.7347 38.3158 41.8964 38.3158 40.9684V39.7894C38.3158 38.8614 37.9238 38.0231 37.2968 37.4315C37.9238 36.8399 38.3158 36.0016 38.3158 35.0736V33.8947C38.3158 32.1071 36.8615 30.6527 35.0737 30.6527Z" fill="white"/>
<path d="M32.1235 28.4129C32.3553 28.4129 32.59 28.3951 32.8261 28.3582C35.2988 27.9721 36.9964 25.6465 36.6104 23.174C36.2246 20.7012 33.8984 19.0032 31.4263 19.3894C28.9535 19.7754 27.2559 22.1011 27.6419 24.5736C27.991 26.8102 29.9272 28.4128 32.1235 28.4129ZM31.6991 21.1365C33.2084 20.9021 34.6278 21.9372 34.8634 23.4464C35.099 24.9557 34.0628 26.3751 32.5536 26.6108C31.0445 26.8464 29.6249 25.8101 29.3893 24.3009C29.1537 22.7917 30.1899 21.3722 31.6991 21.1365Z" fill="white"/>
<path d="M40.1219 32.421C40.3548 32.421 40.5871 32.3297 40.7608 32.1483C43.3619 29.4303 44.5213 25.7422 43.9418 22.0295C43.6474 20.1435 42.9347 18.4078 41.8231 16.8711C41.537 16.4756 40.9843 16.3865 40.5884 16.6728C40.1928 16.959 40.104 17.5117 40.3901 17.9075C41.3364 19.2161 41.9436 20.6947 42.1945 22.3022C42.6882 25.4659 41.7 28.609 39.4831 30.9257C39.1454 31.2784 39.1577 31.8382 39.5105 32.1758C39.682 32.3397 39.9022 32.421 40.1219 32.421Z" fill="white"/>
<path d="M39.5001 15.5638C39.7941 15.1739 39.7164 14.6195 39.3263 14.3256C36.719 12.3599 33.5069 11.554 30.282 12.0583C26.5814 12.6358 23.4275 14.854 21.6288 18.1443C21.3945 18.5728 21.552 19.11 21.9804 19.3444C22.1151 19.418 22.2604 19.453 22.4038 19.4529C22.7166 19.4529 23.0198 19.2865 23.1804 18.9927C24.7135 16.1884 27.4013 14.2977 30.5547 13.8056C33.3028 13.3763 36.0399 14.0629 38.2617 15.7378C38.6518 16.0315 39.2062 15.9539 39.5001 15.5638Z" fill="white"/>
</svg>
