<svg width="72" height="72" viewBox="0 0 72 72" fill="none" xmlns="http://www.w3.org/2000/svg">
<g clip-path="url(#clip0)">
<path d="M1.44679 69.2482C1.6136 69.4649 1.87154 69.5921 2.14497 69.5921H13.8168C14.2203 69.5921 14.5722 69.3175 14.6703 68.9266L15.7823 64.5048C15.8476 64.2435 16.0821 64.0606 16.3509 64.0606H16.3532C18.6094 64.0698 20.1026 64.0784 20.2511 64.083C21.241 64.111 22.2006 63.7385 22.9119 63.05C23.6267 62.3616 24.0286 61.4112 24.0251 60.4195V57.1872H26.8379C27.3108 57.1872 27.7533 56.9545 28.0216 56.5647C28.2898 56.1755 28.3494 55.6791 28.1809 55.2371L25.8342 49.09C25.8325 48.3975 25.8267 46.8149 25.8135 46.6039C25.4375 39.4279 19.4578 33.831 12.2725 33.9308C12.1567 33.9319 12.0415 33.9348 11.9269 33.9388C7.69081 34.0872 3.83136 36.4105 1.71792 40.0848C-0.459144 43.7969 -0.57436 48.3683 1.41297 52.1853C1.78384 53.1059 2.71302 55.5828 2.80818 56.6094C3.23006 61.1424 1.31323 68.4119 1.29374 68.4847C1.22324 68.7495 1.27999 69.0315 1.44679 69.2482ZM3.24095 40.9698C5.05174 37.82 8.35975 35.8269 11.9911 35.6985C12.0908 35.6951 12.1911 35.6922 12.292 35.6917H12.425C18.6168 35.6773 23.7328 40.521 24.0561 46.7043C24.0641 46.8596 24.071 48.135 24.0738 49.2562C24.0744 49.3628 24.0945 49.4689 24.1329 49.568L26.3684 55.4263H23.1447C22.6586 55.4263 22.2642 55.8206 22.2642 56.3067V60.4195C22.2642 60.9337 22.0561 61.4261 21.6876 61.7849C21.3184 62.1432 20.8203 62.3375 20.3061 62.3232C20.0763 62.3157 17.7352 62.3054 16.3607 62.2997H16.3504C15.2739 62.2985 14.3355 63.0311 14.0747 64.0755L13.13 67.8323H3.27133C3.81015 65.5475 4.91588 60.2373 4.56221 56.4472C4.42407 54.962 3.17274 51.8385 3.03058 51.4872C3.02027 51.4608 3.00823 51.4356 2.99504 51.4103C1.26795 48.1212 1.36138 44.1741 3.24095 40.9698Z" fill="white"/>
<path d="M12.6697 9.55706H19.3127C19.7994 9.55706 20.1932 9.16268 20.1932 8.6766C20.1932 8.19051 19.7994 7.79614 19.3127 7.79614H12.6697C12.1837 7.79614 11.7893 8.19051 11.7893 8.6766C11.7893 9.16268 12.1837 9.55706 12.6697 9.55706Z" fill="white"/>
<path d="M22.936 9.55706H31.2402C31.7268 9.55706 32.1206 9.16268 32.1206 8.6766C32.1206 8.19051 31.7268 7.79614 31.2402 7.79614H22.936C22.4499 7.79614 22.0555 8.19051 22.0555 8.6766C22.0555 9.16268 22.4499 9.55706 22.936 9.55706Z" fill="white"/>
<path d="M25.9557 11.5708H12.6697C12.1837 11.5708 11.7893 11.9646 11.7893 12.4513C11.7893 12.9373 12.1837 13.3317 12.6697 13.3317H25.9557C26.4418 13.3317 26.8362 12.9373 26.8362 12.4513C26.8362 11.9646 26.4418 11.5708 25.9557 11.5708Z" fill="white"/>
<path d="M31.2402 11.5708H29.579C29.0929 11.5708 28.6985 11.9646 28.6985 12.4513C28.6985 12.9373 29.0929 13.3317 29.579 13.3317H31.2402C31.7268 13.3317 32.1206 12.9373 32.1206 12.4513C32.1206 11.9646 31.7268 11.5708 31.2402 11.5708Z" fill="white"/>
<path d="M19.9169 15.3448H12.6697C12.1837 15.3448 11.7893 15.7386 11.7893 16.2253C11.7893 16.7114 12.1837 17.1058 12.6697 17.1058H19.9169C20.403 17.1058 20.7974 16.7114 20.7974 16.2253C20.7974 15.7386 20.403 15.3448 19.9169 15.3448Z" fill="white"/>
<path d="M29.215 22.9611H35.858C36.344 22.9611 36.7384 22.5673 36.7384 22.0807C36.7384 21.5946 36.344 21.2002 35.858 21.2002H29.215C28.7289 21.2002 28.3345 21.5946 28.3345 22.0807C28.3345 22.5673 28.7289 22.9611 29.215 22.9611Z" fill="white"/>
<path d="M39.4818 22.9611H47.7854C48.2721 22.9611 48.6659 22.5673 48.6659 22.0807C48.6659 21.5946 48.2721 21.2002 47.7854 21.2002H39.4818C38.9958 21.2002 38.6014 21.5946 38.6014 22.0807C38.6014 22.5673 38.9958 22.9611 39.4818 22.9611Z" fill="white"/>
<path d="M29.215 26.7358H42.5009C42.987 26.7358 43.3814 26.3414 43.3814 25.8553C43.3814 25.3692 42.987 24.9749 42.5009 24.9749H29.215C28.7289 24.9749 28.3345 25.3692 28.3345 25.8553C28.3345 26.3414 28.7289 26.7358 29.215 26.7358Z" fill="white"/>
<path d="M47.7854 24.9749H46.1248C45.6387 24.9749 45.2444 25.3692 45.2444 25.8553C45.2444 26.3414 45.6387 26.7358 46.1248 26.7358H47.7854C48.2721 26.7358 48.6659 26.3414 48.6659 25.8553C48.6659 25.3692 48.2721 24.9749 47.7854 24.9749Z" fill="white"/>
<path d="M36.4627 28.7494H29.215C28.7289 28.7494 28.3345 29.1432 28.3345 29.6298C28.3345 30.1159 28.7289 30.5103 29.215 30.5103H36.4621C36.9482 30.5103 37.3426 30.1159 37.3426 29.6298C37.3426 29.1432 36.9482 28.7494 36.4621 28.7494H36.4627Z" fill="white"/>
<path d="M47.7854 28.7494H40.086C39.5993 28.7494 39.2055 29.1432 39.2055 29.6298C39.2055 30.1159 39.5993 30.5103 40.086 30.5103H47.7854C48.2721 30.5103 48.6659 30.1159 48.6659 29.6298C48.6659 29.1432 48.2721 28.7494 47.7854 28.7494Z" fill="white"/>
<path d="M40.1714 42.432C40.9963 43.1669 41.9673 43.7189 43.0203 44.0513C43.3218 44.1327 43.6434 44.0485 43.8663 43.8301C44.0887 43.6117 44.1793 43.2918 44.1042 42.9892C43.8256 41.8662 43.3619 38.6173 44.5576 37.0879C45.0122 36.5056 45.6863 36.2224 46.6155 36.2224H49.2196C51.3726 36.2195 53.1174 34.4752 53.1197 32.3222V18.8792C53.1174 16.7268 51.3726 14.9819 49.2196 14.9797H36.5739V5.6099C36.5716 3.45748 34.8268 1.71262 32.6738 1.71033H11.2356C9.08315 1.71262 7.33828 3.45748 7.33599 5.6099V20.4051C7.33828 22.5581 9.08257 24.303 11.2356 24.3053H12.6044C13.6849 24.3053 14.437 24.616 14.9041 25.2539C16.0242 26.785 15.3759 29.9331 15.032 31.0165C14.9271 31.3426 15.0216 31.6997 15.2733 31.9319C15.5255 32.164 15.8889 32.2294 16.2059 32.0987C17.3592 31.5897 18.4305 30.9127 19.3855 30.0896C21.3178 28.4049 22.2304 26.4136 22.047 24.3058H23.8812V32.3222C23.8835 34.4752 25.6284 36.2201 27.7814 36.2224H37.5593C37.5403 39.4175 38.9539 41.3567 40.1714 42.432ZM23.8818 18.8798V22.5449H21.7793C21.1086 22.5466 20.5107 22.9685 20.2849 23.6002C20.2293 23.7475 20.2144 23.9075 20.2408 24.0628C20.6959 26.6812 18.6839 28.5551 17.1494 29.576C17.3884 27.9738 17.4406 25.7429 16.3274 24.2181C15.5169 23.1078 14.2644 22.5455 12.6044 22.5455H11.2356C10.0547 22.5438 9.09748 21.5865 9.0969 20.4051V5.6099C9.09805 4.42965 10.0547 3.47239 11.2356 3.47124H32.6738C33.8546 3.47239 34.8119 4.42965 34.813 5.6099V14.9797H27.7814C25.629 14.9819 23.8841 16.7268 23.8818 18.8792V18.8798ZM25.6427 32.3228V18.8792C25.6439 17.6984 26.6006 16.7417 27.7814 16.7406H49.2196C50.4004 16.7417 51.3571 17.6984 51.3588 18.8792V32.3222C51.3577 33.5031 50.4004 34.4603 49.2196 34.4615H46.6155C45.1291 34.4615 43.9701 34.9802 43.1699 36.0034C41.9289 37.5912 41.9277 40.0532 42.1071 41.7C40.8432 40.8906 39.1889 39.1939 39.3288 35.8979C39.3443 35.5208 39.2061 35.1533 38.9464 34.8799C38.6908 34.6111 38.336 34.4598 37.9651 34.4615H27.7814C26.6006 34.4598 25.6439 33.5031 25.6427 32.3222V32.3228Z" fill="white"/>
<path d="M71.9997 47.3973C71.9997 45.4902 70.5357 43.9024 68.6349 43.7476C66.7341 43.5934 65.0334 44.9244 64.7256 46.8063C64.4184 48.6887 65.6072 50.4915 67.4587 50.95V54.1113C67.0511 53.9852 66.6327 53.9004 66.2085 53.858C65.5275 51.6379 63.4783 50.1212 61.1562 50.1183H57.4802V48.3631C57.479 47.391 56.6909 46.6034 55.7193 46.6022H51.5732V44.9003C51.5732 44.4137 51.1788 44.0199 50.6928 44.0199C50.2061 44.0199 49.8123 44.4137 49.8123 44.9003V46.6022H45.7408C44.7686 46.6034 43.9804 47.391 43.9798 48.3631V50.1183H40.3032C37.3867 50.1212 35.0239 52.4845 35.0205 55.4011V65.1319C35.0239 68.0479 37.3867 70.4112 40.3032 70.4147H61.1562C63.4783 70.4118 65.5281 68.8951 66.2091 66.675C68.894 66.4033 71.125 64.4865 71.7968 61.8732C72.4692 59.2594 71.4402 56.5039 69.2196 54.9706V50.95C70.8515 50.5431 71.9974 49.0791 71.9997 47.3973ZM45.7408 48.3631H55.7193V50.1183H45.7408V48.3631ZM61.1562 68.6538H40.3032C38.3589 68.6515 36.7837 67.0757 36.7814 65.1319V55.4011C36.7837 53.4567 38.3589 51.8809 40.3032 51.8792H61.1562C63.1005 51.8809 64.6757 53.4567 64.678 55.4011V65.1319C64.6757 67.0757 63.1005 68.6515 61.1562 68.6538ZM70.2388 60.2659C70.2359 62.5106 68.6429 64.4378 66.4389 64.8631V55.6693C68.6429 56.0946 70.2359 58.0218 70.2388 60.2665V60.2659ZM66.4389 47.3967C66.4389 46.3471 67.2896 45.4965 68.3386 45.4965C69.3881 45.4965 70.2388 46.3471 70.2388 47.3967C70.2388 48.4457 69.3881 49.2963 68.3391 49.2963C67.2902 49.2958 66.4401 48.4457 66.4389 47.3973V47.3967Z" fill="white"/>
<path d="M42.7469 56.7446C41.2886 56.7463 40.1072 57.9277 40.1055 59.386V60.8534C40.1055 61.3395 40.4999 61.7339 40.9859 61.7339H44.5078C44.9939 61.7339 45.3882 61.3395 45.3882 60.8534V59.386C45.3865 57.9277 44.2051 56.7463 42.7469 56.7446ZM43.6273 59.973H41.8664V59.386C41.8664 58.8993 42.2608 58.5055 42.7469 58.5055C43.2329 58.5055 43.6273 58.8993 43.6273 59.386V59.973Z" fill="white"/>
<path d="M58.7126 56.7446C57.2543 56.7463 56.0729 57.9277 56.0712 59.386V60.8534C56.0712 61.3395 56.4656 61.7339 56.9517 61.7339H60.4735C60.9596 61.7339 61.354 61.3395 61.354 60.8534V59.386C61.3522 57.9277 60.1708 56.7463 58.7126 56.7446ZM59.593 59.973H57.8321V59.386C57.8321 58.8993 58.2265 58.5055 58.7126 58.5055C59.1987 58.5055 59.593 58.8993 59.593 59.386V59.973Z" fill="white"/>
<path d="M54.2518 62.7839H47.2082C46.7215 62.7839 46.3277 63.1777 46.3277 63.6644C46.3277 66.0954 48.2984 68.0667 50.73 68.0667C53.161 68.0667 55.1323 66.0954 55.1323 63.6644C55.1323 63.1777 54.7379 62.7839 54.2518 62.7839ZM50.73 66.3058C49.6105 66.3046 48.6137 65.599 48.2394 64.5448H53.2201C52.8457 65.599 51.8489 66.304 50.73 66.3058Z" fill="white"/>
</g>
<defs>
<clipPath id="clip0">
<rect width="72" height="72" fill="white"/>
</clipPath>
</defs>
</svg>
