<svg width="56" height="56" viewBox="0 0 56 56" fill="none" xmlns="http://www.w3.org/2000/svg">
<path d="M47.871 2.25806H3.61282C3.11428 2.25806 2.70969 2.66213 2.70969 3.16119V20.9371C2.70969 21.4361 3.11428 21.8402 3.61282 21.8402C4.11136 21.8402 4.51596 21.4364 4.51596 20.9371V4.06459H46.9676V11.8311C46.9676 12.3302 47.3722 12.7342 47.8707 12.7342C48.3693 12.7342 48.7739 12.3302 48.7739 11.8311V3.16146C48.7741 2.66239 48.3695 2.25806 47.871 2.25806Z" fill="#F0EDE5"/>
<path d="M55.0966 11.2904H10.8387C10.3401 11.2904 9.93555 11.6945 9.93555 12.1935V20.842C9.93555 21.3411 10.3401 21.7451 10.8387 21.7451C11.3372 21.7451 11.7418 21.3411 11.7418 20.842V13.0967H54.1935V42.9031H45.2968C44.7982 42.9031 44.3936 43.3071 44.3936 43.8062C44.3936 44.3053 44.7982 44.7093 45.2968 44.7093H55.0969C55.5954 44.7093 56 44.3053 56 43.8062V12.1935C56 11.6945 55.5954 11.2904 55.0966 11.2904Z" fill="#F0EDE5"/>
<path d="M45.1613 20.3225H0.903136C0.404599 20.3225 0 20.7266 0 21.2256V52.8386C0 53.3377 0.404599 53.7417 0.903136 53.7417H45.161C45.6596 53.7417 46.0642 53.3377 46.0642 52.8386V21.2256C46.0644 20.7266 45.6598 20.3225 45.1613 20.3225ZM44.2582 51.9354H44.2579H1.80654V22.129H44.2582V51.9354Z" fill="#F0EDE5"/>
<path d="M26.6162 48.8381L22.3106 40.6747C22.1553 40.3802 21.8496 40.1952 21.5162 40.1934C21.5149 40.1934 21.513 40.1934 21.5117 40.1934C21.1799 40.1934 20.8751 40.3754 20.7168 40.667L14.3689 52.4088C14.1324 52.8484 14.2954 53.3961 14.7344 53.6332C14.8712 53.7063 15.018 53.7417 15.163 53.7417C15.4843 53.7417 15.7952 53.5705 15.9593 53.2675L21.5025 43.0136L25.0192 49.6812C25.2513 50.1223 25.7977 50.2901 26.2391 50.0588C26.6802 49.8265 26.8493 49.2803 26.6162 48.8381Z" fill="#F0EDE5"/>
<path d="M44.3301 52.3914L34.5518 35.2302C34.3919 34.9498 34.0948 34.7759 33.7719 34.774C33.4787 34.7881 33.1501 34.9426 32.9876 35.222L22.965 52.3835C22.8015 52.6621 22.8007 53.008 22.9613 53.2885C23.1222 53.569 23.4209 53.742 23.7443 53.742H43.5456C43.8676 53.742 44.1648 53.5708 44.3264 53.2932C44.4884 53.0143 44.4902 52.6711 44.3301 52.3914ZM25.3182 51.9355L33.7579 37.4848L41.9917 51.9355H25.3182Z" fill="#F0EDE5"/>
<path d="M15.3549 27.5483C12.3666 27.5483 9.93555 29.9794 9.93555 32.9677C9.93555 35.956 12.3666 38.387 15.3549 38.387C18.3432 38.387 20.7742 35.956 20.7742 32.9677C20.7742 29.9794 18.3432 27.5483 15.3549 27.5483ZM15.3549 36.5805C13.3629 36.5805 11.7421 34.96 11.7421 32.9677C11.7421 30.9751 13.3629 29.3549 15.3549 29.3549C17.3469 29.3549 18.9677 30.9754 18.9677 32.9677C18.9677 34.96 17.3469 36.5805 15.3549 36.5805Z" fill="#F0EDE5"/>
<path d="M24.3871 32.0643H22.5805C22.082 32.0643 21.6774 32.4684 21.6774 32.9675C21.6774 33.4665 22.082 33.8709 22.5805 33.8709H24.3871C24.8856 33.8709 25.2902 33.4668 25.2902 32.9677C25.2902 32.4687 24.8856 32.0643 24.3871 32.0643Z" fill="#F0EDE5"/>
<path d="M15.3549 23.0322C14.8564 23.0322 14.4518 23.4363 14.4518 23.9354V25.7419C14.4518 26.241 14.8564 26.645 15.3549 26.645C15.8534 26.645 16.258 26.241 16.258 25.7419V23.9354C16.258 23.4363 15.8534 23.0322 15.3549 23.0322Z" fill="#F0EDE5"/>
<path d="M15.3549 39.2903C14.8564 39.2903 14.4518 39.6944 14.4518 40.1934V42C14.4518 42.499 14.8564 42.9031 15.3549 42.9031C15.8534 42.9031 16.258 42.499 16.258 42V40.1934C16.258 39.6944 15.8534 39.2903 15.3549 39.2903Z" fill="#F0EDE5"/>
<path d="M8.12902 32.0643H6.32248C5.82394 32.0643 5.41934 32.4684 5.41934 32.9675C5.41934 33.4665 5.82394 33.8709 6.32248 33.8709H8.12902C8.62755 33.8709 9.03215 33.4668 9.03215 32.9677C9.03215 32.4687 8.62755 32.0643 8.12902 32.0643Z" fill="#F0EDE5"/>
</svg>
