<svg xmlns="http://www.w3.org/2000/svg" viewBox="0 0 100.25 100.321"><path d="M88.5 15.321h-10c-.176 0-.343.036-.5.092v-2.137a5.507 5.507 0 0 0-5.498-5.502A5.508 5.508 0 0 0 67 13.276v2.045H56.5c-.176 0-.343.036-.5.092v-2.135a5.505 5.505 0 0 0-5.499-5.499A5.506 5.506 0 0 0 45 13.278v2.043H34v-2.044c0-3.033-2.467-5.5-5.5-5.5s-5.5 2.467-5.5 5.5v2.044h-9.5a1.5 1.5 0 0 0-1.5 1.5v75a1.5 1.5 0 0 0 1.5 1.5h75a1.5 1.5 0 0 0 1.5-1.5v-75a1.5 1.5 0 0 0-1.5-1.5zM70 13.276a2.505 2.505 0 0 1 2.502-2.502A2.503 2.503 0 0 1 75 13.276v7.482a2.503 2.503 0 0 1-2.498 2.502A2.505 2.505 0 0 1 70 20.758v-7.482zm-22 .002a2.503 2.503 0 0 1 2.501-2.499A2.502 2.502 0 0 1 53 13.278v7.477a2.502 2.502 0 0 1-2.499 2.499A2.503 2.503 0 0 1 48 20.755v-7.477zm-22-.001c0-1.378 1.122-2.5 2.5-2.5s2.5 1.122 2.5 2.5v7.479c0 1.378-1.122 2.5-2.5 2.5s-2.5-1.122-2.5-2.5v-7.479zm61 77.044H15v-72h8v2.435c0 3.033 2.467 5.5 5.5 5.5s5.5-2.467 5.5-5.5v-2.435h11v2.434a5.506 5.506 0 0 0 5.501 5.499A5.505 5.505 0 0 0 56 20.755v-2.526c.157.056.324.092.5.092H67v2.437a5.508 5.508 0 0 0 5.502 5.502A5.507 5.507 0 0 0 78 20.758v-2.529c.157.056.324.092.5.092H87v72z"/><path d="M70.398 51.906l-12.462-1.812-5.574-11.292a1.498 1.498 0 0 0-2.69 0L44.1 50.094l-12.462 1.812a1.501 1.501 0 0 0-.831 2.559l9.017 8.789-2.129 12.412a1.501 1.501 0 0 0 2.177 1.582l11.146-5.861 11.147 5.861a1.504 1.504 0 0 0 1.58-.114c.462-.336.693-.904.597-1.468l-2.13-12.412 9.018-8.789a1.501 1.501 0 0 0-.832-2.559zm-10.844 9.75a1.5 1.5 0 0 0-.432 1.328l1.749 10.193-9.155-4.813a1.51 1.51 0 0 0-1.396 0l-9.153 4.813 1.749-10.193a1.5 1.5 0 0 0-.432-1.328l-7.406-7.219 10.235-1.487a1.5 1.5 0 0 0 1.129-.82l4.576-9.274 4.578 9.274a1.5 1.5 0 0 0 1.129.82l10.234 1.487-7.405 7.219z"/></svg>