<svg xmlns="http://www.w3.org/2000/svg" viewBox="0 0 100.353 100.353"><path d="M90.495 18.745a1.5 1.5 0 0 0-1.5-1.497h-.003l-78.108.164a1.499 1.499 0 0 0-1.497 1.503l.122 56.241a1.5 1.5 0 0 0 1.5 1.497h.003l21.532-.045-1.146 1.616a1.502 1.502 0 0 0 1.537 2.335l6.71-1.434 1.175 6.284a1.502 1.502 0 0 0 1.475 1.225 1.5 1.5 0 0 0 1.319-.787l5.011-9.273 3.696-.007 4.898 9.377a1.5 1.5 0 0 0 2.8-.397l1.266-6.267 6.682 1.527a1.5 1.5 0 0 0 1.57-2.311l-1.35-1.963 20.932-.043a1.5 1.5 0 0 0 1.498-1.503l-.122-56.242zM42.989 80.693l-.679-3.63a1.503 1.503 0 0 0-1.788-1.192l-4.452.951.388-.547c.224-.177.395-.414.489-.689l5.211-7.346a12.788 12.788 0 0 0 5.984 2.915l-1.553 2.875a1.497 1.497 0 0 0-.389.72l-3.211 5.943zm17.546-22.145a9.847 9.847 0 0 1-2.957 6.993 9.859 9.859 0 0 1-6.964 2.854h-.076a9.857 9.857 0 0 1-6.998-2.955 9.858 9.858 0 0 1-2.857-7.034c.04-5.45 4.488-9.859 9.93-9.859h.068c5.473.042 9.894 4.527 9.854 10.001 0-.001 0-.001 0 0zM50.247 73.572l.258-.478.249.477-.507.001zm10.204 2.442a1.497 1.497 0 0 0-1.804 1.165l-.731 3.623-5.021-9.615a12.775 12.775 0 0 0 6.029-2.829l5.961 8.668-4.434-1.012zm5.675-2.475l-5.105-7.424a12.795 12.795 0 0 0 2.514-7.546c.052-7.127-5.704-12.967-12.832-13.021h-.089c-7.086 0-12.879 5.741-12.931 12.838a12.813 12.813 0 0 0 2.409 7.581l-5.418 7.637-22.169.047-.115-53.241 75.108-.158.113 53.243-21.485.044z"/><path d="M64.459 29.209l-28.657-.205h-.011a1.5 1.5 0 0 0-.011 3l28.657.205h.011a1.5 1.5 0 0 0 .011-3zm-.05 6.769l-28.653-.204h-.011a1.5 1.5 0 0 0-.011 3l28.653.204h.011a1.5 1.5 0 0 0 .011-3z"/></svg>