<svg xmlns="http://www.w3.org/2000/svg" viewBox="0 0 100.353 100.353"><path d="M43.952 46.643h-.064V35.911a1.5 1.5 0 0 0-1.5-1.5h-1.915V19.986c0-.397-.158-.779-.439-1.061L28.371 7.256a1.499 1.499 0 1 0-2.561 1.061v26.094h-1.914a1.5 1.5 0 0 0-1.5 1.5v10.732h-.068a1.5 1.5 0 0 0-1.5 1.5v44.76a1.5 1.5 0 0 0 1.5 1.5h21.625a1.5 1.5 0 0 0 1.5-1.5v-44.76a1.5 1.5 0 0 0-1.501-1.5zM28.81 11.94l8.663 8.667v13.804H28.81V11.94zm-3.414 25.471h15.492v9.232H25.396v-9.232zm17.056 53.991H23.827v-41.76h18.624v41.76h.001zm32.915-41.691v-9.926a1.5 1.5 0 0 0-1.5-1.5h-5.773V26.549h2.92a1.5 1.5 0 1 0 0-3h-2.92v-3.507h2.92a1.5 1.5 0 1 0 0-3h-2.92v-3.509h2.92a1.5 1.5 0 1 0 0-3h-2.92V8.228a1.5 1.5 0 1 0-3 0v2.305h-2.92a1.5 1.5 0 1 0 0 3h2.92v3.509h-2.92a1.5 1.5 0 1 0 0 3h2.92v3.507h-2.92a1.5 1.5 0 1 0 0 3h2.92v11.736h-5.773a1.5 1.5 0 0 0-1.5 1.5v9.926a1.498 1.498 0 0 0-1.234 1.473v41.718a1.5 1.5 0 0 0 1.5 1.5h17.014a1.5 1.5 0 0 0 1.5-1.5V51.184c0-.737-.533-1.347-1.234-1.473zm-14.546-8.426h11.546v8.399H60.821v-8.399zm12.78 50.117H59.587V52.684h14.014v38.718z"/></svg>