<svg xmlns="http://www.w3.org/2000/svg" viewBox="0 0 100.353 100.353"><g fill="#231f20"><path d="M49.465 71.651c0-.886-.719-1.604-1.604-1.604H14.094c.834-14.664 13.025-26.338 27.891-26.338a27.812 27.812 0 0 1 15.112 4.439 1.605 1.605 0 0 0 1.74-2.697A31.02 31.02 0 0 0 41.984 40.5c-17.174 0-31.146 13.975-31.146 31.151 0 .886.719 1.604 1.604 1.604h35.417a1.604 1.604 0 0 0 1.606-1.604zm-8-33.72c9.96 0 18.063-8.104 18.063-18.066 0-9.955-8.104-18.054-18.063-18.054-9.953 0-18.051 8.099-18.051 18.054 0 9.962 8.098 18.066 18.051 18.066zm0-32.911c8.19 0 14.854 6.66 14.854 14.845 0 8.192-6.664 14.857-14.854 14.857-8.184 0-14.842-6.665-14.842-14.857 0-8.186 6.659-14.845 14.842-14.845z"/><path d="M90.958 89.211L80.619 74.174a15.216 15.216 0 0 0 3.075-9.087c.062-8.475-6.781-15.421-15.257-15.483-8.484-.059-15.422 6.793-15.483 15.267a15.273 15.273 0 0 0 2.956 9.124L45.345 88.887a1.606 1.606 0 0 0 1.644 2.498l8.287-1.771 1.454 7.777a1.604 1.604 0 0 0 2.988.468l8.486-15.702 8.263 15.821a1.603 1.603 0 0 0 2.995-.425l1.567-7.754 8.249 1.887a1.604 1.604 0 0 0 1.68-2.475zM68.335 52.813h.08c6.705.049 12.119 5.545 12.07 12.251v.001a12.06 12.06 0 0 1-3.622 8.568 12.083 12.083 0 0 1-8.532 3.499h-.092c-6.702-.046-12.119-5.538-12.076-12.239.049-6.678 5.502-12.08 12.172-12.08zm-9.283 39.53l-.924-4.939a1.605 1.605 0 0 0-1.913-1.274l-5.871 1.254 7.771-10.954a15.3 15.3 0 0 0 7.555 3.663l-6.618 12.25zm21.088-6.041a1.6 1.6 0 0 0-1.93 1.246l-.996 4.927-6.446-12.342a15.215 15.215 0 0 0 7.61-3.554l7.605 11.059-5.843-1.336z"/></g></svg>