<svg xmlns="http://www.w3.org/2000/svg" width="30" height="30" viewBox="-455 257 48 48"><path d="M-431 257.013c13.248 0 23.987 10.74 23.987 23.987s-10.74 23.987-23.987 23.987-23.987-10.74-23.987-23.987 10.739-23.987 23.987-23.987zm11.815 18.08c-.25-1.337-1.363-2.335-2.642-2.458-3.054-.196-6.119-.355-9.178-.357-3.059-.002-6.113.154-9.167.347-1.284.124-2.397 1.117-2.646 2.459a40.163 40.163 0 0 0 0 11.672c.249 1.342 1.362 2.454 2.646 2.577 3.055.193 6.107.39 9.167.39 3.058 0 6.126-.172 9.178-.37 1.279-.124 2.392-1.269 2.642-2.606a39.769 39.769 0 0 0 0-11.654zm-14.591 9.342v-7.115l6.627 3.558-6.627 3.557z"/></svg>