<svg width="50" height="51" viewBox="0 0 50 51" fill="none" xmlns="http://www.w3.org/2000/svg">
<path d="M0.5 16.998C0.5 13.2127 0.501062 10.4239 0.788435 8.2865C1.07387 6.16343 1.63351 4.75793 2.6967 3.69475C3.75989 2.63156 5.16538 2.07192 7.28845 1.78648C9.4259 1.49911 12.2146 1.49805 16 1.49805H34C37.7854 1.49805 40.5741 1.49911 42.7116 1.78648C44.8346 2.07192 46.2401 2.63156 47.3033 3.69475C48.3665 4.75793 48.9261 6.16343 49.2116 8.2865C49.4989 10.4239 49.5 13.2127 49.5 16.998V34.998C49.5 38.7834 49.4989 41.5721 49.2116 43.7096C48.9261 45.8327 48.3665 47.2382 47.3033 48.3013C46.2401 49.3645 44.8346 49.9242 42.7116 50.2096C40.5741 50.497 37.7854 50.498 34 50.498H16C12.2146 50.498 9.4259 50.497 7.28845 50.2096C5.16538 49.9242 3.75989 49.3645 2.6967 48.3013C1.63351 47.2382 1.07387 45.8327 0.788435 43.7096C0.501062 41.5721 0.5 38.7834 0.5 34.998V16.998Z" fill="white" stroke="#343232"/>
<path d="M27.0171 18.7051C26.7175 18.4197 26.2424 18.431 25.957 18.731C25.6712 19.031 25.6832 19.5057 25.9829 19.7915L31.7361 25.2481H16.75C16.336 25.2481 16 25.5841 16 25.9981C16 26.4121 16.336 26.7481 16.75 26.7481H31.7121L25.9829 32.2051C25.6829 32.4908 25.6712 32.9656 25.957 33.2656C26.1044 33.4201 26.302 33.4981 26.5 33.4981C26.686 33.4981 26.872 33.4295 27.0171 33.2911L33.5605 27.0586C33.844 26.7755 34 26.399 34 25.9981C34 25.5972 33.844 25.2207 33.5474 24.9248L27.0171 18.7051Z" fill="#343232"/>
</svg>
