<svg width="30" height="30" viewBox="0 0 30 30" fill="none" xmlns="http://www.w3.org/2000/svg">
<path d="M17.5214 5.88374C17.1469 5.52702 16.553 5.54109 16.1962 5.91609C15.8391 6.29109 15.8541 6.88452 16.2286 7.24171L23.4202 14.0625H4.6875C4.17 14.0625 3.75 14.4825 3.75 15C3.75 15.5175 4.17 15.9375 4.6875 15.9375H23.3902L16.2286 22.7587C15.8536 23.1159 15.8391 23.7094 16.1962 24.0844C16.3805 24.2775 16.6275 24.375 16.875 24.375C17.1075 24.375 17.34 24.2892 17.5214 24.1162L25.7006 16.3256C26.055 15.9717 26.25 15.5011 26.25 15C26.25 14.4989 26.055 14.0283 25.6842 13.6584L17.5214 5.88374Z" fill="#29ABE2"/>
</svg>
