<svg width="18" height="18" viewBox="0 0 18 18" fill="none" xmlns="http://www.w3.org/2000/svg">
<path d="M10.5128 3.53022C10.2881 3.31619 9.93178 3.32463 9.71775 3.54963C9.50344 3.77463 9.51244 4.13069 9.73716 4.345L14.0521 8.43747H2.8125C2.502 8.43747 2.25 8.68947 2.25 8.99997C2.25 9.31047 2.502 9.56247 2.8125 9.56247H14.0341L9.73716 13.6552C9.51216 13.8695 9.50344 14.2256 9.71775 14.4506C9.82828 14.5665 9.9765 14.625 10.125 14.625C10.2645 14.625 10.404 14.5735 10.5128 14.4697L15.4204 9.79535C15.633 9.583 15.75 9.30063 15.75 8.99997C15.75 8.69932 15.633 8.41694 15.4105 8.19503L10.5128 3.53022Z" fill="white"/>
</svg>
