<svg width="35" height="35" viewBox="0 0 35 35" fill="none" xmlns="http://www.w3.org/2000/svg">
<path d="M2.34352 0H32.6574C33.7746 0 34.6837 0.908975 34.6836 2.02631V32.9737C34.6836 34.091 33.7746 35 32.6574 35H2.34352C1.22626 35 0.317215 34.091 0.317284 32.9737V2.02631C0.317284 0.908975 1.22626 0 2.34352 0ZM1.34671 32.9737C1.34671 33.5234 1.79385 33.9706 2.34352 33.9706H32.6574C33.207 33.9706 33.6542 33.5234 33.6542 32.9737V2.02631C33.6542 1.47663 33.207 1.02942 32.6574 1.02942H2.34352C1.79385 1.02942 1.34671 1.47663 1.34671 2.02631V32.9737Z" fill="#29ABE2"/>
<path d="M4.74497 3.20215H11.0845C11.3688 3.20215 11.5992 3.43259 11.5992 3.71689C11.5992 4.00113 11.3688 4.23157 11.0845 4.23157H4.74497C4.62739 4.23157 4.53176 4.32721 4.53176 4.44472V10.3406C4.53176 10.4582 4.62739 10.5538 4.74497 10.5538H30.2574C30.3749 10.5538 30.4706 10.4582 30.4706 10.3406V4.44472C30.4706 4.32721 30.3749 4.23157 30.2574 4.23157H14.1727C13.8884 4.23157 13.658 4.00113 13.658 3.71689C13.658 3.43266 13.8884 3.20215 14.1727 3.20215H30.2574C30.9426 3.20215 31.5 3.75962 31.5 4.44472V10.3406C31.5 11.0258 30.9426 11.5832 30.2574 11.5832H4.7449C4.05967 11.5832 3.50226 11.0258 3.50226 10.3406V4.44472C3.50233 3.75955 4.05973 3.20215 4.74497 3.20215Z" fill="#29ABE2"/>
<path d="M24.1595 13.1616H30.2574C30.9426 13.1616 31.5 13.719 31.5 14.4043V20.5022C31.5 21.1874 30.9426 21.7448 30.2574 21.7448H24.1594C23.4742 21.7448 22.9168 21.1874 22.9168 20.5022V14.4043C22.9169 13.719 23.4743 13.1616 24.1595 13.1616ZM23.9462 20.5021H23.9463C23.9463 20.6197 24.0419 20.7153 24.1595 20.7153H30.2574C30.3749 20.7153 30.4706 20.6197 30.4706 20.5021V14.4042C30.4706 14.2866 30.3749 14.191 30.2574 14.191H24.1594C24.0419 14.191 23.9462 14.2866 23.9462 14.4042V20.5021Z" fill="#29ABE2"/>
<path d="M24.1595 23.2148H30.2574C30.9426 23.2148 31.5 23.7723 31.5 24.4575V25.8955C31.5 26.1797 31.2696 26.4102 30.9853 26.4102C30.7009 26.4102 30.4706 26.1797 30.4706 25.8955V24.4575C30.4706 24.3399 30.3749 24.2443 30.2574 24.2443H24.1594C24.0419 24.2443 23.9462 24.3399 23.9462 24.4575V30.5554C23.9462 30.6729 24.0419 30.7686 24.1594 30.7686H30.2574C30.3749 30.7686 30.4706 30.6729 30.4706 30.5554V29.0982C30.4706 28.814 30.701 28.5834 30.9853 28.5834C31.2696 28.5834 31.5 28.8139 31.5 29.0982V30.5554C31.5 31.2406 30.9426 31.798 30.2574 31.798H24.1594C23.4742 31.798 22.9168 31.2406 22.9168 30.5554V24.4575C22.9169 23.7723 23.4743 23.2148 24.1595 23.2148Z" fill="#29ABE2"/>
<path d="M14.4486 13.1616H20.5464C21.2317 13.1616 21.7891 13.719 21.7891 14.4043V20.5022C21.7891 21.1874 21.2317 21.7448 20.5464 21.7448H14.4486C13.7633 21.7448 13.2059 21.1874 13.2059 20.5022V14.4043C13.2059 13.719 13.7633 13.1616 14.4486 13.1616ZM14.2354 20.5021C14.2354 20.6197 14.331 20.7153 14.4486 20.7153H20.5464C20.664 20.7153 20.7596 20.6197 20.7596 20.5021V14.4042C20.7596 14.2866 20.664 14.191 20.5464 14.191H14.4486C14.331 14.191 14.2354 14.2866 14.2354 14.4042V20.5021Z" fill="#29ABE2"/>
<path d="M14.4486 23.2148H20.5464C21.2317 23.2148 21.7891 23.7723 21.7891 24.4575V30.5554C21.7891 31.2406 21.2317 31.798 20.5464 31.798H14.4486C13.7633 31.798 13.2059 31.2406 13.2059 30.5554V24.4575C13.2059 23.7723 13.7633 23.2148 14.4486 23.2148ZM14.2354 30.5553C14.2354 30.6728 14.331 30.7685 14.4486 30.7685H20.5464C20.664 30.7685 20.7596 30.6728 20.7596 30.5553V24.4574C20.7596 24.3398 20.664 24.2442 20.5464 24.2442H14.4486C14.331 24.2442 14.2354 24.3398 14.2354 24.4574V30.5553Z" fill="#29ABE2"/>
<path d="M4.75337 13.1616H10.8354C11.525 13.1616 12.0859 13.7226 12.0859 14.4121V30.5475C12.0859 31.237 11.525 31.798 10.8354 31.798H4.75337C4.06383 31.798 3.50287 31.237 3.50287 30.5475V14.4121C3.50287 13.7226 4.06383 13.1616 4.75337 13.1616ZM4.53229 30.5475C4.53229 30.6693 4.63148 30.7685 4.75337 30.7685H10.8354C10.9573 30.7685 11.0565 30.6693 11.0565 30.5475V14.4121C11.0565 14.2902 10.9573 14.191 10.8354 14.191H4.75337C4.63148 14.191 4.53229 14.2902 4.53229 14.4121V30.5475Z" fill="#29ABE2"/>
</svg>
