<svg width="13" height="9" viewBox="0 0 13 9" fill="none" xmlns="http://www.w3.org/2000/svg">
<path d="M0.129895 7.50901L0.781152 8.16022C0.86793 8.24718 0.967896 8.29053 1.08091 8.29053C1.19365 8.29053 1.29357 8.24718 1.38035 8.16022L6.49993 3.04091L11.6193 8.16008C11.7061 8.24705 11.806 8.29039 11.9189 8.29039C12.0318 8.29039 12.1317 8.24705 12.2185 8.16008L12.8697 7.50883C12.9567 7.42205 13 7.32213 13 7.20921C13 7.09637 12.9565 6.99645 12.8697 6.90967L6.79955 0.839397C6.71277 0.752573 6.61281 0.709182 6.49993 0.709182C6.38705 0.709182 6.28727 0.752573 6.20054 0.839397L0.129895 6.90967C0.0431156 6.9965 0 7.09642 0 7.20921C0 7.32213 0.0431156 7.42205 0.129895 7.50901Z" fill="#747474"/>
</svg>
