<svg width="14" height="14" viewBox="0 0 14 14" fill="none" xmlns="http://www.w3.org/2000/svg">
<g clip-path="url(#clip0)">
<path d="M7.77344 7.00002L13.8398 0.933603C14.0534 0.720021 14.0534 0.37374 13.8398 0.160186C13.6262 -0.0533681 13.28 -0.0533954 13.0664 0.160186L6.99999 6.2266L0.933603 0.160186C0.720021 -0.0533954 0.37374 -0.0533954 0.160186 0.160186C-0.0533681 0.373768 -0.0533954 0.720048 0.160186 0.933603L6.22658 6.99999L0.160186 13.0664C-0.0533954 13.28 -0.0533954 13.6263 0.160186 13.8398C0.266963 13.9466 0.406936 14 0.546908 14C0.686881 14 0.826826 13.9466 0.93363 13.8398L6.99999 7.77344L13.0664 13.8398C13.1732 13.9466 13.3131 14 13.4531 14C13.5931 14 13.733 13.9466 13.8398 13.8398C14.0534 13.6262 14.0534 13.28 13.8398 13.0664L7.77344 7.00002Z" fill="#747474"/>
</g>
<defs>
<clipPath id="clip0">
<rect width="14" height="14" fill="white"/>
</clipPath>
</defs>
</svg>
