<svg width="50" height="150" viewBox="0 0 50 150" fill="none" xmlns="http://www.w3.org/2000/svg">
<path d="M30.12 50.932C30.12 52.004 29.832 52.82 29.256 53.38C28.68 53.932 27.884 54.228 26.868 54.268C26.652 54.276 26.3 54.28 25.812 54.28C25.316 54.28 24.956 54.276 24.732 54.268C23.724 54.228 22.932 53.928 22.356 53.368C21.772 52.808 21.48 51.996 21.48 50.932C21.48 50.22 21.608 49.616 21.864 49.12C22.112 48.624 22.44 48.248 22.848 47.992C23.256 47.736 23.692 47.596 24.156 47.572H24.18C24.244 47.572 24.3 47.6 24.348 47.656C24.388 47.704 24.408 47.76 24.408 47.824V48.484C24.408 48.644 24.316 48.744 24.132 48.784C23.532 48.92 23.112 49.164 22.872 49.516C22.624 49.868 22.5 50.34 22.5 50.932C22.5 52.308 23.264 53.02 24.792 53.068C25.008 53.076 25.34 53.08 25.788 53.08C26.236 53.08 26.576 53.076 26.808 53.068C28.336 53.02 29.1 52.308 29.1 50.932C29.1 50.34 28.98 49.868 28.74 49.516C28.492 49.156 28.068 48.912 27.468 48.784C27.364 48.76 27.292 48.724 27.252 48.676C27.212 48.628 27.192 48.564 27.192 48.484V47.824C27.192 47.752 27.216 47.692 27.264 47.644C27.304 47.588 27.36 47.564 27.432 47.572C27.904 47.596 28.344 47.736 28.752 47.992C29.16 48.248 29.492 48.624 29.748 49.12C29.996 49.616 30.12 50.22 30.12 50.932ZM29.58 38.6198C29.612 38.5958 29.656 38.5838 29.712 38.5838C29.792 38.5838 29.86 38.6118 29.916 38.6678C29.972 38.7158 30 38.7798 30 38.8598V39.5438C30 39.6238 29.984 39.6878 29.952 39.7358C29.92 39.7758 29.876 39.8158 29.82 39.8558L26.28 42.1598V43.5878H29.724C29.804 43.5878 29.872 43.6158 29.928 43.6718C29.976 43.7278 30 43.7958 30 43.8758V44.4878C30 44.5678 29.976 44.6358 29.928 44.6918C29.872 44.7398 29.804 44.7638 29.724 44.7638H21.888C21.8 44.7638 21.732 44.7398 21.684 44.6918C21.628 44.6358 21.6 44.5678 21.6 44.4878V43.8758C21.6 43.7878 21.628 43.7198 21.684 43.6718C21.732 43.6158 21.8 43.5878 21.888 43.5878H25.2L25.212 42.2198L21.792 40.0958C21.664 40.0158 21.6 39.8798 21.6 39.6878V39.0398C21.6 38.8718 21.68 38.7878 21.84 38.7878C21.88 38.7878 21.932 38.8078 21.996 38.8478L25.668 41.1518L29.58 38.6198ZM30 35.612C30 35.692 29.976 35.76 29.928 35.816C29.872 35.864 29.804 35.888 29.724 35.888H21.888C21.8 35.888 21.732 35.864 21.684 35.816C21.628 35.76 21.6 35.692 21.6 35.612V32.564C21.6 31.66 21.82 30.948 22.26 30.428C22.7 29.908 23.336 29.648 24.168 29.648C25 29.648 25.636 29.908 26.076 30.428C26.508 30.94 26.724 31.652 26.724 32.564V34.688H29.724C29.804 34.688 29.872 34.716 29.928 34.772C29.976 34.828 30 34.896 30 34.976V35.612ZM25.716 32.624C25.716 32.04 25.584 31.6 25.32 31.304C25.056 31 24.672 30.848 24.168 30.848C23.664 30.848 23.28 30.996 23.016 31.292C22.744 31.588 22.608 32.032 22.608 32.624V34.7H25.716V32.624ZM30.12 23.9648C30.12 25.0128 29.848 25.8248 29.304 26.4008C28.752 26.9688 27.924 27.2688 26.82 27.3008C26.58 27.3088 26.24 27.3128 25.8 27.3128C25.36 27.3128 25.024 27.3088 24.792 27.3008C23.712 27.2688 22.892 26.9568 22.332 26.3648C21.764 25.7728 21.48 24.9728 21.48 23.9648C21.48 22.9648 21.764 22.1688 22.332 21.5768C22.892 20.9848 23.712 20.6728 24.792 20.6408C25.256 20.6248 25.592 20.6168 25.8 20.6168C26 20.6168 26.34 20.6248 26.82 20.6408C27.924 20.6728 28.752 20.9768 29.304 21.5528C29.848 22.1208 30.12 22.9248 30.12 23.9648ZM29.1 23.9648C29.1 23.3328 28.908 22.8288 28.524 22.4528C28.14 22.0768 27.552 21.8728 26.76 21.8408C26.28 21.8248 25.96 21.8168 25.8 21.8168C25.624 21.8168 25.304 21.8248 24.84 21.8408C24.048 21.8728 23.46 22.0808 23.076 22.4648C22.692 22.8408 22.5 23.3408 22.5 23.9648C22.5 24.5968 22.692 25.1048 23.076 25.4888C23.46 25.8648 24.048 26.0688 24.84 26.1008C25.072 26.1088 25.392 26.1128 25.8 26.1128C26.2 26.1128 26.52 26.1088 26.76 26.1008C27.552 26.0688 28.14 25.8648 28.524 25.4888C28.908 25.1048 29.1 24.5968 29.1 23.9648ZM30 12.3129C30 12.3929 29.976 12.4609 29.928 12.5169C29.872 12.5649 29.804 12.5889 29.724 12.5889H22.68V15.5649H24.612C25.9 15.5649 26.928 15.6569 27.696 15.8409C28.464 16.0249 29.028 16.3129 29.388 16.7049C29.748 17.0969 29.948 17.6169 29.988 18.2649C29.996 18.3449 29.972 18.4129 29.916 18.4689C29.86 18.5249 29.788 18.5529 29.7 18.5529H29.172C29.1 18.5529 29.04 18.5329 28.992 18.4929C28.936 18.4449 28.904 18.3809 28.896 18.3009C28.824 17.7809 28.44 17.3889 27.744 17.1249C27.048 16.8529 25.952 16.7169 24.456 16.7169H21.876C21.796 16.7169 21.732 16.6929 21.684 16.6449C21.628 16.5889 21.6 16.5209 21.6 16.4409V11.6889C21.6 11.6089 21.628 11.5449 21.684 11.4969C21.732 11.4409 21.8 11.4129 21.888 11.4129H29.724C29.804 11.4129 29.872 11.4409 29.928 11.4969C29.976 11.5449 30 11.6089 30 11.6889V12.3129ZM30 2.65197C30 2.73197 29.976 2.79997 29.928 2.85597C29.872 2.90397 29.804 2.92797 29.724 2.92797H22.68V5.90397H24.612C25.9 5.90397 26.928 5.99597 27.696 6.17997C28.464 6.36397 29.028 6.65197 29.388 7.04397C29.748 7.43597 29.948 7.95597 29.988 8.60397C29.996 8.68397 29.972 8.75197 29.916 8.80797C29.86 8.86397 29.788 8.89197 29.7 8.89197H29.172C29.1 8.89197 29.04 8.87197 28.992 8.83197C28.936 8.78397 28.904 8.71997 28.896 8.63997C28.824 8.11997 28.44 7.72797 27.744 7.46397C27.048 7.19197 25.952 7.05597 24.456 7.05597H21.876C21.796 7.05597 21.732 7.03197 21.684 6.98397C21.628 6.92797 21.6 6.85997 21.6 6.77997V2.02797C21.6 1.94797 21.628 1.88397 21.684 1.83597C21.732 1.77997 21.8 1.75197 21.888 1.75197H29.724C29.804 1.75197 29.872 1.77997 29.928 1.83597C29.976 1.88397 30 1.94797 30 2.02797V2.65197Z" fill="white"/>
<path d="M25.7071 132.707C25.3166 133.098 24.6834 133.098 24.2929 132.707L17.9289 126.343C17.5384 125.953 17.5384 125.319 17.9289 124.929C18.3195 124.538 18.9526 124.538 19.3431 124.929L25 130.586L30.6569 124.929C31.0474 124.538 31.6805 124.538 32.0711 124.929C32.4616 125.319 32.4616 125.953 32.0711 126.343L25.7071 132.707ZM26 69L26 132L24 132L24 69L26 69Z" fill="#CDCDCD"/>
<path d="M0.5 116C0.5 112.215 0.501062 109.426 0.788435 107.288C1.07387 105.165 1.63351 103.76 2.6967 102.697C3.75989 101.634 5.16538 101.074 7.28845 100.788C9.4259 100.501 12.2146 100.5 16 100.5H34C37.7854 100.5 40.5741 100.501 42.7116 100.788C44.8346 101.074 46.2401 101.634 47.3033 102.697C48.3665 103.76 48.9261 105.165 49.2116 107.288C49.4989 109.426 49.5 112.215 49.5 116V134C49.5 137.785 49.4989 140.574 49.2116 142.712C48.9261 144.835 48.3665 146.24 47.3033 147.303C46.2401 148.366 44.8346 148.926 42.7116 149.212C40.5741 149.499 37.7854 149.5 34 149.5H16C12.2146 149.5 9.4259 149.499 7.28845 149.212C5.16538 148.926 3.75989 148.366 2.6967 147.303C1.63351 146.24 1.07387 144.835 0.788435 142.712C0.501062 140.574 0.5 137.785 0.5 134V116Z" stroke="#9C9C9C"/>
</svg>
