<svg width="25" height="25" viewBox="0 0 25 25" fill="none" xmlns="http://www.w3.org/2000/svg">
<g clip-path="url(#clip0)">
<path d="M9.89559 19.7939C4.43941 19.7939 0 15.3545 0 9.89852C0 4.44234 4.43941 0.00292969 9.89559 0.00292969C15.3516 0.00292969 19.791 4.44234 19.791 9.89852C19.791 15.3545 15.3516 19.7939 9.89559 19.7939ZM9.89559 1.56538C5.30093 1.56538 1.56245 5.30386 1.56245 9.89852C1.56245 14.4932 5.30093 18.2315 9.89559 18.2315C14.4902 18.2315 18.2285 14.4932 18.2285 9.89852C18.2285 5.30386 14.4902 1.56538 9.89559 1.56538Z" fill="white"/>
<path d="M24.2182 25C24.0181 25 23.8182 24.9239 23.666 24.771L15.7914 16.8962C15.4862 16.591 15.4862 16.0962 15.7914 15.7909C16.0965 15.4857 16.5913 15.4857 16.8965 15.7909L24.7713 23.6657C25.0764 23.9709 25.0764 24.4656 24.7713 24.771C24.6181 24.9239 24.4182 25 24.2182 25Z" fill="white"/>
</g>
<defs>
<clipPath id="clip0">
<rect width="25" height="25" fill="white"/>
</clipPath>
</defs>
</svg>
