<svg width="35" height="35" viewBox="0 0 35 35" fill="none" xmlns="http://www.w3.org/2000/svg">
<g clip-path="url(#clip0)">
<path d="M33.688 13.5543C33.688 11.3253 32.8202 9.23036 31.2445 7.65536L26.8442 3.25438C26.6439 3.05423 26.3193 3.05409 26.1192 3.25432C25.9189 3.45454 25.9189 3.77911 26.1191 3.9794L30.5195 8.38052C31.3524 9.213 31.9598 10.2111 32.311 11.3008C31.4176 10.3748 30.1645 9.79795 28.7792 9.79795H26.103C24.8828 9.79795 23.8902 8.80496 23.8902 7.58447V4.90889C23.8902 3.52871 23.3177 2.27979 22.3976 1.38701C23.1488 1.6316 23.8608 1.99616 24.4963 2.46839C24.7235 2.63724 25.0447 2.59 25.2136 2.3627C25.3825 2.13541 25.3351 1.81426 25.1079 1.64541C23.6802 0.584473 21.9139 0.000136719 20.1344 0C20.1343 0 20.1342 0 20.1342 0H20.1338H8.05506C6.26951 0 4.81688 1.45298 4.81688 3.23887V10.2307H4.14388C2.58262 10.2307 1.3125 11.5009 1.3125 13.0621V26.3378C1.3125 27.899 2.58269 29.1692 4.14388 29.1692H4.8689L4.89132 32.4004C4.89159 32.4394 4.89631 32.4782 4.90533 32.516C5.25479 33.9786 6.54999 35 8.05506 35H30.4496C32.2351 35 33.6878 33.547 33.6878 31.7611L33.688 13.5543ZM4.14388 11.2561H4.81688V14.8681H4.14388C3.14802 14.8681 2.33789 14.0579 2.33789 13.0621C2.33789 12.0663 3.14802 11.2561 4.14388 11.2561ZM30.4495 33.9746H8.05499C7.04498 33.9746 6.1734 33.3019 5.91623 32.3317L5.89429 29.1692H22.5225C24.7796 29.1692 26.6159 27.3329 26.6159 25.0758V18.9615C26.6159 16.7044 24.7796 14.8682 22.5225 14.8682H10.8776C10.5944 14.8682 10.3649 15.0977 10.3649 15.3809C10.3649 15.664 10.5944 15.8936 10.8776 15.8936H22.5226C24.2143 15.8936 25.5906 17.2698 25.5906 18.9615V25.0758C25.5906 26.7675 24.2143 28.1438 22.5226 28.1438H4.14388C3.14802 28.1438 2.33789 27.3336 2.33789 26.3378V15.2409C2.82844 15.6482 3.45803 15.8935 4.14388 15.8935H8.82677C9.10991 15.8935 9.33946 15.6639 9.33946 15.3808C9.33946 15.0976 9.10991 14.8681 8.82677 14.8681H5.84227V3.23887C5.84227 2.01838 6.83491 1.02539 8.05506 1.02539H18.9813C21.1226 1.02539 22.8648 2.76753 22.8648 4.90889V7.58447C22.8648 9.37036 24.3174 10.8233 26.103 10.8233H28.7792C30.9162 10.8233 32.6552 12.5584 32.6624 14.6936V31.7611C32.6624 32.9816 31.6697 33.9746 30.4495 33.9746Z" fill="#29ABE2"/>
<path d="M13.5004 25.7706C13.537 25.7769 13.577 25.7838 14.2832 25.7838C14.6283 25.7838 15.1327 25.7821 15.8735 25.778C16.1567 25.7764 16.3849 25.5456 16.3834 25.2624C16.3818 24.9793 16.1524 24.749 15.8678 24.7526C15.3411 24.7556 14.5878 24.7584 14.0996 24.7581V18.749C14.0996 18.4659 13.8701 18.2363 13.5869 18.2363C13.3038 18.2363 13.0742 18.4659 13.0742 18.749V25.2653C13.0742 25.515 13.2541 25.7284 13.5004 25.7706Z" fill="#29ABE2"/>
<path d="M20.1407 25.7835C21.3486 25.7835 22.4004 24.9942 22.5872 23.9475C22.8021 22.7445 21.8484 21.9358 20.8845 21.5803C20.0335 21.2665 19.2452 20.9235 19.0596 20.8419C18.8261 20.6743 18.7124 20.4041 18.7543 20.1116C18.8059 19.7523 19.0792 19.4647 19.4852 19.3424C20.5693 19.0159 21.5418 19.7989 21.5594 19.8133C21.7762 19.994 22.0984 19.9656 22.2801 19.7494C22.4623 19.5326 22.4343 19.2092 22.2176 19.027C22.1611 18.9796 20.8163 17.8704 19.1895 18.3606C18.4032 18.5974 17.8475 19.2126 17.7393 19.9659C17.6389 20.6654 17.9417 21.3381 18.5298 21.7215C18.5524 21.7362 18.5762 21.7492 18.6009 21.7602C18.6383 21.7769 19.5275 22.1727 20.5296 22.5424C21.2851 22.821 21.6671 23.2675 21.5779 23.7673C21.4921 24.2476 20.9593 24.7581 20.1408 24.7581C19.4086 24.7581 18.701 24.4597 18.2481 23.9598C18.0579 23.75 17.7336 23.7342 17.5239 23.9242C17.3141 24.1143 17.2981 24.4386 17.4882 24.6484C18.1323 25.3591 19.124 25.7835 20.1407 25.7835Z" fill="#29ABE2"/>
<path d="M6.95284 18.454C6.78994 18.2224 6.47009 18.1669 6.23849 18.3297C6.00688 18.4926 5.95124 18.8125 6.11414 19.044L8.0375 21.7781L5.78499 24.9755C5.62195 25.207 5.67739 25.5268 5.90886 25.69C5.99861 25.7532 6.10163 25.7835 6.20369 25.7835C6.36481 25.7835 6.52341 25.7078 6.62328 25.5661L8.66422 22.6689L10.7021 25.5658C10.8019 25.7077 10.9606 25.7836 11.1219 25.7836C11.2238 25.7836 11.3267 25.7533 11.4164 25.6902C11.648 25.5273 11.7037 25.2075 11.5408 24.9759L9.29155 21.7786L11.2177 19.0444C11.3808 18.8129 11.3253 18.4931 11.0938 18.33C10.8624 18.1669 10.5425 18.2224 10.3794 18.4538L8.66483 20.8877L6.95284 18.454Z" fill="#29ABE2"/>
</g>
<defs>
<clipPath id="clip0">
<rect width="35" height="35" fill="white"/>
</clipPath>
</defs>
</svg>
