<svg xmlns="http://www.w3.org/2000/svg" viewBox="0 0 122.8 11.65"><defs><style>.cls-1{fill:#e45146;}.cls-2{fill:#f0b72e;}.cls-3{fill:#49ad3c;}.cls-4{fill:#2eb6e9;}.cls-5{fill:#2e69b2;}</style></defs><g id="Слой_2" data-name="Слой 2"><g id="Layer_3" data-name="Layer 3"><path class="cls-1" d="M8.94,6.84a14.11,14.11,0,0,0-.68-2.52h0A14.34,14.34,0,0,0,7.17,2a1.45,1.45,0,0,0-1.54-.7A18.07,18.07,0,0,0,3.14,2,16.55,16.55,0,0,0,.76,3,1.45,1.45,0,0,0,0,4.55,15.23,15.23,0,0,0,.7,7.06,14.13,14.13,0,0,0,1.79,9.43a1.45,1.45,0,0,0,1.54.69A17.74,17.74,0,0,0,5.82,9.4a17.77,17.77,0,0,0,2.38-1A1.46,1.46,0,0,0,8.94,6.84Z"/><path class="cls-2" d="M18.28,2.76a16.81,16.81,0,0,0-2.45-.87,19.71,19.71,0,0,0-2.54-.53,1.46,1.46,0,0,0-1.48.81,14.3,14.3,0,0,0-.91,2.44,14.61,14.61,0,0,0-.49,2.56,1.47,1.47,0,0,0,.85,1.46,18.9,18.9,0,0,0,2.45.86,16.76,16.76,0,0,0,2.54.53,1.45,1.45,0,0,0,1.49-.8,14.61,14.61,0,0,0,.9-2.45h0a13.44,13.44,0,0,0,.49-2.56A1.43,1.43,0,0,0,18.28,2.76Z"/><path class="cls-3" d="M29.45,6.84a14.32,14.32,0,0,0-.69-2.52h0A14.47,14.47,0,0,0,27.68,2a1.47,1.47,0,0,0-1.55-.7A18.49,18.49,0,0,0,23.64,2a16.85,16.85,0,0,0-2.37,1,1.44,1.44,0,0,0-.74,1.52,13.44,13.44,0,0,0,.68,2.51,14.25,14.25,0,0,0,1.08,2.37,1.47,1.47,0,0,0,1.55.69,18.13,18.13,0,0,0,2.49-.72,19,19,0,0,0,2.38-1A1.47,1.47,0,0,0,29.45,6.84Z"/><path class="cls-4" d="M38.79,2.76a17.27,17.27,0,0,0-2.45-.87,19.71,19.71,0,0,0-2.54-.53,1.47,1.47,0,0,0-1.49.81,14.44,14.44,0,0,0-.9,2.44,13.73,13.73,0,0,0-.49,2.56,1.44,1.44,0,0,0,.85,1.46,18.36,18.36,0,0,0,2.45.86,16.76,16.76,0,0,0,2.54.53,1.44,1.44,0,0,0,1.48-.8,14.47,14.47,0,0,0,.91-2.45h0a15.25,15.25,0,0,0,.49-2.56A1.46,1.46,0,0,0,38.79,2.76Z"/><path class="cls-5" d="M47.52,9.75a.51.51,0,0,1-.16.38.5.5,0,0,1-.37.15h-.88a.51.51,0,0,1-.37-.15.54.54,0,0,1-.15-.38V7.5a.5.5,0,0,1,.15-.37A.51.51,0,0,1,46.11,7h.28a2.56,2.56,0,0,0,.31-.57,4.67,4.67,0,0,0,.24-.72c.06-.26.12-.53.16-.81s.07-.56.09-.84l.05-.81a.58.58,0,0,1,.17-.37.54.54,0,0,1,.38-.15h3.87a.51.51,0,0,1,.52.52V7h.51a.51.51,0,0,1,.52.52V9.75a.54.54,0,0,1-.15.38.5.5,0,0,1-.37.15h-.88a.5.5,0,0,1-.37-.15.54.54,0,0,1-.15-.38V8.9H47.52Zm2.6-5.11h-.93l0,.24a7.6,7.6,0,0,1-.26,1.3,3.37,3.37,0,0,1-.36.8h1.57Z"/><path class="cls-5" d="M55.89,6.49a1.15,1.15,0,0,0,.55.65,1.87,1.87,0,0,0,.9.21,5,5,0,0,0,.6,0,2.73,2.73,0,0,0,.51-.14.81.81,0,0,1,.31-.06.51.51,0,0,1,.48.29l.22.44a.7.7,0,0,1,0,.25.48.48,0,0,1-.25.45A3.57,3.57,0,0,1,58.18,9a6,6,0,0,1-1.06.1,3.79,3.79,0,0,1-1.39-.24,2.84,2.84,0,0,1-1-.66,2.94,2.94,0,0,1-.68-1,3.58,3.58,0,0,1-.24-1.33A3.34,3.34,0,0,1,54,4.54a3.29,3.29,0,0,1,.68-1,3.07,3.07,0,0,1,1-.7,3.59,3.59,0,0,1,1.39-.25,3.09,3.09,0,0,1,1.13.2,2.86,2.86,0,0,1,1.62,1.51,2.77,2.77,0,0,1,.25,1.2,4.94,4.94,0,0,1,0,.62.49.49,0,0,1-.18.28.41.41,0,0,1-.29.13Zm2.16-1.37a.84.84,0,0,0-.25-.59,1,1,0,0,0-.75-.27,1.31,1.31,0,0,0-.8.22,1.43,1.43,0,0,0-.42.64Z"/><path class="cls-5" d="M63,8.9a.51.51,0,0,1-.52-.52V4.77H61.19a.51.51,0,0,1-.52-.52v-1a.51.51,0,0,1,.15-.37.5.5,0,0,1,.37-.15h4.6a.51.51,0,0,1,.52.52v1a.5.5,0,0,1-.15.37.51.51,0,0,1-.37.15H64.52V8.38a.5.5,0,0,1-.15.37A.51.51,0,0,1,64,8.9Z"/><path class="cls-5" d="M71.32,4.72a2.08,2.08,0,0,0-.95-.25,1.51,1.51,0,0,0-.48.08,1.27,1.27,0,0,0-.43.26,1.21,1.21,0,0,0-.31.42,1.31,1.31,0,0,0-.12.58,1.16,1.16,0,0,0,.13.56,1.43,1.43,0,0,0,.31.42,1.5,1.5,0,0,0,.44.26,1.36,1.36,0,0,0,.48.09,1.81,1.81,0,0,0,1-.3.62.62,0,0,1,.38-.13.53.53,0,0,1,.43.22l.43.57a.57.57,0,0,1,.11.33.54.54,0,0,1-.22.44,3.43,3.43,0,0,1-1.17.64,3.67,3.67,0,0,1-1,.16,4,4,0,0,1-1.42-.24,2.93,2.93,0,0,1-1.09-.66,2.83,2.83,0,0,1-.69-1,3.58,3.58,0,0,1-.24-1.33,3.34,3.34,0,0,1,.24-1.27,3.07,3.07,0,0,1,.66-1,3.13,3.13,0,0,1,1-.7,3.4,3.4,0,0,1,1.34-.25,4.75,4.75,0,0,1,1.11.11,3.15,3.15,0,0,1,1,.46.57.57,0,0,1,.3.48.53.53,0,0,1-.08.27l-.4.66a.53.53,0,0,1-.47.27A.61.61,0,0,1,71.32,4.72Z"/><path class="cls-5" d="M75.94,5.94V8.38a.5.5,0,0,1-.15.37.51.51,0,0,1-.37.15h-1a.51.51,0,0,1-.52-.52V3.23A.51.51,0,0,1,74,2.86a.5.5,0,0,1,.37-.15h1a.51.51,0,0,1,.52.52V5.41l1.59-2.36a.85.85,0,0,1,.29-.24.65.65,0,0,1,.36-.1h1a.51.51,0,0,1,.39.17.51.51,0,0,1,0,.68L78.11,5.49l.68.92a1.37,1.37,0,0,0,.74.59.74.74,0,0,1,.42.21.75.75,0,0,1,.1.45V8.5a.44.44,0,0,1-.12.3.46.46,0,0,1-.29.17l-.21,0h-.2a2.37,2.37,0,0,1-.52-.06,1.69,1.69,0,0,1-.54-.2,2.54,2.54,0,0,1-.53-.4,4.61,4.61,0,0,1-.55-.68Z"/><path class="cls-5" d="M86,8.9a.51.51,0,0,1-.52-.52V5.67l-2,2.89a.85.85,0,0,1-.26.24.52.52,0,0,1-.33.1H81.74a.51.51,0,0,1-.37-.15.5.5,0,0,1-.15-.37V3.23a.51.51,0,0,1,.52-.52h1a.5.5,0,0,1,.37.15.49.49,0,0,1,.16.37V5.94l2-2.89a1.12,1.12,0,0,1,.25-.24.52.52,0,0,1,.33-.1H87a.51.51,0,0,1,.52.52V8.38a.5.5,0,0,1-.15.37A.51.51,0,0,1,87,8.9Z"/><path class="cls-5" d="M93.85,8.9a.51.51,0,0,1-.52-.52V5.67l-2,2.89a.94.94,0,0,1-.25.24.57.57,0,0,1-.34.1H89.59a.5.5,0,0,1-.37-.15.47.47,0,0,1-.16-.37V3.23a.49.49,0,0,1,.16-.37.5.5,0,0,1,.37-.15h1a.54.54,0,0,1,.38.15.51.51,0,0,1,.15.37V5.94l2-2.89a1.12,1.12,0,0,1,.25-.24.52.52,0,0,1,.33-.1h1.2a.5.5,0,0,1,.37.15.51.51,0,0,1,.15.37V8.38a.51.51,0,0,1-.52.52ZM93.55,0a.81.81,0,0,1,.62.23.85.85,0,0,1,.22.61,1.1,1.1,0,0,1-.53.91,2.81,2.81,0,0,1-1.58.37,2.87,2.87,0,0,1-1.65-.37,1.1,1.1,0,0,1-.51-.91.89.89,0,0,1,.21-.61A.8.8,0,0,1,91,0a.75.75,0,0,1,.52.15.85.85,0,0,1,.24.37.74.74,0,0,0,.19.31.52.52,0,0,0,.38.12.46.46,0,0,0,.35-.12,1,1,0,0,0,.18-.31A.75.75,0,0,1,93,.15.74.74,0,0,1,93.55,0Z"/><path class="cls-5" d="M101.72,8.38a.5.5,0,0,1-.15.37.51.51,0,0,1-.37.15h-1a.51.51,0,0,1-.52-.52V3.23a.51.51,0,0,1,.15-.37.5.5,0,0,1,.37-.15h1a.83.83,0,0,1,.63.32l1.58,1.79L104.83,3a1,1,0,0,1,.27-.24.7.7,0,0,1,.35-.09h.92a.5.5,0,0,1,.37.15.51.51,0,0,1,.15.37V8.38a.51.51,0,0,1-.52.52h-1a.51.51,0,0,1-.37-.15.5.5,0,0,1-.15-.37V5.86l-1.17,1.32a.48.48,0,0,1-.36.17.53.53,0,0,1-.36-.15l-1.22-1.34Z"/><path class="cls-5" d="M113.19,8.9a.51.51,0,0,1-.37-.15.5.5,0,0,1-.15-.37V5.67l-2,2.89a.82.82,0,0,1-.25.24.57.57,0,0,1-.34.1h-1.18a.51.51,0,0,1-.52-.52V3.23a.51.51,0,0,1,.15-.37.5.5,0,0,1,.37-.15h1a.51.51,0,0,1,.52.52V5.94l2-2.89a.82.82,0,0,1,.25-.24.52.52,0,0,1,.33-.1h1.19a.5.5,0,0,1,.37.15.51.51,0,0,1,.15.37V8.38a.51.51,0,0,1-.52.52Z"/><path class="cls-5" d="M118.31,11.13a.51.51,0,0,1-.52.52h-1a.51.51,0,0,1-.52-.52V3.23a.51.51,0,0,1,.15-.37.5.5,0,0,1,.37-.15h1.09a.42.42,0,0,1,.32.13.44.44,0,0,1,.13.32,2.46,2.46,0,0,1,.7-.43,3,3,0,0,1,2.16,0,2.58,2.58,0,0,1,.87.66,3.24,3.24,0,0,1,.56,1,4,4,0,0,1,.2,1.27A3.51,3.51,0,0,1,122.56,7a3.21,3.21,0,0,1-.68,1.07,3.15,3.15,0,0,1-1,.71,3.38,3.38,0,0,1-1.37.27,4.46,4.46,0,0,1-.63-.05,2,2,0,0,1-.53-.15Zm0-4.22a1.57,1.57,0,0,0,.44.18,2.34,2.34,0,0,0,.52,0,1.2,1.2,0,0,0,1-.41,1.49,1.49,0,0,0,.33-1,1.41,1.41,0,0,0-.31-.91,1.15,1.15,0,0,0-.91-.37,1.43,1.43,0,0,0-1.07.55Z"/></g></g></svg>